<?xml version="1.0" encoding="utf-8" standalone="no"?>
<!DOCTYPE svg PUBLIC "-//W3C//DTD SVG 1.1//EN"
  "http://www.w3.org/Graphics/SVG/1.1/DTD/svg11.dtd">
<!-- Created with matplotlib (http://matplotlib.org/) -->
<svg height="360pt" version="1.1" viewBox="0 0 612 360" width="612pt" xmlns="http://www.w3.org/2000/svg" xmlns:xlink="http://www.w3.org/1999/xlink">
 <defs>
  <style type="text/css">
*{stroke-linecap:butt;stroke-linejoin:round;}
  </style>
 </defs>
 <g id="figure_1">
  <g id="patch_1">
   <path d="M 0 360 
L 612 360 
L 612 0 
L 0 0 
z
" style="fill:#ffffff;"/>
  </g>
  <g id="axes_1">
   <g id="line2d_1"/>
  </g>
  <g id="axes_2">
   <g id="matplotlib.axis_1">
    <g id="xtick_1"/>
    <g id="xtick_2"/>
    <g id="xtick_3"/>
    <g id="xtick_4"/>
    <g id="xtick_5"/>
    <g id="xtick_6"/>
   </g>
   <g id="matplotlib.axis_2">
    <g id="ytick_1"/>
    <g id="ytick_2"/>
   </g>
   <g id="patch_2">
    <path d="M 72 40.884706 
L 72 7.2 
" style="fill:none;stroke:#000000;stroke-linecap:square;stroke-linejoin:miter;stroke-width:0.8;"/>
   </g>
   <g id="patch_3">
    <path d="M 540 40.884706 
L 540 7.2 
" style="fill:none;stroke:#000000;stroke-linecap:square;stroke-linejoin:miter;stroke-width:0.8;"/>
   </g>
   <g id="patch_4">
    <path d="M 72 7.2 
L 540 7.2 
" style="fill:none;stroke:#000000;stroke-linecap:square;stroke-linejoin:miter;stroke-width:0.8;"/>
   </g>
   <g id="text_1">
    <!-- Average annual air temperature = 6.9 °C -->
    <defs>
     <path d="M -0.140625 0 
L 27.34375 71.578125 
L 37.546875 71.578125 
L 66.84375 0 
L 56.0625 0 
L 47.703125 21.6875 
L 17.78125 21.6875 
L 9.90625 0 
z
M 20.515625 29.390625 
L 44.78125 29.390625 
L 37.3125 49.21875 
Q 33.890625 58.25 32.234375 64.0625 
Q 30.859375 57.171875 28.375 50.390625 
z
" id="ArialMT-41"/>
     <path d="M 21 0 
L 1.265625 51.859375 
L 10.546875 51.859375 
L 21.6875 20.796875 
Q 23.484375 15.765625 25 10.359375 
Q 26.171875 14.453125 28.265625 20.21875 
L 39.796875 51.859375 
L 48.828125 51.859375 
L 29.203125 0 
z
" id="ArialMT-76"/>
     <path d="M 42.09375 16.703125 
L 51.171875 15.578125 
Q 49.03125 7.625 43.21875 3.21875 
Q 37.40625 -1.171875 28.375 -1.171875 
Q 17 -1.171875 10.328125 5.828125 
Q 3.65625 12.84375 3.65625 25.484375 
Q 3.65625 38.578125 10.390625 45.796875 
Q 17.140625 53.03125 27.875 53.03125 
Q 38.28125 53.03125 44.875 45.953125 
Q 51.46875 38.875 51.46875 26.03125 
Q 51.46875 25.25 51.421875 23.6875 
L 12.75 23.6875 
Q 13.234375 15.140625 17.578125 10.59375 
Q 21.921875 6.0625 28.421875 6.0625 
Q 33.25 6.0625 36.671875 8.59375 
Q 40.09375 11.140625 42.09375 16.703125 
z
M 13.234375 30.90625 
L 42.1875 30.90625 
Q 41.609375 37.453125 38.875 40.71875 
Q 34.671875 45.796875 27.984375 45.796875 
Q 21.921875 45.796875 17.796875 41.75 
Q 13.671875 37.703125 13.234375 30.90625 
z
" id="ArialMT-65"/>
     <path d="M 6.5 0 
L 6.5 51.859375 
L 14.40625 51.859375 
L 14.40625 44 
Q 17.4375 49.515625 20 51.265625 
Q 22.5625 53.03125 25.640625 53.03125 
Q 30.078125 53.03125 34.671875 50.203125 
L 31.640625 42.046875 
Q 28.421875 43.953125 25.203125 43.953125 
Q 22.3125 43.953125 20.015625 42.21875 
Q 17.71875 40.484375 16.75 37.40625 
Q 15.28125 32.71875 15.28125 27.15625 
L 15.28125 0 
z
" id="ArialMT-72"/>
     <path d="M 40.4375 6.390625 
Q 35.546875 2.25 31.03125 0.53125 
Q 26.515625 -1.171875 21.34375 -1.171875 
Q 12.796875 -1.171875 8.203125 3 
Q 3.609375 7.171875 3.609375 13.671875 
Q 3.609375 17.484375 5.34375 20.625 
Q 7.078125 23.78125 9.890625 25.6875 
Q 12.703125 27.59375 16.21875 28.5625 
Q 18.796875 29.25 24.03125 29.890625 
Q 34.671875 31.15625 39.703125 32.90625 
Q 39.75 34.71875 39.75 35.203125 
Q 39.75 40.578125 37.25 42.78125 
Q 33.890625 45.75 27.25 45.75 
Q 21.046875 45.75 18.09375 43.578125 
Q 15.140625 41.40625 13.71875 35.890625 
L 5.125 37.0625 
Q 6.296875 42.578125 8.984375 45.96875 
Q 11.671875 49.359375 16.75 51.1875 
Q 21.828125 53.03125 28.515625 53.03125 
Q 35.15625 53.03125 39.296875 51.46875 
Q 43.453125 49.90625 45.40625 47.53125 
Q 47.359375 45.171875 48.140625 41.546875 
Q 48.578125 39.3125 48.578125 33.453125 
L 48.578125 21.734375 
Q 48.578125 9.46875 49.140625 6.21875 
Q 49.703125 2.984375 51.375 0 
L 42.1875 0 
Q 40.828125 2.734375 40.4375 6.390625 
z
M 39.703125 26.03125 
Q 34.90625 24.078125 25.34375 22.703125 
Q 19.921875 21.921875 17.671875 20.9375 
Q 15.4375 19.96875 14.203125 18.09375 
Q 12.984375 16.21875 12.984375 13.921875 
Q 12.984375 10.40625 15.640625 8.0625 
Q 18.3125 5.71875 23.4375 5.71875 
Q 28.515625 5.71875 32.46875 7.9375 
Q 36.421875 10.15625 38.28125 14.015625 
Q 39.703125 17 39.703125 22.796875 
z
" id="ArialMT-61"/>
     <path d="M 4.984375 -4.296875 
L 13.53125 -5.5625 
Q 14.0625 -9.515625 16.5 -11.328125 
Q 19.78125 -13.765625 25.4375 -13.765625 
Q 31.546875 -13.765625 34.859375 -11.328125 
Q 38.1875 -8.890625 39.359375 -4.5 
Q 40.046875 -1.8125 39.984375 6.78125 
Q 34.234375 0 25.640625 0 
Q 14.9375 0 9.078125 7.71875 
Q 3.21875 15.4375 3.21875 26.21875 
Q 3.21875 33.640625 5.90625 39.90625 
Q 8.59375 46.1875 13.6875 49.609375 
Q 18.796875 53.03125 25.6875 53.03125 
Q 34.859375 53.03125 40.828125 45.609375 
L 40.828125 51.859375 
L 48.921875 51.859375 
L 48.921875 7.03125 
Q 48.921875 -5.078125 46.453125 -10.125 
Q 44 -15.1875 38.640625 -18.109375 
Q 33.296875 -21.046875 25.484375 -21.046875 
Q 16.21875 -21.046875 10.5 -16.875 
Q 4.78125 -12.703125 4.984375 -4.296875 
z
M 12.25 26.859375 
Q 12.25 16.65625 16.296875 11.96875 
Q 20.359375 7.28125 26.46875 7.28125 
Q 32.515625 7.28125 36.609375 11.9375 
Q 40.71875 16.609375 40.71875 26.5625 
Q 40.71875 36.078125 36.5 40.90625 
Q 32.28125 45.75 26.3125 45.75 
Q 20.453125 45.75 16.34375 40.984375 
Q 12.25 36.234375 12.25 26.859375 
z
" id="ArialMT-67"/>
     <path id="ArialMT-20"/>
     <path d="M 6.59375 0 
L 6.59375 51.859375 
L 14.5 51.859375 
L 14.5 44.484375 
Q 20.21875 53.03125 31 53.03125 
Q 35.6875 53.03125 39.625 51.34375 
Q 43.5625 49.65625 45.515625 46.921875 
Q 47.46875 44.1875 48.25 40.4375 
Q 48.734375 37.984375 48.734375 31.890625 
L 48.734375 0 
L 39.9375 0 
L 39.9375 31.546875 
Q 39.9375 36.921875 38.90625 39.578125 
Q 37.890625 42.234375 35.28125 43.8125 
Q 32.671875 45.40625 29.15625 45.40625 
Q 23.53125 45.40625 19.453125 41.84375 
Q 15.375 38.28125 15.375 28.328125 
L 15.375 0 
z
" id="ArialMT-6e"/>
     <path d="M 40.578125 0 
L 40.578125 7.625 
Q 34.515625 -1.171875 24.125 -1.171875 
Q 19.53125 -1.171875 15.546875 0.578125 
Q 11.578125 2.34375 9.640625 5 
Q 7.71875 7.671875 6.9375 11.53125 
Q 6.390625 14.109375 6.390625 19.734375 
L 6.390625 51.859375 
L 15.1875 51.859375 
L 15.1875 23.09375 
Q 15.1875 16.21875 15.71875 13.8125 
Q 16.546875 10.359375 19.234375 8.375 
Q 21.921875 6.390625 25.875 6.390625 
Q 29.828125 6.390625 33.296875 8.421875 
Q 36.765625 10.453125 38.203125 13.9375 
Q 39.65625 17.4375 39.65625 24.078125 
L 39.65625 51.859375 
L 48.4375 51.859375 
L 48.4375 0 
z
" id="ArialMT-75"/>
     <path d="M 6.390625 0 
L 6.390625 71.578125 
L 15.1875 71.578125 
L 15.1875 0 
z
" id="ArialMT-6c"/>
     <path d="M 6.640625 61.46875 
L 6.640625 71.578125 
L 15.4375 71.578125 
L 15.4375 61.46875 
z
M 6.640625 0 
L 6.640625 51.859375 
L 15.4375 51.859375 
L 15.4375 0 
z
" id="ArialMT-69"/>
     <path d="M 25.78125 7.859375 
L 27.046875 0.09375 
Q 23.34375 -0.6875 20.40625 -0.6875 
Q 15.625 -0.6875 12.984375 0.828125 
Q 10.359375 2.34375 9.28125 4.8125 
Q 8.203125 7.28125 8.203125 15.1875 
L 8.203125 45.015625 
L 1.765625 45.015625 
L 1.765625 51.859375 
L 8.203125 51.859375 
L 8.203125 64.703125 
L 16.9375 69.96875 
L 16.9375 51.859375 
L 25.78125 51.859375 
L 25.78125 45.015625 
L 16.9375 45.015625 
L 16.9375 14.703125 
Q 16.9375 10.9375 17.40625 9.859375 
Q 17.875 8.796875 18.921875 8.15625 
Q 19.96875 7.515625 21.921875 7.515625 
Q 23.390625 7.515625 25.78125 7.859375 
z
" id="ArialMT-74"/>
     <path d="M 6.59375 0 
L 6.59375 51.859375 
L 14.453125 51.859375 
L 14.453125 44.578125 
Q 16.890625 48.390625 20.9375 50.703125 
Q 25 53.03125 30.171875 53.03125 
Q 35.9375 53.03125 39.625 50.640625 
Q 43.3125 48.25 44.828125 43.953125 
Q 50.984375 53.03125 60.84375 53.03125 
Q 68.5625 53.03125 72.703125 48.75 
Q 76.859375 44.484375 76.859375 35.59375 
L 76.859375 0 
L 68.109375 0 
L 68.109375 32.671875 
Q 68.109375 37.9375 67.25 40.25 
Q 66.40625 42.578125 64.15625 43.984375 
Q 61.921875 45.40625 58.890625 45.40625 
Q 53.421875 45.40625 49.796875 41.765625 
Q 46.1875 38.140625 46.1875 30.125 
L 46.1875 0 
L 37.40625 0 
L 37.40625 33.6875 
Q 37.40625 39.546875 35.25 42.46875 
Q 33.109375 45.40625 28.21875 45.40625 
Q 24.515625 45.40625 21.359375 43.453125 
Q 18.21875 41.5 16.796875 37.734375 
Q 15.375 33.984375 15.375 26.90625 
L 15.375 0 
z
" id="ArialMT-6d"/>
     <path d="M 6.59375 -19.875 
L 6.59375 51.859375 
L 14.59375 51.859375 
L 14.59375 45.125 
Q 17.4375 49.078125 21 51.046875 
Q 24.5625 53.03125 29.640625 53.03125 
Q 36.28125 53.03125 41.359375 49.609375 
Q 46.4375 46.1875 49.015625 39.953125 
Q 51.609375 33.734375 51.609375 26.3125 
Q 51.609375 18.359375 48.75 11.984375 
Q 45.90625 5.609375 40.453125 2.21875 
Q 35.015625 -1.171875 29 -1.171875 
Q 24.609375 -1.171875 21.109375 0.6875 
Q 17.625 2.546875 15.375 5.375 
L 15.375 -19.875 
z
M 14.546875 25.640625 
Q 14.546875 15.625 18.59375 10.84375 
Q 22.65625 6.0625 28.421875 6.0625 
Q 34.28125 6.0625 38.453125 11.015625 
Q 42.625 15.96875 42.625 26.375 
Q 42.625 36.28125 38.546875 41.203125 
Q 34.46875 46.140625 28.8125 46.140625 
Q 23.1875 46.140625 18.859375 40.890625 
Q 14.546875 35.640625 14.546875 25.640625 
z
" id="ArialMT-70"/>
     <path d="M 52.828125 42.09375 
L 5.5625 42.09375 
L 5.5625 50.296875 
L 52.828125 50.296875 
z
M 52.828125 20.359375 
L 5.5625 20.359375 
L 5.5625 28.5625 
L 52.828125 28.5625 
z
" id="ArialMT-3d"/>
     <path d="M 49.75 54.046875 
L 41.015625 53.375 
Q 39.84375 58.546875 37.703125 60.890625 
Q 34.125 64.65625 28.90625 64.65625 
Q 24.703125 64.65625 21.53125 62.3125 
Q 17.390625 59.28125 14.984375 53.46875 
Q 12.59375 47.65625 12.5 36.921875 
Q 15.671875 41.75 20.265625 44.09375 
Q 24.859375 46.4375 29.890625 46.4375 
Q 38.671875 46.4375 44.84375 39.96875 
Q 51.03125 33.5 51.03125 23.25 
Q 51.03125 16.5 48.125 10.71875 
Q 45.21875 4.9375 40.140625 1.859375 
Q 35.0625 -1.21875 28.609375 -1.21875 
Q 17.625 -1.21875 10.6875 6.859375 
Q 3.765625 14.9375 3.765625 33.5 
Q 3.765625 54.25 11.421875 63.671875 
Q 18.109375 71.875 29.4375 71.875 
Q 37.890625 71.875 43.28125 67.140625 
Q 48.6875 62.40625 49.75 54.046875 
z
M 13.875 23.1875 
Q 13.875 18.65625 15.796875 14.5 
Q 17.71875 10.359375 21.1875 8.171875 
Q 24.65625 6 28.46875 6 
Q 34.03125 6 38.03125 10.484375 
Q 42.046875 14.984375 42.046875 22.703125 
Q 42.046875 30.125 38.078125 34.390625 
Q 34.125 38.671875 28.125 38.671875 
Q 22.171875 38.671875 18.015625 34.390625 
Q 13.875 30.125 13.875 23.1875 
z
" id="ArialMT-36"/>
     <path d="M 9.078125 0 
L 9.078125 10.015625 
L 19.09375 10.015625 
L 19.09375 0 
z
" id="ArialMT-2e"/>
     <path d="M 5.46875 16.546875 
L 13.921875 17.328125 
Q 14.984375 11.375 18.015625 8.6875 
Q 21.046875 6 25.78125 6 
Q 29.828125 6 32.875 7.859375 
Q 35.9375 9.71875 37.890625 12.8125 
Q 39.84375 15.921875 41.15625 21.1875 
Q 42.484375 26.46875 42.484375 31.9375 
Q 42.484375 32.515625 42.4375 33.6875 
Q 39.796875 29.5 35.234375 26.875 
Q 30.671875 24.265625 25.34375 24.265625 
Q 16.453125 24.265625 10.296875 30.703125 
Q 4.15625 37.15625 4.15625 47.703125 
Q 4.15625 58.59375 10.578125 65.234375 
Q 17 71.875 26.65625 71.875 
Q 33.640625 71.875 39.421875 68.109375 
Q 45.21875 64.359375 48.21875 57.390625 
Q 51.21875 50.4375 51.21875 37.25 
Q 51.21875 23.53125 48.234375 15.40625 
Q 45.265625 7.28125 39.375 3.03125 
Q 33.5 -1.21875 25.59375 -1.21875 
Q 17.1875 -1.21875 11.859375 3.4375 
Q 6.546875 8.109375 5.46875 16.546875 
z
M 41.453125 48.140625 
Q 41.453125 55.71875 37.421875 60.15625 
Q 33.40625 64.59375 27.734375 64.59375 
Q 21.875 64.59375 17.53125 59.8125 
Q 13.1875 55.03125 13.1875 47.40625 
Q 13.1875 40.578125 17.3125 36.296875 
Q 21.4375 32.03125 27.484375 32.03125 
Q 33.59375 32.03125 37.515625 36.296875 
Q 41.453125 40.578125 41.453125 48.140625 
z
" id="ArialMT-39"/>
     <path d="M 6.25 59.28125 
Q 6.25 64.890625 10.21875 68.84375 
Q 14.203125 72.796875 19.78125 72.796875 
Q 25.4375 72.796875 29.390625 68.84375 
Q 33.34375 64.890625 33.34375 59.28125 
Q 33.34375 53.65625 29.359375 49.671875 
Q 25.390625 45.703125 19.78125 45.703125 
Q 14.203125 45.703125 10.21875 49.65625 
Q 6.25 53.609375 6.25 59.28125 
z
M 11.578125 59.28125 
Q 11.578125 55.859375 13.984375 53.4375 
Q 16.40625 51.03125 19.828125 51.03125 
Q 23.1875 51.03125 25.609375 53.4375 
Q 28.03125 55.859375 28.03125 59.28125 
Q 28.03125 62.703125 25.609375 65.109375 
Q 23.1875 67.53125 19.828125 67.53125 
Q 16.40625 67.53125 13.984375 65.109375 
Q 11.578125 62.703125 11.578125 59.28125 
z
" id="ArialMT-b0"/>
     <path d="M 58.796875 25.09375 
L 68.265625 22.703125 
Q 65.28125 11.03125 57.546875 4.90625 
Q 49.8125 -1.21875 38.625 -1.21875 
Q 27.046875 -1.21875 19.796875 3.484375 
Q 12.546875 8.203125 8.765625 17.140625 
Q 4.984375 26.078125 4.984375 36.328125 
Q 4.984375 47.515625 9.25 55.828125 
Q 13.53125 64.15625 21.40625 68.46875 
Q 29.296875 72.796875 38.765625 72.796875 
Q 49.515625 72.796875 56.828125 67.328125 
Q 64.15625 61.859375 67.046875 51.953125 
L 57.71875 49.75 
Q 55.21875 57.5625 50.484375 61.125 
Q 45.75 64.703125 38.578125 64.703125 
Q 30.328125 64.703125 24.78125 60.734375 
Q 19.234375 56.78125 16.984375 50.109375 
Q 14.75 43.453125 14.75 36.375 
Q 14.75 27.25 17.40625 20.4375 
Q 20.0625 13.625 25.671875 10.25 
Q 31.296875 6.890625 37.84375 6.890625 
Q 45.796875 6.890625 51.3125 11.46875 
Q 56.84375 16.0625 58.796875 25.09375 
z
" id="ArialMT-43"/>
    </defs>
    <g transform="translate(77 19.663594)scale(0.13 -0.13)">
     <use xlink:href="#ArialMT-41"/>
     <use x="66.683594" xlink:href="#ArialMT-76"/>
     <use x="116.683594" xlink:href="#ArialMT-65"/>
     <use x="172.298828" xlink:href="#ArialMT-72"/>
     <use x="205.599609" xlink:href="#ArialMT-61"/>
     <use x="261.214844" xlink:href="#ArialMT-67"/>
     <use x="316.830078" xlink:href="#ArialMT-65"/>
     <use x="372.445312" xlink:href="#ArialMT-20"/>
     <use x="400.228516" xlink:href="#ArialMT-61"/>
     <use x="455.84375" xlink:href="#ArialMT-6e"/>
     <use x="511.458984" xlink:href="#ArialMT-6e"/>
     <use x="567.074219" xlink:href="#ArialMT-75"/>
     <use x="622.689453" xlink:href="#ArialMT-61"/>
     <use x="678.304688" xlink:href="#ArialMT-6c"/>
     <use x="700.521484" xlink:href="#ArialMT-20"/>
     <use x="728.304688" xlink:href="#ArialMT-61"/>
     <use x="783.919922" xlink:href="#ArialMT-69"/>
     <use x="806.136719" xlink:href="#ArialMT-72"/>
     <use x="839.4375" xlink:href="#ArialMT-20"/>
     <use x="867.220703" xlink:href="#ArialMT-74"/>
     <use x="895.003906" xlink:href="#ArialMT-65"/>
     <use x="950.619141" xlink:href="#ArialMT-6d"/>
     <use x="1033.919922" xlink:href="#ArialMT-70"/>
     <use x="1089.535156" xlink:href="#ArialMT-65"/>
     <use x="1145.150391" xlink:href="#ArialMT-72"/>
     <use x="1178.451172" xlink:href="#ArialMT-61"/>
     <use x="1234.066406" xlink:href="#ArialMT-74"/>
     <use x="1261.849609" xlink:href="#ArialMT-75"/>
     <use x="1317.464844" xlink:href="#ArialMT-72"/>
     <use x="1350.765625" xlink:href="#ArialMT-65"/>
     <use x="1406.380859" xlink:href="#ArialMT-20"/>
     <use x="1434.164062" xlink:href="#ArialMT-3d"/>
     <use x="1492.5625" xlink:href="#ArialMT-20"/>
     <use x="1520.345703" xlink:href="#ArialMT-36"/>
     <use x="1575.960938" xlink:href="#ArialMT-2e"/>
     <use x="1603.744141" xlink:href="#ArialMT-39"/>
     <use x="1659.359375" xlink:href="#ArialMT-20"/>
     <use x="1687.142578" xlink:href="#ArialMT-b0"/>
     <use x="1727.132812" xlink:href="#ArialMT-43"/>
    </g>
   </g>
   <g id="text_2">
    <!-- Annual total precipitation = 1131 mm -->
    <defs>
     <path d="M 3.328125 25.921875 
Q 3.328125 40.328125 11.328125 47.265625 
Q 18.015625 53.03125 27.640625 53.03125 
Q 38.328125 53.03125 45.109375 46.015625 
Q 51.90625 39.015625 51.90625 26.65625 
Q 51.90625 16.65625 48.90625 10.90625 
Q 45.90625 5.171875 40.15625 2 
Q 34.421875 -1.171875 27.640625 -1.171875 
Q 16.75 -1.171875 10.03125 5.8125 
Q 3.328125 12.796875 3.328125 25.921875 
z
M 12.359375 25.921875 
Q 12.359375 15.96875 16.703125 11.015625 
Q 21.046875 6.0625 27.640625 6.0625 
Q 34.1875 6.0625 38.53125 11.03125 
Q 42.875 16.015625 42.875 26.21875 
Q 42.875 35.84375 38.5 40.796875 
Q 34.125 45.75 27.640625 45.75 
Q 21.046875 45.75 16.703125 40.8125 
Q 12.359375 35.890625 12.359375 25.921875 
z
" id="ArialMT-6f"/>
     <path d="M 40.4375 19 
L 49.078125 17.875 
Q 47.65625 8.9375 41.8125 3.875 
Q 35.984375 -1.171875 27.484375 -1.171875 
Q 16.84375 -1.171875 10.375 5.78125 
Q 3.90625 12.75 3.90625 25.734375 
Q 3.90625 34.125 6.6875 40.421875 
Q 9.46875 46.734375 15.15625 49.875 
Q 20.84375 53.03125 27.546875 53.03125 
Q 35.984375 53.03125 41.359375 48.75 
Q 46.734375 44.484375 48.25 36.625 
L 39.703125 35.296875 
Q 38.484375 40.53125 35.375 43.15625 
Q 32.28125 45.796875 27.875 45.796875 
Q 21.234375 45.796875 17.078125 41.03125 
Q 12.9375 36.28125 12.9375 25.984375 
Q 12.9375 15.53125 16.9375 10.796875 
Q 20.953125 6.0625 27.390625 6.0625 
Q 32.5625 6.0625 36.03125 9.234375 
Q 39.5 12.40625 40.4375 19 
z
" id="ArialMT-63"/>
     <path d="M 37.25 0 
L 28.46875 0 
L 28.46875 56 
Q 25.296875 52.984375 20.140625 49.953125 
Q 14.984375 46.921875 10.890625 45.40625 
L 10.890625 53.90625 
Q 18.265625 57.375 23.78125 62.296875 
Q 29.296875 67.234375 31.59375 71.875 
L 37.25 71.875 
z
" id="ArialMT-31"/>
     <path d="M 4.203125 18.890625 
L 12.984375 20.0625 
Q 14.5 12.59375 18.140625 9.296875 
Q 21.78125 6 27 6 
Q 33.203125 6 37.46875 10.296875 
Q 41.75 14.59375 41.75 20.953125 
Q 41.75 27 37.796875 30.921875 
Q 33.84375 34.859375 27.734375 34.859375 
Q 25.25 34.859375 21.53125 33.890625 
L 22.515625 41.609375 
Q 23.390625 41.5 23.921875 41.5 
Q 29.546875 41.5 34.03125 44.421875 
Q 38.53125 47.359375 38.53125 53.46875 
Q 38.53125 58.296875 35.25 61.46875 
Q 31.984375 64.65625 26.8125 64.65625 
Q 21.6875 64.65625 18.265625 61.421875 
Q 14.84375 58.203125 13.875 51.765625 
L 5.078125 53.328125 
Q 6.6875 62.15625 12.390625 67.015625 
Q 18.109375 71.875 26.609375 71.875 
Q 32.46875 71.875 37.390625 69.359375 
Q 42.328125 66.84375 44.9375 62.5 
Q 47.5625 58.15625 47.5625 53.265625 
Q 47.5625 48.640625 45.0625 44.828125 
Q 42.578125 41.015625 37.703125 38.765625 
Q 44.046875 37.3125 47.5625 32.6875 
Q 51.078125 28.078125 51.078125 21.140625 
Q 51.078125 11.765625 44.234375 5.25 
Q 37.40625 -1.265625 26.953125 -1.265625 
Q 17.53125 -1.265625 11.296875 4.34375 
Q 5.078125 9.96875 4.203125 18.890625 
z
" id="ArialMT-33"/>
    </defs>
    <g transform="translate(77 35.50375)scale(0.13 -0.13)">
     <use xlink:href="#ArialMT-41"/>
     <use x="66.699219" xlink:href="#ArialMT-6e"/>
     <use x="122.314453" xlink:href="#ArialMT-6e"/>
     <use x="177.929688" xlink:href="#ArialMT-75"/>
     <use x="233.544922" xlink:href="#ArialMT-61"/>
     <use x="289.160156" xlink:href="#ArialMT-6c"/>
     <use x="311.376953" xlink:href="#ArialMT-20"/>
     <use x="339.160156" xlink:href="#ArialMT-74"/>
     <use x="366.943359" xlink:href="#ArialMT-6f"/>
     <use x="422.558594" xlink:href="#ArialMT-74"/>
     <use x="450.341797" xlink:href="#ArialMT-61"/>
     <use x="505.957031" xlink:href="#ArialMT-6c"/>
     <use x="528.173828" xlink:href="#ArialMT-20"/>
     <use x="555.957031" xlink:href="#ArialMT-70"/>
     <use x="611.572266" xlink:href="#ArialMT-72"/>
     <use x="644.873047" xlink:href="#ArialMT-65"/>
     <use x="700.488281" xlink:href="#ArialMT-63"/>
     <use x="750.488281" xlink:href="#ArialMT-69"/>
     <use x="772.705078" xlink:href="#ArialMT-70"/>
     <use x="828.320312" xlink:href="#ArialMT-69"/>
     <use x="850.537109" xlink:href="#ArialMT-74"/>
     <use x="878.320312" xlink:href="#ArialMT-61"/>
     <use x="933.935547" xlink:href="#ArialMT-74"/>
     <use x="961.71875" xlink:href="#ArialMT-69"/>
     <use x="983.935547" xlink:href="#ArialMT-6f"/>
     <use x="1039.550781" xlink:href="#ArialMT-6e"/>
     <use x="1095.166016" xlink:href="#ArialMT-20"/>
     <use x="1122.949219" xlink:href="#ArialMT-3d"/>
     <use x="1181.347656" xlink:href="#ArialMT-20"/>
     <use x="1209.130859" xlink:href="#ArialMT-31"/>
     <use x="1264.636719" xlink:href="#ArialMT-31"/>
     <use x="1320.251953" xlink:href="#ArialMT-33"/>
     <use x="1375.867188" xlink:href="#ArialMT-31"/>
     <use x="1431.482422" xlink:href="#ArialMT-20"/>
     <use x="1459.265625" xlink:href="#ArialMT-6d"/>
     <use x="1542.566406" xlink:href="#ArialMT-6d"/>
    </g>
   </g>
  </g>
  <g id="axes_3">
   <g id="matplotlib.axis_3">
    <g id="xtick_7">
     <g id="line2d_2">
      <defs>
       <path d="M 0 0 
L 0 3.5 
" id="m25894a0f15" style="stroke:#000000;stroke-width:0.8;"/>
      </defs>
      <g>
       <use style="stroke:#000000;stroke-width:0.8;" x="72" xlink:href="#m25894a0f15" y="334.8"/>
      </g>
     </g>
    </g>
    <g id="xtick_8">
     <g id="line2d_3">
      <g>
       <use style="stroke:#000000;stroke-width:0.8;" x="110.99675" xlink:href="#m25894a0f15" y="334.8"/>
      </g>
     </g>
    </g>
    <g id="xtick_9">
     <g id="line2d_4">
      <g>
       <use style="stroke:#000000;stroke-width:0.8;" x="149.993501" xlink:href="#m25894a0f15" y="334.8"/>
      </g>
     </g>
    </g>
    <g id="xtick_10">
     <g id="line2d_5">
      <g>
       <use style="stroke:#000000;stroke-width:0.8;" x="188.990251" xlink:href="#m25894a0f15" y="334.8"/>
      </g>
     </g>
    </g>
    <g id="xtick_11">
     <g id="line2d_6">
      <g>
       <use style="stroke:#000000;stroke-width:0.8;" x="227.987001" xlink:href="#m25894a0f15" y="334.8"/>
      </g>
     </g>
    </g>
    <g id="xtick_12">
     <g id="line2d_7">
      <g>
       <use style="stroke:#000000;stroke-width:0.8;" x="266.983751" xlink:href="#m25894a0f15" y="334.8"/>
      </g>
     </g>
    </g>
    <g id="xtick_13">
     <g id="line2d_8">
      <g>
       <use style="stroke:#000000;stroke-width:0.8;" x="305.980502" xlink:href="#m25894a0f15" y="334.8"/>
      </g>
     </g>
    </g>
    <g id="xtick_14">
     <g id="line2d_9">
      <g>
       <use style="stroke:#000000;stroke-width:0.8;" x="344.977252" xlink:href="#m25894a0f15" y="334.8"/>
      </g>
     </g>
    </g>
    <g id="xtick_15">
     <g id="line2d_10">
      <g>
       <use style="stroke:#000000;stroke-width:0.8;" x="383.974002" xlink:href="#m25894a0f15" y="334.8"/>
      </g>
     </g>
    </g>
    <g id="xtick_16">
     <g id="line2d_11">
      <g>
       <use style="stroke:#000000;stroke-width:0.8;" x="422.970752" xlink:href="#m25894a0f15" y="334.8"/>
      </g>
     </g>
    </g>
    <g id="xtick_17">
     <g id="line2d_12">
      <g>
       <use style="stroke:#000000;stroke-width:0.8;" x="461.967503" xlink:href="#m25894a0f15" y="334.8"/>
      </g>
     </g>
    </g>
    <g id="xtick_18">
     <g id="line2d_13">
      <g>
       <use style="stroke:#000000;stroke-width:0.8;" x="500.964253" xlink:href="#m25894a0f15" y="334.8"/>
      </g>
     </g>
    </g>
    <g id="xtick_19">
     <g id="line2d_14">
      <g>
       <use style="stroke:#000000;stroke-width:0.8;" x="539.961003" xlink:href="#m25894a0f15" y="334.8"/>
      </g>
     </g>
    </g>
    <g id="xtick_20">
     <g id="line2d_15"/>
     <g id="text_3">
      <!-- JAN -->
      <defs>
       <path d="M 2.875 20.3125 
L 11.421875 21.484375 
Q 11.765625 13.28125 14.5 10.25 
Q 17.234375 7.234375 22.078125 7.234375 
Q 25.640625 7.234375 28.21875 8.859375 
Q 30.8125 10.5 31.78125 13.296875 
Q 32.765625 16.109375 32.765625 22.265625 
L 32.765625 71.578125 
L 42.234375 71.578125 
L 42.234375 22.796875 
Q 42.234375 13.8125 40.0625 8.875 
Q 37.890625 3.953125 33.171875 1.359375 
Q 28.46875 -1.21875 22.125 -1.21875 
Q 12.703125 -1.21875 7.6875 4.203125 
Q 2.6875 9.625 2.875 20.3125 
z
" id="ArialMT-4a"/>
       <path d="M 7.625 0 
L 7.625 71.578125 
L 17.328125 71.578125 
L 54.9375 15.375 
L 54.9375 71.578125 
L 64.015625 71.578125 
L 64.015625 0 
L 54.296875 0 
L 16.703125 56.25 
L 16.703125 0 
z
" id="ArialMT-4e"/>
      </defs>
      <g transform="translate(79.218453 347.505156)scale(0.13 -0.13)">
       <use xlink:href="#ArialMT-4a"/>
       <use x="50" xlink:href="#ArialMT-41"/>
       <use x="116.699219" xlink:href="#ArialMT-4e"/>
      </g>
     </g>
    </g>
    <g id="xtick_21">
     <g id="line2d_16"/>
     <g id="text_4">
      <!-- FEB -->
      <defs>
       <path d="M 8.203125 0 
L 8.203125 71.578125 
L 56.5 71.578125 
L 56.5 63.140625 
L 17.671875 63.140625 
L 17.671875 40.96875 
L 51.265625 40.96875 
L 51.265625 32.515625 
L 17.671875 32.515625 
L 17.671875 0 
z
" id="ArialMT-46"/>
       <path d="M 7.90625 0 
L 7.90625 71.578125 
L 59.671875 71.578125 
L 59.671875 63.140625 
L 17.390625 63.140625 
L 17.390625 41.21875 
L 56.984375 41.21875 
L 56.984375 32.8125 
L 17.390625 32.8125 
L 17.390625 8.453125 
L 61.328125 8.453125 
L 61.328125 0 
z
" id="ArialMT-45"/>
       <path d="M 7.328125 0 
L 7.328125 71.578125 
L 34.1875 71.578125 
Q 42.390625 71.578125 47.34375 69.40625 
Q 52.296875 67.234375 55.09375 62.71875 
Q 57.90625 58.203125 57.90625 53.265625 
Q 57.90625 48.6875 55.421875 44.625 
Q 52.9375 40.578125 47.90625 38.09375 
Q 54.390625 36.1875 57.875 31.59375 
Q 61.375 27 61.375 20.75 
Q 61.375 15.71875 59.25 11.390625 
Q 57.125 7.078125 54 4.734375 
Q 50.875 2.390625 46.15625 1.1875 
Q 41.453125 0 34.625 0 
z
M 16.796875 41.5 
L 32.28125 41.5 
Q 38.578125 41.5 41.3125 42.328125 
Q 44.921875 43.40625 46.75 45.890625 
Q 48.578125 48.390625 48.578125 52.15625 
Q 48.578125 55.71875 46.875 58.421875 
Q 45.171875 61.140625 41.984375 62.140625 
Q 38.8125 63.140625 31.109375 63.140625 
L 16.796875 63.140625 
z
M 16.796875 8.453125 
L 34.625 8.453125 
Q 39.203125 8.453125 41.0625 8.796875 
Q 44.34375 9.375 46.53125 10.734375 
Q 48.734375 12.109375 50.140625 14.71875 
Q 51.5625 17.328125 51.5625 20.75 
Q 51.5625 24.75 49.515625 27.703125 
Q 47.46875 30.671875 43.828125 31.859375 
Q 40.1875 33.0625 33.34375 33.0625 
L 16.796875 33.0625 
z
" id="ArialMT-42"/>
      </defs>
      <g transform="translate(117.853641 347.505156)scale(0.13 -0.13)">
       <use xlink:href="#ArialMT-46"/>
       <use x="61.083984" xlink:href="#ArialMT-45"/>
       <use x="127.783203" xlink:href="#ArialMT-42"/>
      </g>
     </g>
    </g>
    <g id="xtick_22">
     <g id="line2d_17"/>
     <g id="text_5">
      <!-- MAR -->
      <defs>
       <path d="M 7.421875 0 
L 7.421875 71.578125 
L 21.6875 71.578125 
L 38.625 20.90625 
Q 40.96875 13.8125 42.046875 10.296875 
Q 43.265625 14.203125 45.84375 21.78125 
L 62.984375 71.578125 
L 75.734375 71.578125 
L 75.734375 0 
L 66.609375 0 
L 66.609375 59.90625 
L 45.796875 0 
L 37.25 0 
L 16.546875 60.9375 
L 16.546875 0 
z
" id="ArialMT-4d"/>
       <path d="M 7.859375 0 
L 7.859375 71.578125 
L 39.59375 71.578125 
Q 49.171875 71.578125 54.140625 69.640625 
Q 59.125 67.71875 62.109375 62.828125 
Q 65.09375 57.953125 65.09375 52.046875 
Q 65.09375 44.4375 60.15625 39.203125 
Q 55.21875 33.984375 44.921875 32.5625 
Q 48.6875 30.765625 50.640625 29 
Q 54.78125 25.203125 58.5 19.484375 
L 70.953125 0 
L 59.03125 0 
L 49.5625 14.890625 
Q 45.40625 21.34375 42.71875 24.75 
Q 40.046875 28.171875 37.921875 29.53125 
Q 35.796875 30.90625 33.59375 31.453125 
Q 31.984375 31.78125 28.328125 31.78125 
L 17.328125 31.78125 
L 17.328125 0 
z
M 17.328125 39.984375 
L 37.703125 39.984375 
Q 44.1875 39.984375 47.84375 41.328125 
Q 51.515625 42.671875 53.421875 45.625 
Q 55.328125 48.578125 55.328125 52.046875 
Q 55.328125 57.125 51.640625 60.390625 
Q 47.953125 63.671875 39.984375 63.671875 
L 17.328125 63.671875 
z
" id="ArialMT-52"/>
      </defs>
      <g transform="translate(155.047657 347.505156)scale(0.13 -0.13)">
       <use xlink:href="#ArialMT-4d"/>
       <use x="83.300781" xlink:href="#ArialMT-41"/>
       <use x="150" xlink:href="#ArialMT-52"/>
      </g>
     </g>
    </g>
    <g id="xtick_23">
     <g id="line2d_18"/>
     <g id="text_6">
      <!-- APR -->
      <defs>
       <path d="M 7.71875 0 
L 7.71875 71.578125 
L 34.71875 71.578125 
Q 41.84375 71.578125 45.609375 70.90625 
Q 50.875 70.015625 54.4375 67.546875 
Q 58.015625 65.09375 60.1875 60.640625 
Q 62.359375 56.203125 62.359375 50.875 
Q 62.359375 41.75 56.546875 35.421875 
Q 50.734375 29.109375 35.546875 29.109375 
L 17.1875 29.109375 
L 17.1875 0 
z
M 17.1875 37.546875 
L 35.6875 37.546875 
Q 44.875 37.546875 48.734375 40.96875 
Q 52.59375 44.390625 52.59375 50.59375 
Q 52.59375 55.078125 50.3125 58.265625 
Q 48.046875 61.46875 44.34375 62.5 
Q 41.9375 63.140625 35.5 63.140625 
L 17.1875 63.140625 
z
" id="ArialMT-50"/>
      </defs>
      <g transform="translate(195.123001 347.505156)scale(0.13 -0.13)">
       <use xlink:href="#ArialMT-41"/>
       <use x="66.699219" xlink:href="#ArialMT-50"/>
       <use x="133.398438" xlink:href="#ArialMT-52"/>
      </g>
     </g>
    </g>
    <g id="xtick_24">
     <g id="line2d_19"/>
     <g id="text_7">
      <!-- MAY -->
      <defs>
       <path d="M 27.875 0 
L 27.875 30.328125 
L 0.296875 71.578125 
L 11.8125 71.578125 
L 25.921875 50 
Q 29.828125 43.953125 33.203125 37.890625 
Q 36.421875 43.5 41.015625 50.53125 
L 54.890625 71.578125 
L 65.921875 71.578125 
L 37.359375 30.328125 
L 37.359375 0 
z
" id="ArialMT-59"/>
      </defs>
      <g transform="translate(233.406782 347.505156)scale(0.13 -0.13)">
       <use xlink:href="#ArialMT-4d"/>
       <use x="83.300781" xlink:href="#ArialMT-41"/>
       <use x="149.890625" xlink:href="#ArialMT-59"/>
      </g>
     </g>
    </g>
    <g id="xtick_25">
     <g id="line2d_20"/>
     <g id="text_8">
      <!-- JUN -->
      <defs>
       <path d="M 54.6875 71.578125 
L 64.15625 71.578125 
L 64.15625 30.21875 
Q 64.15625 19.4375 61.71875 13.078125 
Q 59.28125 6.734375 52.90625 2.75 
Q 46.53125 -1.21875 36.1875 -1.21875 
Q 26.125 -1.21875 19.71875 2.25 
Q 13.328125 5.71875 10.59375 12.28125 
Q 7.859375 18.84375 7.859375 30.21875 
L 7.859375 71.578125 
L 17.328125 71.578125 
L 17.328125 30.28125 
Q 17.328125 20.953125 19.0625 16.53125 
Q 20.796875 12.109375 25.015625 9.71875 
Q 29.25 7.328125 35.359375 7.328125 
Q 45.796875 7.328125 50.234375 12.0625 
Q 54.6875 16.796875 54.6875 30.28125 
z
" id="ArialMT-55"/>
      </defs>
      <g transform="translate(273.843689 347.505156)scale(0.13 -0.13)">
       <use xlink:href="#ArialMT-4a"/>
       <use x="50" xlink:href="#ArialMT-55"/>
       <use x="122.216797" xlink:href="#ArialMT-4e"/>
      </g>
     </g>
    </g>
    <g id="xtick_26">
     <g id="line2d_21"/>
     <g id="text_9">
      <!-- JUL -->
      <defs>
       <path d="M 7.328125 0 
L 7.328125 71.578125 
L 16.796875 71.578125 
L 16.796875 8.453125 
L 52.046875 8.453125 
L 52.046875 0 
z
" id="ArialMT-4c"/>
      </defs>
      <g transform="translate(313.920049 347.505156)scale(0.13 -0.13)">
       <use xlink:href="#ArialMT-4a"/>
       <use x="50" xlink:href="#ArialMT-55"/>
       <use x="122.216797" xlink:href="#ArialMT-4c"/>
      </g>
     </g>
    </g>
    <g id="xtick_27">
     <g id="line2d_22"/>
     <g id="text_10">
      <!-- AUG -->
      <defs>
       <path d="M 41.21875 28.078125 
L 41.21875 36.46875 
L 71.53125 36.53125 
L 71.53125 9.96875 
Q 64.546875 4.390625 57.125 1.578125 
Q 49.703125 -1.21875 41.890625 -1.21875 
Q 31.34375 -1.21875 22.71875 3.296875 
Q 14.109375 7.8125 9.71875 16.359375 
Q 5.328125 24.90625 5.328125 35.453125 
Q 5.328125 45.90625 9.6875 54.953125 
Q 14.0625 64.015625 22.265625 68.40625 
Q 30.46875 72.796875 41.15625 72.796875 
Q 48.921875 72.796875 55.1875 70.28125 
Q 61.46875 67.78125 65.03125 63.28125 
Q 68.609375 58.796875 70.453125 51.5625 
L 61.921875 49.21875 
Q 60.296875 54.6875 57.90625 57.8125 
Q 55.515625 60.9375 51.0625 62.8125 
Q 46.625 64.703125 41.21875 64.703125 
Q 34.71875 64.703125 29.984375 62.71875 
Q 25.25 60.75 22.34375 57.515625 
Q 19.4375 54.296875 17.828125 50.4375 
Q 15.09375 43.796875 15.09375 36.03125 
Q 15.09375 26.46875 18.390625 20.015625 
Q 21.6875 13.578125 27.984375 10.453125 
Q 34.28125 7.328125 41.359375 7.328125 
Q 47.515625 7.328125 53.375 9.6875 
Q 59.234375 12.0625 62.25 14.75 
L 62.25 28.078125 
z
" id="ArialMT-47"/>
      </defs>
      <g transform="translate(350.389924 347.505156)scale(0.13 -0.13)">
       <use xlink:href="#ArialMT-41"/>
       <use x="66.699219" xlink:href="#ArialMT-55"/>
       <use x="138.916016" xlink:href="#ArialMT-47"/>
      </g>
     </g>
    </g>
    <g id="xtick_28">
     <g id="line2d_23"/>
     <g id="text_11">
      <!-- SEP -->
      <defs>
       <path d="M 4.5 23 
L 13.421875 23.78125 
Q 14.0625 18.40625 16.375 14.96875 
Q 18.703125 11.53125 23.578125 9.40625 
Q 28.46875 7.28125 34.578125 7.28125 
Q 39.984375 7.28125 44.140625 8.890625 
Q 48.296875 10.5 50.3125 13.296875 
Q 52.34375 16.109375 52.34375 19.4375 
Q 52.34375 22.796875 50.390625 25.3125 
Q 48.4375 27.828125 43.953125 29.546875 
Q 41.0625 30.671875 31.203125 33.03125 
Q 21.34375 35.40625 17.390625 37.5 
Q 12.25 40.1875 9.734375 44.15625 
Q 7.234375 48.140625 7.234375 53.078125 
Q 7.234375 58.5 10.296875 63.203125 
Q 13.375 67.921875 19.28125 70.359375 
Q 25.203125 72.796875 32.421875 72.796875 
Q 40.375 72.796875 46.453125 70.234375 
Q 52.546875 67.671875 55.8125 62.6875 
Q 59.078125 57.71875 59.328125 51.421875 
L 50.25 50.734375 
Q 49.515625 57.515625 45.28125 60.984375 
Q 41.0625 64.453125 32.8125 64.453125 
Q 24.21875 64.453125 20.28125 61.296875 
Q 16.359375 58.15625 16.359375 53.71875 
Q 16.359375 49.859375 19.140625 47.359375 
Q 21.875 44.875 33.421875 42.265625 
Q 44.96875 39.65625 49.265625 37.703125 
Q 55.515625 34.8125 58.484375 30.390625 
Q 61.46875 25.984375 61.46875 20.21875 
Q 61.46875 14.5 58.203125 9.4375 
Q 54.9375 4.390625 48.796875 1.578125 
Q 42.671875 -1.21875 35.015625 -1.21875 
Q 25.296875 -1.21875 18.71875 1.609375 
Q 12.15625 4.4375 8.421875 10.125 
Q 4.6875 15.828125 4.5 23 
z
" id="ArialMT-53"/>
      </defs>
      <g transform="translate(390.465268 347.505156)scale(0.13 -0.13)">
       <use xlink:href="#ArialMT-53"/>
       <use x="66.699219" xlink:href="#ArialMT-45"/>
       <use x="133.398438" xlink:href="#ArialMT-50"/>
      </g>
     </g>
    </g>
    <g id="xtick_29">
     <g id="line2d_24"/>
     <g id="text_12">
      <!-- OCT -->
      <defs>
       <path d="M 4.828125 34.859375 
Q 4.828125 52.6875 14.390625 62.765625 
Q 23.96875 72.859375 39.109375 72.859375 
Q 49.03125 72.859375 56.984375 68.109375 
Q 64.9375 63.375 69.109375 54.90625 
Q 73.296875 46.4375 73.296875 35.6875 
Q 73.296875 24.8125 68.890625 16.21875 
Q 64.5 7.625 56.4375 3.203125 
Q 48.390625 -1.21875 39.0625 -1.21875 
Q 28.953125 -1.21875 20.984375 3.65625 
Q 13.03125 8.546875 8.921875 16.984375 
Q 4.828125 25.4375 4.828125 34.859375 
z
M 14.59375 34.71875 
Q 14.59375 21.78125 21.546875 14.328125 
Q 28.515625 6.890625 39.015625 6.890625 
Q 49.703125 6.890625 56.609375 14.40625 
Q 63.53125 21.921875 63.53125 35.75 
Q 63.53125 44.484375 60.578125 51 
Q 57.625 57.515625 51.921875 61.109375 
Q 46.234375 64.703125 39.15625 64.703125 
Q 29.109375 64.703125 21.84375 57.78125 
Q 14.59375 50.875 14.59375 34.71875 
z
" id="ArialMT-4f"/>
       <path d="M 25.921875 0 
L 25.921875 63.140625 
L 2.34375 63.140625 
L 2.34375 71.578125 
L 59.078125 71.578125 
L 59.078125 63.140625 
L 35.40625 63.140625 
L 35.40625 0 
z
" id="ArialMT-54"/>
      </defs>
      <g transform="translate(428.749049 347.505156)scale(0.13 -0.13)">
       <use xlink:href="#ArialMT-4f"/>
       <use x="77.783203" xlink:href="#ArialMT-43"/>
       <use x="150" xlink:href="#ArialMT-54"/>
      </g>
     </g>
    </g>
    <g id="xtick_30">
     <g id="line2d_25"/>
     <g id="text_13">
      <!-- NOV -->
      <defs>
       <path d="M 28.171875 0 
L 0.4375 71.578125 
L 10.6875 71.578125 
L 29.296875 19.578125 
Q 31.546875 13.328125 33.0625 7.859375 
Q 34.71875 13.71875 36.921875 19.578125 
L 56.25 71.578125 
L 65.921875 71.578125 
L 37.890625 0 
z
" id="ArialMT-56"/>
      </defs>
      <g transform="translate(467.380175 347.505156)scale(0.13 -0.13)">
       <use xlink:href="#ArialMT-4e"/>
       <use x="72.216797" xlink:href="#ArialMT-4f"/>
       <use x="150" xlink:href="#ArialMT-56"/>
      </g>
     </g>
    </g>
    <g id="xtick_31">
     <g id="line2d_26"/>
     <g id="text_14">
      <!-- DEC -->
      <defs>
       <path d="M 7.71875 0 
L 7.71875 71.578125 
L 32.375 71.578125 
Q 40.71875 71.578125 45.125 70.5625 
Q 51.265625 69.140625 55.609375 65.4375 
Q 61.28125 60.640625 64.078125 53.1875 
Q 66.890625 45.75 66.890625 36.1875 
Q 66.890625 28.03125 64.984375 21.734375 
Q 63.09375 15.4375 60.109375 11.296875 
Q 57.125 7.171875 53.578125 4.796875 
Q 50.046875 2.4375 45.046875 1.21875 
Q 40.046875 0 33.546875 0 
z
M 17.1875 8.453125 
L 32.46875 8.453125 
Q 39.546875 8.453125 43.578125 9.765625 
Q 47.609375 11.078125 50 13.484375 
Q 53.375 16.84375 55.25 22.53125 
Q 57.125 28.21875 57.125 36.328125 
Q 57.125 47.5625 53.4375 53.59375 
Q 49.75 59.625 44.484375 61.671875 
Q 40.671875 63.140625 32.234375 63.140625 
L 17.1875 63.140625 
z
" id="ArialMT-44"/>
      </defs>
      <g transform="translate(506.738487 347.505156)scale(0.13 -0.13)">
       <use xlink:href="#ArialMT-44"/>
       <use x="72.216797" xlink:href="#ArialMT-45"/>
       <use x="138.916016" xlink:href="#ArialMT-43"/>
      </g>
     </g>
    </g>
   </g>
   <g id="matplotlib.axis_4">
    <g id="ytick_3">
     <g id="line2d_27">
      <defs>
       <path d="M 0 0 
L 3.5 0 
" id="ma75da43e92" style="stroke:#000000;stroke-width:0.8;"/>
      </defs>
      <g>
       <use style="stroke:#000000;stroke-width:0.8;" x="540" xlink:href="#ma75da43e92" y="334.8"/>
      </g>
     </g>
     <g id="text_15">
      <!-- 0 -->
      <defs>
       <path d="M 4.15625 35.296875 
Q 4.15625 48 6.765625 55.734375 
Q 9.375 63.484375 14.515625 67.671875 
Q 19.671875 71.875 27.484375 71.875 
Q 33.25 71.875 37.59375 69.546875 
Q 41.9375 67.234375 44.765625 62.859375 
Q 47.609375 58.5 49.21875 52.21875 
Q 50.828125 45.953125 50.828125 35.296875 
Q 50.828125 22.703125 48.234375 14.96875 
Q 45.65625 7.234375 40.5 3 
Q 35.359375 -1.21875 27.484375 -1.21875 
Q 17.140625 -1.21875 11.234375 6.203125 
Q 4.15625 15.140625 4.15625 35.296875 
z
M 13.1875 35.296875 
Q 13.1875 17.671875 17.3125 11.828125 
Q 21.4375 6 27.484375 6 
Q 33.546875 6 37.671875 11.859375 
Q 41.796875 17.71875 41.796875 35.296875 
Q 41.796875 52.984375 37.671875 58.78125 
Q 33.546875 64.59375 27.390625 64.59375 
Q 21.34375 64.59375 17.71875 59.46875 
Q 13.1875 52.9375 13.1875 35.296875 
z
" id="ArialMT-30"/>
      </defs>
      <g transform="translate(547 339.452578)scale(0.13 -0.13)">
       <use xlink:href="#ArialMT-30"/>
      </g>
     </g>
    </g>
    <g id="ytick_4">
     <g id="line2d_28">
      <g>
       <use style="stroke:#000000;stroke-width:0.8;" x="540" xlink:href="#ma75da43e92" y="302.142745"/>
      </g>
     </g>
     <g id="text_16">
      <!-- 20 -->
      <defs>
       <path d="M 50.34375 8.453125 
L 50.34375 0 
L 3.03125 0 
Q 2.9375 3.171875 4.046875 6.109375 
Q 5.859375 10.9375 9.828125 15.625 
Q 13.8125 20.3125 21.34375 26.46875 
Q 33.015625 36.03125 37.109375 41.625 
Q 41.21875 47.21875 41.21875 52.203125 
Q 41.21875 57.421875 37.46875 61 
Q 33.734375 64.59375 27.734375 64.59375 
Q 21.390625 64.59375 17.578125 60.78125 
Q 13.765625 56.984375 13.71875 50.25 
L 4.6875 51.171875 
Q 5.609375 61.28125 11.65625 66.578125 
Q 17.71875 71.875 27.9375 71.875 
Q 38.234375 71.875 44.234375 66.15625 
Q 50.25 60.453125 50.25 52 
Q 50.25 47.703125 48.484375 43.546875 
Q 46.734375 39.40625 42.65625 34.8125 
Q 38.578125 30.21875 29.109375 22.21875 
Q 21.1875 15.578125 18.9375 13.203125 
Q 16.703125 10.84375 15.234375 8.453125 
z
" id="ArialMT-32"/>
      </defs>
      <g transform="translate(547 306.795323)scale(0.13 -0.13)">
       <use xlink:href="#ArialMT-32"/>
       <use x="55.615234" xlink:href="#ArialMT-30"/>
      </g>
     </g>
    </g>
    <g id="ytick_5">
     <g id="line2d_29">
      <g>
       <use style="stroke:#000000;stroke-width:0.8;" x="540" xlink:href="#ma75da43e92" y="269.48549"/>
      </g>
     </g>
     <g id="text_17">
      <!-- 40 -->
      <defs>
       <path d="M 32.328125 0 
L 32.328125 17.140625 
L 1.265625 17.140625 
L 1.265625 25.203125 
L 33.9375 71.578125 
L 41.109375 71.578125 
L 41.109375 25.203125 
L 50.78125 25.203125 
L 50.78125 17.140625 
L 41.109375 17.140625 
L 41.109375 0 
z
M 32.328125 25.203125 
L 32.328125 57.46875 
L 9.90625 25.203125 
z
" id="ArialMT-34"/>
      </defs>
      <g transform="translate(547 274.138068)scale(0.13 -0.13)">
       <use xlink:href="#ArialMT-34"/>
       <use x="55.615234" xlink:href="#ArialMT-30"/>
      </g>
     </g>
    </g>
    <g id="ytick_6">
     <g id="line2d_30">
      <g>
       <use style="stroke:#000000;stroke-width:0.8;" x="540" xlink:href="#ma75da43e92" y="236.828235"/>
      </g>
     </g>
     <g id="text_18">
      <!-- 60 -->
      <g transform="translate(547 241.480813)scale(0.13 -0.13)">
       <use xlink:href="#ArialMT-36"/>
       <use x="55.615234" xlink:href="#ArialMT-30"/>
      </g>
     </g>
    </g>
    <g id="ytick_7">
     <g id="line2d_31">
      <g>
       <use style="stroke:#000000;stroke-width:0.8;" x="540" xlink:href="#ma75da43e92" y="204.17098"/>
      </g>
     </g>
     <g id="text_19">
      <!-- 80 -->
      <defs>
       <path d="M 17.671875 38.8125 
Q 12.203125 40.828125 9.5625 44.53125 
Q 6.9375 48.25 6.9375 53.421875 
Q 6.9375 61.234375 12.546875 66.546875 
Q 18.171875 71.875 27.484375 71.875 
Q 36.859375 71.875 42.578125 66.421875 
Q 48.296875 60.984375 48.296875 53.171875 
Q 48.296875 48.1875 45.671875 44.5 
Q 43.0625 40.828125 37.75 38.8125 
Q 44.34375 36.671875 47.78125 31.875 
Q 51.21875 27.09375 51.21875 20.453125 
Q 51.21875 11.28125 44.71875 5.03125 
Q 38.234375 -1.21875 27.640625 -1.21875 
Q 17.046875 -1.21875 10.546875 5.046875 
Q 4.046875 11.328125 4.046875 20.703125 
Q 4.046875 27.6875 7.59375 32.390625 
Q 11.140625 37.109375 17.671875 38.8125 
z
M 15.921875 53.71875 
Q 15.921875 48.640625 19.1875 45.40625 
Q 22.46875 42.1875 27.6875 42.1875 
Q 32.765625 42.1875 36.015625 45.375 
Q 39.265625 48.578125 39.265625 53.21875 
Q 39.265625 58.0625 35.90625 61.359375 
Q 32.5625 64.65625 27.59375 64.65625 
Q 22.5625 64.65625 19.234375 61.421875 
Q 15.921875 58.203125 15.921875 53.71875 
z
M 13.09375 20.65625 
Q 13.09375 16.890625 14.875 13.375 
Q 16.65625 9.859375 20.171875 7.921875 
Q 23.6875 6 27.734375 6 
Q 34.03125 6 38.125 10.046875 
Q 42.234375 14.109375 42.234375 20.359375 
Q 42.234375 26.703125 38.015625 30.859375 
Q 33.796875 35.015625 27.4375 35.015625 
Q 21.234375 35.015625 17.15625 30.90625 
Q 13.09375 26.8125 13.09375 20.65625 
z
" id="ArialMT-38"/>
      </defs>
      <g transform="translate(547 208.823559)scale(0.13 -0.13)">
       <use xlink:href="#ArialMT-38"/>
       <use x="55.615234" xlink:href="#ArialMT-30"/>
      </g>
     </g>
    </g>
    <g id="ytick_8">
     <g id="line2d_32">
      <g>
       <use style="stroke:#000000;stroke-width:0.8;" x="540" xlink:href="#ma75da43e92" y="171.513725"/>
      </g>
     </g>
     <g id="text_20">
      <!-- 100 -->
      <g transform="translate(547 176.166304)scale(0.13 -0.13)">
       <use xlink:href="#ArialMT-31"/>
       <use x="55.615234" xlink:href="#ArialMT-30"/>
       <use x="111.230469" xlink:href="#ArialMT-30"/>
      </g>
     </g>
    </g>
    <g id="ytick_9">
     <g id="line2d_33">
      <g>
       <use style="stroke:#000000;stroke-width:0.8;" x="540" xlink:href="#ma75da43e92" y="138.856471"/>
      </g>
     </g>
     <g id="text_21">
      <!-- 120 -->
      <g transform="translate(547 143.509049)scale(0.13 -0.13)">
       <use xlink:href="#ArialMT-31"/>
       <use x="55.615234" xlink:href="#ArialMT-32"/>
       <use x="111.230469" xlink:href="#ArialMT-30"/>
      </g>
     </g>
    </g>
    <g id="ytick_10">
     <g id="line2d_34">
      <g>
       <use style="stroke:#000000;stroke-width:0.8;" x="540" xlink:href="#ma75da43e92" y="106.199216"/>
      </g>
     </g>
     <g id="text_22">
      <!-- 140 -->
      <g transform="translate(547 110.851794)scale(0.13 -0.13)">
       <use xlink:href="#ArialMT-31"/>
       <use x="55.615234" xlink:href="#ArialMT-34"/>
       <use x="111.230469" xlink:href="#ArialMT-30"/>
      </g>
     </g>
    </g>
    <g id="ytick_11">
     <g id="line2d_35">
      <g>
       <use style="stroke:#000000;stroke-width:0.8;" x="540" xlink:href="#ma75da43e92" y="73.541961"/>
      </g>
     </g>
     <g id="text_23">
      <!-- 160 -->
      <g transform="translate(547 78.194539)scale(0.13 -0.13)">
       <use xlink:href="#ArialMT-31"/>
       <use x="55.615234" xlink:href="#ArialMT-36"/>
       <use x="111.230469" xlink:href="#ArialMT-30"/>
      </g>
     </g>
    </g>
    <g id="ytick_12">
     <g id="line2d_36">
      <g>
       <use style="stroke:#000000;stroke-width:0.8;" x="540" xlink:href="#ma75da43e92" y="40.884706"/>
      </g>
     </g>
     <g id="text_24">
      <!-- 180 -->
      <g transform="translate(547 45.537284)scale(0.13 -0.13)">
       <use xlink:href="#ArialMT-31"/>
       <use x="55.615234" xlink:href="#ArialMT-38"/>
       <use x="111.230469" xlink:href="#ArialMT-30"/>
      </g>
     </g>
    </g>
    <g id="ytick_13">
     <g id="line2d_37">
      <defs>
       <path d="M 0 0 
L 2 0 
" id="mb4bd1332b6" style="stroke:#000000;stroke-width:0.6;"/>
      </defs>
      <g>
       <use style="stroke:#000000;stroke-width:0.6;" x="540" xlink:href="#mb4bd1332b6" y="334.8"/>
      </g>
     </g>
    </g>
    <g id="ytick_14">
     <g id="line2d_38">
      <g>
       <use style="stroke:#000000;stroke-width:0.6;" x="540" xlink:href="#mb4bd1332b6" y="326.635686"/>
      </g>
     </g>
    </g>
    <g id="ytick_15">
     <g id="line2d_39">
      <g>
       <use style="stroke:#000000;stroke-width:0.6;" x="540" xlink:href="#mb4bd1332b6" y="318.471373"/>
      </g>
     </g>
    </g>
    <g id="ytick_16">
     <g id="line2d_40">
      <g>
       <use style="stroke:#000000;stroke-width:0.6;" x="540" xlink:href="#mb4bd1332b6" y="310.307059"/>
      </g>
     </g>
    </g>
    <g id="ytick_17">
     <g id="line2d_41">
      <g>
       <use style="stroke:#000000;stroke-width:0.6;" x="540" xlink:href="#mb4bd1332b6" y="302.142745"/>
      </g>
     </g>
    </g>
    <g id="ytick_18">
     <g id="line2d_42">
      <g>
       <use style="stroke:#000000;stroke-width:0.6;" x="540" xlink:href="#mb4bd1332b6" y="293.978431"/>
      </g>
     </g>
    </g>
    <g id="ytick_19">
     <g id="line2d_43">
      <g>
       <use style="stroke:#000000;stroke-width:0.6;" x="540" xlink:href="#mb4bd1332b6" y="285.814118"/>
      </g>
     </g>
    </g>
    <g id="ytick_20">
     <g id="line2d_44">
      <g>
       <use style="stroke:#000000;stroke-width:0.6;" x="540" xlink:href="#mb4bd1332b6" y="277.649804"/>
      </g>
     </g>
    </g>
    <g id="ytick_21">
     <g id="line2d_45">
      <g>
       <use style="stroke:#000000;stroke-width:0.6;" x="540" xlink:href="#mb4bd1332b6" y="269.48549"/>
      </g>
     </g>
    </g>
    <g id="ytick_22">
     <g id="line2d_46">
      <g>
       <use style="stroke:#000000;stroke-width:0.6;" x="540" xlink:href="#mb4bd1332b6" y="261.321176"/>
      </g>
     </g>
    </g>
    <g id="ytick_23">
     <g id="line2d_47">
      <g>
       <use style="stroke:#000000;stroke-width:0.6;" x="540" xlink:href="#mb4bd1332b6" y="253.156863"/>
      </g>
     </g>
    </g>
    <g id="ytick_24">
     <g id="line2d_48">
      <g>
       <use style="stroke:#000000;stroke-width:0.6;" x="540" xlink:href="#mb4bd1332b6" y="244.992549"/>
      </g>
     </g>
    </g>
    <g id="ytick_25">
     <g id="line2d_49">
      <g>
       <use style="stroke:#000000;stroke-width:0.6;" x="540" xlink:href="#mb4bd1332b6" y="236.828235"/>
      </g>
     </g>
    </g>
    <g id="ytick_26">
     <g id="line2d_50">
      <g>
       <use style="stroke:#000000;stroke-width:0.6;" x="540" xlink:href="#mb4bd1332b6" y="228.663922"/>
      </g>
     </g>
    </g>
    <g id="ytick_27">
     <g id="line2d_51">
      <g>
       <use style="stroke:#000000;stroke-width:0.6;" x="540" xlink:href="#mb4bd1332b6" y="220.499608"/>
      </g>
     </g>
    </g>
    <g id="ytick_28">
     <g id="line2d_52">
      <g>
       <use style="stroke:#000000;stroke-width:0.6;" x="540" xlink:href="#mb4bd1332b6" y="212.335294"/>
      </g>
     </g>
    </g>
    <g id="ytick_29">
     <g id="line2d_53">
      <g>
       <use style="stroke:#000000;stroke-width:0.6;" x="540" xlink:href="#mb4bd1332b6" y="204.17098"/>
      </g>
     </g>
    </g>
    <g id="ytick_30">
     <g id="line2d_54">
      <g>
       <use style="stroke:#000000;stroke-width:0.6;" x="540" xlink:href="#mb4bd1332b6" y="196.006667"/>
      </g>
     </g>
    </g>
    <g id="ytick_31">
     <g id="line2d_55">
      <g>
       <use style="stroke:#000000;stroke-width:0.6;" x="540" xlink:href="#mb4bd1332b6" y="187.842353"/>
      </g>
     </g>
    </g>
    <g id="ytick_32">
     <g id="line2d_56">
      <g>
       <use style="stroke:#000000;stroke-width:0.6;" x="540" xlink:href="#mb4bd1332b6" y="179.678039"/>
      </g>
     </g>
    </g>
    <g id="ytick_33">
     <g id="line2d_57">
      <g>
       <use style="stroke:#000000;stroke-width:0.6;" x="540" xlink:href="#mb4bd1332b6" y="171.513725"/>
      </g>
     </g>
    </g>
    <g id="ytick_34">
     <g id="line2d_58">
      <g>
       <use style="stroke:#000000;stroke-width:0.6;" x="540" xlink:href="#mb4bd1332b6" y="163.349412"/>
      </g>
     </g>
    </g>
    <g id="ytick_35">
     <g id="line2d_59">
      <g>
       <use style="stroke:#000000;stroke-width:0.6;" x="540" xlink:href="#mb4bd1332b6" y="155.185098"/>
      </g>
     </g>
    </g>
    <g id="ytick_36">
     <g id="line2d_60">
      <g>
       <use style="stroke:#000000;stroke-width:0.6;" x="540" xlink:href="#mb4bd1332b6" y="147.020784"/>
      </g>
     </g>
    </g>
    <g id="ytick_37">
     <g id="line2d_61">
      <g>
       <use style="stroke:#000000;stroke-width:0.6;" x="540" xlink:href="#mb4bd1332b6" y="138.856471"/>
      </g>
     </g>
    </g>
    <g id="ytick_38">
     <g id="line2d_62">
      <g>
       <use style="stroke:#000000;stroke-width:0.6;" x="540" xlink:href="#mb4bd1332b6" y="130.692157"/>
      </g>
     </g>
    </g>
    <g id="ytick_39">
     <g id="line2d_63">
      <g>
       <use style="stroke:#000000;stroke-width:0.6;" x="540" xlink:href="#mb4bd1332b6" y="122.527843"/>
      </g>
     </g>
    </g>
    <g id="ytick_40">
     <g id="line2d_64">
      <g>
       <use style="stroke:#000000;stroke-width:0.6;" x="540" xlink:href="#mb4bd1332b6" y="114.363529"/>
      </g>
     </g>
    </g>
    <g id="ytick_41">
     <g id="line2d_65">
      <g>
       <use style="stroke:#000000;stroke-width:0.6;" x="540" xlink:href="#mb4bd1332b6" y="106.199216"/>
      </g>
     </g>
    </g>
    <g id="ytick_42">
     <g id="line2d_66">
      <g>
       <use style="stroke:#000000;stroke-width:0.6;" x="540" xlink:href="#mb4bd1332b6" y="98.034902"/>
      </g>
     </g>
    </g>
    <g id="ytick_43">
     <g id="line2d_67">
      <g>
       <use style="stroke:#000000;stroke-width:0.6;" x="540" xlink:href="#mb4bd1332b6" y="89.870588"/>
      </g>
     </g>
    </g>
    <g id="ytick_44">
     <g id="line2d_68">
      <g>
       <use style="stroke:#000000;stroke-width:0.6;" x="540" xlink:href="#mb4bd1332b6" y="81.706275"/>
      </g>
     </g>
    </g>
    <g id="ytick_45">
     <g id="line2d_69">
      <g>
       <use style="stroke:#000000;stroke-width:0.6;" x="540" xlink:href="#mb4bd1332b6" y="73.541961"/>
      </g>
     </g>
    </g>
    <g id="ytick_46">
     <g id="line2d_70">
      <g>
       <use style="stroke:#000000;stroke-width:0.6;" x="540" xlink:href="#mb4bd1332b6" y="65.377647"/>
      </g>
     </g>
    </g>
    <g id="ytick_47">
     <g id="line2d_71">
      <g>
       <use style="stroke:#000000;stroke-width:0.6;" x="540" xlink:href="#mb4bd1332b6" y="57.213333"/>
      </g>
     </g>
    </g>
    <g id="ytick_48">
     <g id="line2d_72">
      <g>
       <use style="stroke:#000000;stroke-width:0.6;" x="540" xlink:href="#mb4bd1332b6" y="49.04902"/>
      </g>
     </g>
    </g>
    <g id="text_25">
     <!-- Monthly Total Precipitation (mm) -->
     <defs>
      <path d="M 6.59375 0 
L 6.59375 71.578125 
L 15.375 71.578125 
L 15.375 45.90625 
Q 21.53125 53.03125 30.90625 53.03125 
Q 36.671875 53.03125 40.921875 50.75 
Q 45.171875 48.484375 47 44.484375 
Q 48.828125 40.484375 48.828125 32.859375 
L 48.828125 0 
L 40.046875 0 
L 40.046875 32.859375 
Q 40.046875 39.453125 37.1875 42.453125 
Q 34.328125 45.453125 29.109375 45.453125 
Q 25.203125 45.453125 21.75 43.421875 
Q 18.3125 41.40625 16.84375 37.9375 
Q 15.375 34.46875 15.375 28.375 
L 15.375 0 
z
" id="ArialMT-68"/>
      <path d="M 6.203125 -19.96875 
L 5.21875 -11.71875 
Q 8.109375 -12.5 10.25 -12.5 
Q 13.1875 -12.5 14.9375 -11.515625 
Q 16.703125 -10.546875 17.828125 -8.796875 
Q 18.65625 -7.46875 20.515625 -2.25 
Q 20.75 -1.515625 21.296875 -0.09375 
L 1.609375 51.859375 
L 11.078125 51.859375 
L 21.875 21.828125 
Q 23.96875 16.109375 25.640625 9.8125 
Q 27.15625 15.875 29.25 21.625 
L 40.328125 51.859375 
L 49.125 51.859375 
L 29.390625 -0.875 
Q 26.21875 -9.421875 24.46875 -12.640625 
Q 22.125 -17 19.09375 -19.015625 
Q 16.0625 -21.046875 11.859375 -21.046875 
Q 9.328125 -21.046875 6.203125 -19.96875 
z
" id="ArialMT-79"/>
      <path d="M 23.390625 -21.046875 
Q 16.109375 -11.859375 11.078125 0.4375 
Q 6.0625 12.75 6.0625 25.921875 
Q 6.0625 37.546875 9.8125 48.1875 
Q 14.203125 60.546875 23.390625 72.796875 
L 29.6875 72.796875 
Q 23.78125 62.640625 21.875 58.296875 
Q 18.890625 51.5625 17.1875 44.234375 
Q 15.09375 35.109375 15.09375 25.875 
Q 15.09375 2.390625 29.6875 -21.046875 
z
" id="ArialMT-28"/>
      <path d="M 12.359375 -21.046875 
L 6.0625 -21.046875 
Q 20.65625 2.390625 20.65625 25.875 
Q 20.65625 35.0625 18.5625 44.09375 
Q 16.890625 51.421875 13.921875 58.15625 
Q 12.015625 62.546875 6.0625 72.796875 
L 12.359375 72.796875 
Q 21.53125 60.546875 25.921875 48.1875 
Q 29.6875 37.546875 29.6875 25.921875 
Q 29.6875 12.75 24.625 0.4375 
Q 19.578125 -11.859375 12.359375 -21.046875 
z
" id="ArialMT-29"/>
     </defs>
     <g transform="translate(585.4875 72.719853)rotate(-270)scale(0.16 -0.16)">
      <use xlink:href="#ArialMT-4d"/>
      <use x="83.300781" xlink:href="#ArialMT-6f"/>
      <use x="138.916016" xlink:href="#ArialMT-6e"/>
      <use x="194.53125" xlink:href="#ArialMT-74"/>
      <use x="222.314453" xlink:href="#ArialMT-68"/>
      <use x="277.929688" xlink:href="#ArialMT-6c"/>
      <use x="300.146484" xlink:href="#ArialMT-79"/>
      <use x="350.146484" xlink:href="#ArialMT-20"/>
      <use x="377.914062" xlink:href="#ArialMT-54"/>
      <use x="438.826172" xlink:href="#ArialMT-6f"/>
      <use x="494.441406" xlink:href="#ArialMT-74"/>
      <use x="522.224609" xlink:href="#ArialMT-61"/>
      <use x="577.839844" xlink:href="#ArialMT-6c"/>
      <use x="600.056641" xlink:href="#ArialMT-20"/>
      <use x="627.839844" xlink:href="#ArialMT-50"/>
      <use x="694.539062" xlink:href="#ArialMT-72"/>
      <use x="727.839844" xlink:href="#ArialMT-65"/>
      <use x="783.455078" xlink:href="#ArialMT-63"/>
      <use x="833.455078" xlink:href="#ArialMT-69"/>
      <use x="855.671875" xlink:href="#ArialMT-70"/>
      <use x="911.287109" xlink:href="#ArialMT-69"/>
      <use x="933.503906" xlink:href="#ArialMT-74"/>
      <use x="961.287109" xlink:href="#ArialMT-61"/>
      <use x="1016.902344" xlink:href="#ArialMT-74"/>
      <use x="1044.685547" xlink:href="#ArialMT-69"/>
      <use x="1066.902344" xlink:href="#ArialMT-6f"/>
      <use x="1122.517578" xlink:href="#ArialMT-6e"/>
      <use x="1178.132812" xlink:href="#ArialMT-20"/>
      <use x="1205.916016" xlink:href="#ArialMT-28"/>
      <use x="1239.216797" xlink:href="#ArialMT-6d"/>
      <use x="1322.517578" xlink:href="#ArialMT-6d"/>
      <use x="1405.818359" xlink:href="#ArialMT-29"/>
     </g>
    </g>
   </g>
   <g id="PolyCollection_1">
    <defs>
     <path d="M 78.824431 -25.2 
L 78.824431 -25.2 
L 78.824431 -25.2 
L 104.172319 -25.2 
L 104.172319 -25.2 
L 117.821182 -25.2 
L 117.821182 -25.2 
L 143.169069 -25.2 
L 143.169069 -25.2 
L 156.817932 -25.2 
L 156.817932 -25.2 
L 182.16582 -25.2 
L 182.16582 -25.2 
L 195.814682 -25.2 
L 195.814682 -25.2 
L 221.16257 -25.2 
L 221.16257 -25.2 
L 234.811432 -25.2 
L 234.811432 -25.2 
L 260.15932 -25.2 
L 260.15932 -25.2 
L 273.808183 -25.2 
L 273.808183 -25.2 
L 299.15607 -25.2 
L 299.15607 -25.2 
L 312.804933 -25.2 
L 312.804933 -25.2 
L 338.152821 -25.2 
L 338.152821 -25.2 
L 351.801683 -25.2 
L 351.801683 -25.2 
L 377.149571 -25.2 
L 377.149571 -25.2 
L 390.798433 -25.2 
L 390.798433 -25.2 
L 416.146321 -25.2 
L 416.146321 -25.2 
L 429.795184 -25.2 
L 429.795184 -25.2 
L 455.143071 -25.2 
L 455.143071 -25.2 
L 468.791934 -25.2 
L 468.791934 -25.2 
L 494.139822 -25.2 
L 494.139822 -25.2 
L 507.788684 -25.2 
L 507.788684 -25.2 
L 533.136572 -25.2 
L 533.136572 -25.2 
L 533.136572 -25.2 
L 533.136572 -25.2 
L 533.136572 -180.460126 
L 507.788684 -180.460126 
L 507.788684 -25.2 
L 494.139822 -25.2 
L 494.139822 -162.033898 
L 468.791934 -162.033898 
L 468.791934 -25.2 
L 455.143071 -25.2 
L 455.143071 -210.033783 
L 429.795184 -210.033783 
L 429.795184 -25.2 
L 416.146321 -25.2 
L 416.146321 -193.146214 
L 390.798433 -193.146214 
L 390.798433 -25.2 
L 377.149571 -25.2 
L 377.149571 -190.495952 
L 351.801683 -190.495952 
L 351.801683 -25.2 
L 338.152821 -25.2 
L 338.152821 -232.316079 
L 312.804933 -232.316079 
L 312.804933 -25.2 
L 299.15607 -25.2 
L 299.15607 -196.788754 
L 273.808183 -196.788754 
L 273.808183 -25.2 
L 260.15932 -25.2 
L 260.15932 -196.455901 
L 234.811432 -196.455901 
L 234.811432 -25.2 
L 221.16257 -25.2 
L 221.16257 -176.629179 
L 195.814682 -176.629179 
L 195.814682 -25.2 
L 182.16582 -25.2 
L 182.16582 -139.933729 
L 156.817932 -139.933729 
L 156.817932 -25.2 
L 143.169069 -25.2 
L 143.169069 -127.454889 
L 117.821182 -127.454889 
L 117.821182 -25.2 
L 104.172319 -25.2 
L 104.172319 -143.890281 
L 78.824431 -143.890281 
L 78.824431 -25.2 
z
" id="mf2939236e9" style="stroke:#173458;"/>
    </defs>
    <g clip-path="url(#p9f9fd62612)">
     <use style="fill:#173458;stroke:#173458;" x="0" xlink:href="#mf2939236e9" y="360"/>
    </g>
   </g>
   <g id="PolyCollection_2">
    <defs>
     <path d="M 78.824431 -25.2 
L 78.824431 -25.2 
L 78.824431 -25.2 
L 104.172319 -25.2 
L 104.172319 -25.2 
L 117.821182 -25.2 
L 117.821182 -25.2 
L 143.169069 -25.2 
L 143.169069 -25.2 
L 156.817932 -25.2 
L 156.817932 -25.2 
L 182.16582 -25.2 
L 182.16582 -25.2 
L 195.814682 -25.2 
L 195.814682 -25.2 
L 221.16257 -25.2 
L 221.16257 -25.2 
L 234.811432 -25.2 
L 234.811432 -25.2 
L 260.15932 -25.2 
L 260.15932 -25.2 
L 273.808183 -25.2 
L 273.808183 -25.2 
L 299.15607 -25.2 
L 299.15607 -25.2 
L 312.804933 -25.2 
L 312.804933 -25.2 
L 338.152821 -25.2 
L 338.152821 -25.2 
L 351.801683 -25.2 
L 351.801683 -25.2 
L 377.149571 -25.2 
L 377.149571 -25.2 
L 390.798433 -25.2 
L 390.798433 -25.2 
L 416.146321 -25.2 
L 416.146321 -25.2 
L 429.795184 -25.2 
L 429.795184 -25.2 
L 455.143071 -25.2 
L 455.143071 -25.2 
L 468.791934 -25.2 
L 468.791934 -25.2 
L 494.139822 -25.2 
L 494.139822 -25.2 
L 507.788684 -25.2 
L 507.788684 -25.2 
L 533.136572 -25.2 
L 533.136572 -25.2 
L 533.136572 -25.2 
L 533.136572 -25.2 
L 533.136572 -120.094446 
L 507.788684 -120.094446 
L 507.788684 -25.2 
L 494.139822 -25.2 
L 494.139822 -48.443173 
L 468.791934 -48.443173 
L 468.791934 -25.2 
L 455.143071 -25.2 
L 455.143071 -26.619335 
L 429.795184 -26.619335 
L 429.795184 -25.2 
L 416.146321 -25.2 
L 416.146321 -25.2 
L 390.798433 -25.2 
L 390.798433 -25.2 
L 377.149571 -25.2 
L 377.149571 -25.2 
L 351.801683 -25.2 
L 351.801683 -25.2 
L 338.152821 -25.2 
L 338.152821 -25.2 
L 312.804933 -25.2 
L 312.804933 -25.2 
L 299.15607 -25.2 
L 299.15607 -25.2 
L 273.808183 -25.2 
L 273.808183 -25.2 
L 260.15932 -25.2 
L 260.15932 -25.2 
L 234.811432 -25.2 
L 234.811432 -25.2 
L 221.16257 -25.2 
L 221.16257 -32.516481 
L 195.814682 -32.516481 
L 195.814682 -25.2 
L 182.16582 -25.2 
L 182.16582 -84.227988 
L 156.817932 -84.227988 
L 156.817932 -25.2 
L 143.169069 -25.2 
L 143.169069 -107.188551 
L 117.821182 -107.188551 
L 117.821182 -25.2 
L 104.172319 -25.2 
L 104.172319 -114.693439 
L 78.824431 -114.693439 
L 78.824431 -25.2 
z
" id="m58ed0b0fa8" style="stroke:#a5a5a5;"/>
    </defs>
    <g clip-path="url(#p9f9fd62612)">
     <use style="fill:#a5a5a5;stroke:#a5a5a5;" x="0" xlink:href="#m58ed0b0fa8" y="360"/>
    </g>
   </g>
   <g id="patch_5">
    <path d="M 72 334.8 
L 72 40.884706 
" style="fill:none;stroke:#000000;stroke-linecap:square;stroke-linejoin:miter;stroke-width:0.8;"/>
   </g>
   <g id="patch_6">
    <path d="M 540 334.8 
L 540 40.884706 
" style="fill:none;stroke:#000000;stroke-linecap:square;stroke-linejoin:miter;stroke-width:0.8;"/>
   </g>
   <g id="patch_7">
    <path d="M 72 334.8 
L 540 334.8 
" style="fill:none;stroke:#000000;stroke-linecap:square;stroke-linejoin:miter;stroke-width:0.8;"/>
   </g>
  </g>
  <g id="axes_4">
   <g id="matplotlib.axis_5">
    <g id="xtick_32"/>
    <g id="xtick_33"/>
    <g id="xtick_34"/>
    <g id="xtick_35"/>
    <g id="xtick_36"/>
    <g id="xtick_37"/>
    <g id="xtick_38"/>
    <g id="xtick_39"/>
    <g id="xtick_40"/>
    <g id="xtick_41"/>
    <g id="xtick_42"/>
    <g id="xtick_43"/>
    <g id="xtick_44"/>
    <g id="xtick_45"/>
    <g id="xtick_46"/>
    <g id="xtick_47"/>
    <g id="xtick_48"/>
    <g id="xtick_49"/>
    <g id="xtick_50"/>
    <g id="xtick_51"/>
    <g id="xtick_52"/>
    <g id="xtick_53"/>
    <g id="xtick_54"/>
    <g id="xtick_55"/>
    <g id="xtick_56"/>
   </g>
   <g id="matplotlib.axis_6">
    <g id="ytick_49">
     <g id="line2d_73">
      <defs>
       <path d="M 0 0 
L -3.5 0 
" id="m4aeaf1c187" style="stroke:#000000;stroke-width:0.8;"/>
      </defs>
      <g>
       <use style="stroke:#000000;stroke-width:0.8;" x="72" xlink:href="#m4aeaf1c187" y="334.8"/>
      </g>
     </g>
     <g id="text_26">
      <!-- −15 -->
      <defs>
       <path d="M 52.828125 31.203125 
L 5.5625 31.203125 
L 5.5625 39.40625 
L 52.828125 39.40625 
z
" id="ArialMT-2212"/>
       <path d="M 4.15625 18.75 
L 13.375 19.53125 
Q 14.40625 12.796875 18.140625 9.390625 
Q 21.875 6 27.15625 6 
Q 33.5 6 37.890625 10.78125 
Q 42.28125 15.578125 42.28125 23.484375 
Q 42.28125 31 38.0625 35.34375 
Q 33.84375 39.703125 27 39.703125 
Q 22.75 39.703125 19.328125 37.765625 
Q 15.921875 35.84375 13.96875 32.765625 
L 5.71875 33.84375 
L 12.640625 70.609375 
L 48.25 70.609375 
L 48.25 62.203125 
L 19.671875 62.203125 
L 15.828125 42.96875 
Q 22.265625 47.46875 29.34375 47.46875 
Q 38.71875 47.46875 45.15625 40.96875 
Q 51.609375 34.46875 51.609375 24.265625 
Q 51.609375 14.546875 45.953125 7.46875 
Q 39.0625 -1.21875 27.15625 -1.21875 
Q 17.390625 -1.21875 11.203125 4.25 
Q 5.03125 9.71875 4.15625 18.75 
z
" id="ArialMT-35"/>
      </defs>
      <g transform="translate(42.94875 339.452578)scale(0.13 -0.13)">
       <use xlink:href="#ArialMT-2212"/>
       <use x="58.398438" xlink:href="#ArialMT-31"/>
       <use x="114.013672" xlink:href="#ArialMT-35"/>
      </g>
     </g>
    </g>
    <g id="ytick_50">
     <g id="line2d_74">
      <g>
       <use style="stroke:#000000;stroke-width:0.8;" x="72" xlink:href="#m4aeaf1c187" y="302.142745"/>
      </g>
     </g>
     <g id="text_27">
      <!-- −10 -->
      <g transform="translate(42.94875 306.795323)scale(0.13 -0.13)">
       <use xlink:href="#ArialMT-2212"/>
       <use x="58.398438" xlink:href="#ArialMT-31"/>
       <use x="114.013672" xlink:href="#ArialMT-30"/>
      </g>
     </g>
    </g>
    <g id="ytick_51">
     <g id="line2d_75">
      <g>
       <use style="stroke:#000000;stroke-width:0.8;" x="72" xlink:href="#m4aeaf1c187" y="269.48549"/>
      </g>
     </g>
     <g id="text_28">
      <!-- −5 -->
      <g transform="translate(50.177969 274.138068)scale(0.13 -0.13)">
       <use xlink:href="#ArialMT-2212"/>
       <use x="58.398438" xlink:href="#ArialMT-35"/>
      </g>
     </g>
    </g>
    <g id="ytick_52">
     <g id="line2d_76">
      <g>
       <use style="stroke:#000000;stroke-width:0.8;" x="72" xlink:href="#m4aeaf1c187" y="236.828235"/>
      </g>
     </g>
     <g id="text_29">
      <!-- 0 -->
      <g transform="translate(57.770781 241.480813)scale(0.13 -0.13)">
       <use xlink:href="#ArialMT-30"/>
      </g>
     </g>
    </g>
    <g id="ytick_53">
     <g id="line2d_77">
      <g>
       <use style="stroke:#000000;stroke-width:0.8;" x="72" xlink:href="#m4aeaf1c187" y="204.17098"/>
      </g>
     </g>
     <g id="text_30">
      <!-- 5 -->
      <g transform="translate(57.770781 208.823559)scale(0.13 -0.13)">
       <use xlink:href="#ArialMT-35"/>
      </g>
     </g>
    </g>
    <g id="ytick_54">
     <g id="line2d_78">
      <g>
       <use style="stroke:#000000;stroke-width:0.8;" x="72" xlink:href="#m4aeaf1c187" y="171.513725"/>
      </g>
     </g>
     <g id="text_31">
      <!-- 10 -->
      <g transform="translate(50.541562 176.166304)scale(0.13 -0.13)">
       <use xlink:href="#ArialMT-31"/>
       <use x="55.615234" xlink:href="#ArialMT-30"/>
      </g>
     </g>
    </g>
    <g id="ytick_55">
     <g id="line2d_79">
      <g>
       <use style="stroke:#000000;stroke-width:0.8;" x="72" xlink:href="#m4aeaf1c187" y="138.856471"/>
      </g>
     </g>
     <g id="text_32">
      <!-- 15 -->
      <g transform="translate(50.541562 143.509049)scale(0.13 -0.13)">
       <use xlink:href="#ArialMT-31"/>
       <use x="55.615234" xlink:href="#ArialMT-35"/>
      </g>
     </g>
    </g>
    <g id="ytick_56">
     <g id="line2d_80">
      <g>
       <use style="stroke:#000000;stroke-width:0.8;" x="72" xlink:href="#m4aeaf1c187" y="106.199216"/>
      </g>
     </g>
     <g id="text_33">
      <!-- 20 -->
      <g transform="translate(50.541562 110.851794)scale(0.13 -0.13)">
       <use xlink:href="#ArialMT-32"/>
       <use x="55.615234" xlink:href="#ArialMT-30"/>
      </g>
     </g>
    </g>
    <g id="ytick_57">
     <g id="line2d_81">
      <g>
       <use style="stroke:#000000;stroke-width:0.8;" x="72" xlink:href="#m4aeaf1c187" y="73.541961"/>
      </g>
     </g>
     <g id="text_34">
      <!-- 25 -->
      <g transform="translate(50.541562 78.194539)scale(0.13 -0.13)">
       <use xlink:href="#ArialMT-32"/>
       <use x="55.615234" xlink:href="#ArialMT-35"/>
      </g>
     </g>
    </g>
    <g id="ytick_58">
     <g id="line2d_82">
      <g>
       <use style="stroke:#000000;stroke-width:0.8;" x="72" xlink:href="#m4aeaf1c187" y="40.884706"/>
      </g>
     </g>
     <g id="text_35">
      <!-- 30 -->
      <g transform="translate(50.541562 45.537284)scale(0.13 -0.13)">
       <use xlink:href="#ArialMT-33"/>
       <use x="55.615234" xlink:href="#ArialMT-30"/>
      </g>
     </g>
    </g>
    <g id="ytick_59">
     <g id="line2d_83">
      <defs>
       <path d="M 0 0 
L -2 0 
" id="m6ae4f22661" style="stroke:#000000;stroke-width:0.6;"/>
      </defs>
      <g>
       <use style="stroke:#000000;stroke-width:0.6;" x="72" xlink:href="#m6ae4f22661" y="334.8"/>
      </g>
     </g>
    </g>
    <g id="ytick_60">
     <g id="line2d_84">
      <g>
       <use style="stroke:#000000;stroke-width:0.6;" x="72" xlink:href="#m6ae4f22661" y="328.268549"/>
      </g>
     </g>
    </g>
    <g id="ytick_61">
     <g id="line2d_85">
      <g>
       <use style="stroke:#000000;stroke-width:0.6;" x="72" xlink:href="#m6ae4f22661" y="321.737098"/>
      </g>
     </g>
    </g>
    <g id="ytick_62">
     <g id="line2d_86">
      <g>
       <use style="stroke:#000000;stroke-width:0.6;" x="72" xlink:href="#m6ae4f22661" y="315.205647"/>
      </g>
     </g>
    </g>
    <g id="ytick_63">
     <g id="line2d_87">
      <g>
       <use style="stroke:#000000;stroke-width:0.6;" x="72" xlink:href="#m6ae4f22661" y="308.674196"/>
      </g>
     </g>
    </g>
    <g id="ytick_64">
     <g id="line2d_88">
      <g>
       <use style="stroke:#000000;stroke-width:0.6;" x="72" xlink:href="#m6ae4f22661" y="302.142745"/>
      </g>
     </g>
    </g>
    <g id="ytick_65">
     <g id="line2d_89">
      <g>
       <use style="stroke:#000000;stroke-width:0.6;" x="72" xlink:href="#m6ae4f22661" y="295.611294"/>
      </g>
     </g>
    </g>
    <g id="ytick_66">
     <g id="line2d_90">
      <g>
       <use style="stroke:#000000;stroke-width:0.6;" x="72" xlink:href="#m6ae4f22661" y="289.079843"/>
      </g>
     </g>
    </g>
    <g id="ytick_67">
     <g id="line2d_91">
      <g>
       <use style="stroke:#000000;stroke-width:0.6;" x="72" xlink:href="#m6ae4f22661" y="282.548392"/>
      </g>
     </g>
    </g>
    <g id="ytick_68">
     <g id="line2d_92">
      <g>
       <use style="stroke:#000000;stroke-width:0.6;" x="72" xlink:href="#m6ae4f22661" y="276.016941"/>
      </g>
     </g>
    </g>
    <g id="ytick_69">
     <g id="line2d_93">
      <g>
       <use style="stroke:#000000;stroke-width:0.6;" x="72" xlink:href="#m6ae4f22661" y="269.48549"/>
      </g>
     </g>
    </g>
    <g id="ytick_70">
     <g id="line2d_94">
      <g>
       <use style="stroke:#000000;stroke-width:0.6;" x="72" xlink:href="#m6ae4f22661" y="262.954039"/>
      </g>
     </g>
    </g>
    <g id="ytick_71">
     <g id="line2d_95">
      <g>
       <use style="stroke:#000000;stroke-width:0.6;" x="72" xlink:href="#m6ae4f22661" y="256.422588"/>
      </g>
     </g>
    </g>
    <g id="ytick_72">
     <g id="line2d_96">
      <g>
       <use style="stroke:#000000;stroke-width:0.6;" x="72" xlink:href="#m6ae4f22661" y="249.891137"/>
      </g>
     </g>
    </g>
    <g id="ytick_73">
     <g id="line2d_97">
      <g>
       <use style="stroke:#000000;stroke-width:0.6;" x="72" xlink:href="#m6ae4f22661" y="243.359686"/>
      </g>
     </g>
    </g>
    <g id="ytick_74">
     <g id="line2d_98">
      <g>
       <use style="stroke:#000000;stroke-width:0.6;" x="72" xlink:href="#m6ae4f22661" y="236.828235"/>
      </g>
     </g>
    </g>
    <g id="ytick_75">
     <g id="line2d_99">
      <g>
       <use style="stroke:#000000;stroke-width:0.6;" x="72" xlink:href="#m6ae4f22661" y="230.296784"/>
      </g>
     </g>
    </g>
    <g id="ytick_76">
     <g id="line2d_100">
      <g>
       <use style="stroke:#000000;stroke-width:0.6;" x="72" xlink:href="#m6ae4f22661" y="223.765333"/>
      </g>
     </g>
    </g>
    <g id="ytick_77">
     <g id="line2d_101">
      <g>
       <use style="stroke:#000000;stroke-width:0.6;" x="72" xlink:href="#m6ae4f22661" y="217.233882"/>
      </g>
     </g>
    </g>
    <g id="ytick_78">
     <g id="line2d_102">
      <g>
       <use style="stroke:#000000;stroke-width:0.6;" x="72" xlink:href="#m6ae4f22661" y="210.702431"/>
      </g>
     </g>
    </g>
    <g id="ytick_79">
     <g id="line2d_103">
      <g>
       <use style="stroke:#000000;stroke-width:0.6;" x="72" xlink:href="#m6ae4f22661" y="204.17098"/>
      </g>
     </g>
    </g>
    <g id="ytick_80">
     <g id="line2d_104">
      <g>
       <use style="stroke:#000000;stroke-width:0.6;" x="72" xlink:href="#m6ae4f22661" y="197.639529"/>
      </g>
     </g>
    </g>
    <g id="ytick_81">
     <g id="line2d_105">
      <g>
       <use style="stroke:#000000;stroke-width:0.6;" x="72" xlink:href="#m6ae4f22661" y="191.108078"/>
      </g>
     </g>
    </g>
    <g id="ytick_82">
     <g id="line2d_106">
      <g>
       <use style="stroke:#000000;stroke-width:0.6;" x="72" xlink:href="#m6ae4f22661" y="184.576627"/>
      </g>
     </g>
    </g>
    <g id="ytick_83">
     <g id="line2d_107">
      <g>
       <use style="stroke:#000000;stroke-width:0.6;" x="72" xlink:href="#m6ae4f22661" y="178.045176"/>
      </g>
     </g>
    </g>
    <g id="ytick_84">
     <g id="line2d_108">
      <g>
       <use style="stroke:#000000;stroke-width:0.6;" x="72" xlink:href="#m6ae4f22661" y="171.513725"/>
      </g>
     </g>
    </g>
    <g id="ytick_85">
     <g id="line2d_109">
      <g>
       <use style="stroke:#000000;stroke-width:0.6;" x="72" xlink:href="#m6ae4f22661" y="164.982275"/>
      </g>
     </g>
    </g>
    <g id="ytick_86">
     <g id="line2d_110">
      <g>
       <use style="stroke:#000000;stroke-width:0.6;" x="72" xlink:href="#m6ae4f22661" y="158.450824"/>
      </g>
     </g>
    </g>
    <g id="ytick_87">
     <g id="line2d_111">
      <g>
       <use style="stroke:#000000;stroke-width:0.6;" x="72" xlink:href="#m6ae4f22661" y="151.919373"/>
      </g>
     </g>
    </g>
    <g id="ytick_88">
     <g id="line2d_112">
      <g>
       <use style="stroke:#000000;stroke-width:0.6;" x="72" xlink:href="#m6ae4f22661" y="145.387922"/>
      </g>
     </g>
    </g>
    <g id="ytick_89">
     <g id="line2d_113">
      <g>
       <use style="stroke:#000000;stroke-width:0.6;" x="72" xlink:href="#m6ae4f22661" y="138.856471"/>
      </g>
     </g>
    </g>
    <g id="ytick_90">
     <g id="line2d_114">
      <g>
       <use style="stroke:#000000;stroke-width:0.6;" x="72" xlink:href="#m6ae4f22661" y="132.32502"/>
      </g>
     </g>
    </g>
    <g id="ytick_91">
     <g id="line2d_115">
      <g>
       <use style="stroke:#000000;stroke-width:0.6;" x="72" xlink:href="#m6ae4f22661" y="125.793569"/>
      </g>
     </g>
    </g>
    <g id="ytick_92">
     <g id="line2d_116">
      <g>
       <use style="stroke:#000000;stroke-width:0.6;" x="72" xlink:href="#m6ae4f22661" y="119.262118"/>
      </g>
     </g>
    </g>
    <g id="ytick_93">
     <g id="line2d_117">
      <g>
       <use style="stroke:#000000;stroke-width:0.6;" x="72" xlink:href="#m6ae4f22661" y="112.730667"/>
      </g>
     </g>
    </g>
    <g id="ytick_94">
     <g id="line2d_118">
      <g>
       <use style="stroke:#000000;stroke-width:0.6;" x="72" xlink:href="#m6ae4f22661" y="106.199216"/>
      </g>
     </g>
    </g>
    <g id="ytick_95">
     <g id="line2d_119">
      <g>
       <use style="stroke:#000000;stroke-width:0.6;" x="72" xlink:href="#m6ae4f22661" y="99.667765"/>
      </g>
     </g>
    </g>
    <g id="ytick_96">
     <g id="line2d_120">
      <g>
       <use style="stroke:#000000;stroke-width:0.6;" x="72" xlink:href="#m6ae4f22661" y="93.136314"/>
      </g>
     </g>
    </g>
    <g id="ytick_97">
     <g id="line2d_121">
      <g>
       <use style="stroke:#000000;stroke-width:0.6;" x="72" xlink:href="#m6ae4f22661" y="86.604863"/>
      </g>
     </g>
    </g>
    <g id="ytick_98">
     <g id="line2d_122">
      <g>
       <use style="stroke:#000000;stroke-width:0.6;" x="72" xlink:href="#m6ae4f22661" y="80.073412"/>
      </g>
     </g>
    </g>
    <g id="ytick_99">
     <g id="line2d_123">
      <g>
       <use style="stroke:#000000;stroke-width:0.6;" x="72" xlink:href="#m6ae4f22661" y="73.541961"/>
      </g>
     </g>
    </g>
    <g id="ytick_100">
     <g id="line2d_124">
      <g>
       <use style="stroke:#000000;stroke-width:0.6;" x="72" xlink:href="#m6ae4f22661" y="67.01051"/>
      </g>
     </g>
    </g>
    <g id="ytick_101">
     <g id="line2d_125">
      <g>
       <use style="stroke:#000000;stroke-width:0.6;" x="72" xlink:href="#m6ae4f22661" y="60.479059"/>
      </g>
     </g>
    </g>
    <g id="ytick_102">
     <g id="line2d_126">
      <g>
       <use style="stroke:#000000;stroke-width:0.6;" x="72" xlink:href="#m6ae4f22661" y="53.947608"/>
      </g>
     </g>
    </g>
    <g id="ytick_103">
     <g id="line2d_127">
      <g>
       <use style="stroke:#000000;stroke-width:0.6;" x="72" xlink:href="#m6ae4f22661" y="47.416157"/>
      </g>
     </g>
    </g>
    <g id="text_36">
     <!-- Monthly Air Temperature (°C) -->
     <g transform="translate(26.5125 292.372353)rotate(-90)scale(0.16 -0.16)">
      <use xlink:href="#ArialMT-4d"/>
      <use x="83.300781" xlink:href="#ArialMT-6f"/>
      <use x="138.916016" xlink:href="#ArialMT-6e"/>
      <use x="194.53125" xlink:href="#ArialMT-74"/>
      <use x="222.314453" xlink:href="#ArialMT-68"/>
      <use x="277.929688" xlink:href="#ArialMT-6c"/>
      <use x="300.146484" xlink:href="#ArialMT-79"/>
      <use x="350.146484" xlink:href="#ArialMT-20"/>
      <use x="377.851562" xlink:href="#ArialMT-41"/>
      <use x="444.550781" xlink:href="#ArialMT-69"/>
      <use x="466.767578" xlink:href="#ArialMT-72"/>
      <use x="500.068359" xlink:href="#ArialMT-20"/>
      <use x="527.835938" xlink:href="#ArialMT-54"/>
      <use x="588.748047" xlink:href="#ArialMT-65"/>
      <use x="644.363281" xlink:href="#ArialMT-6d"/>
      <use x="727.664062" xlink:href="#ArialMT-70"/>
      <use x="783.279297" xlink:href="#ArialMT-65"/>
      <use x="838.894531" xlink:href="#ArialMT-72"/>
      <use x="872.195312" xlink:href="#ArialMT-61"/>
      <use x="927.810547" xlink:href="#ArialMT-74"/>
      <use x="955.59375" xlink:href="#ArialMT-75"/>
      <use x="1011.208984" xlink:href="#ArialMT-72"/>
      <use x="1044.509766" xlink:href="#ArialMT-65"/>
      <use x="1100.125" xlink:href="#ArialMT-20"/>
      <use x="1127.908203" xlink:href="#ArialMT-28"/>
      <use x="1161.208984" xlink:href="#ArialMT-b0"/>
      <use x="1201.199219" xlink:href="#ArialMT-43"/>
      <use x="1273.416016" xlink:href="#ArialMT-29"/>
     </g>
    </g>
   </g>
   <g id="legend_1">
    <g id="line2d_128">
     <path d="M 77 50.639862 
L 103 50.639862 
" style="fill:none;stroke:#990000;stroke-dasharray:5.55,2.4;stroke-dashoffset:0;stroke-width:1.5;"/>
    </g>
    <g id="line2d_129"/>
    <g id="text_37">
     <!-- Temp. max. -->
     <defs>
      <path d="M 0.734375 0 
L 19.671875 26.953125 
L 2.15625 51.859375 
L 13.140625 51.859375 
L 21.09375 39.703125 
Q 23.34375 36.234375 24.703125 33.890625 
Q 26.859375 37.109375 28.65625 39.59375 
L 37.40625 51.859375 
L 47.90625 51.859375 
L 29.984375 27.4375 
L 49.265625 0 
L 38.484375 0 
L 27.828125 16.109375 
L 25 20.453125 
L 11.375 0 
z
" id="ArialMT-78"/>
     </defs>
     <g transform="translate(113.4 55.189862)scale(0.13 -0.13)">
      <use xlink:href="#ArialMT-54"/>
      <use x="60.912109" xlink:href="#ArialMT-65"/>
      <use x="116.527344" xlink:href="#ArialMT-6d"/>
      <use x="199.828125" xlink:href="#ArialMT-70"/>
      <use x="255.443359" xlink:href="#ArialMT-2e"/>
      <use x="283.226562" xlink:href="#ArialMT-20"/>
      <use x="311.009766" xlink:href="#ArialMT-6d"/>
      <use x="394.310547" xlink:href="#ArialMT-61"/>
      <use x="449.925781" xlink:href="#ArialMT-78"/>
      <use x="499.925781" xlink:href="#ArialMT-2e"/>
     </g>
    </g>
    <g id="line2d_130">
     <path d="M 77 69.028768 
L 103 69.028768 
" style="fill:none;stroke:#ff0000;stroke-dasharray:5.55,2.4;stroke-dashoffset:0;stroke-width:1.5;"/>
    </g>
    <g id="line2d_131"/>
    <g id="text_38">
     <!-- Temp. mean -->
     <g transform="translate(113.4 73.578768)scale(0.13 -0.13)">
      <use xlink:href="#ArialMT-54"/>
      <use x="60.912109" xlink:href="#ArialMT-65"/>
      <use x="116.527344" xlink:href="#ArialMT-6d"/>
      <use x="199.828125" xlink:href="#ArialMT-70"/>
      <use x="255.443359" xlink:href="#ArialMT-2e"/>
      <use x="283.226562" xlink:href="#ArialMT-20"/>
      <use x="311.009766" xlink:href="#ArialMT-6d"/>
      <use x="394.310547" xlink:href="#ArialMT-65"/>
      <use x="449.925781" xlink:href="#ArialMT-61"/>
      <use x="505.541016" xlink:href="#ArialMT-6e"/>
     </g>
    </g>
    <g id="line2d_132">
     <path d="M 77 87.417675 
L 103 87.417675 
" style="fill:none;stroke:#ff6666;stroke-dasharray:5.55,2.4;stroke-dashoffset:0;stroke-width:1.5;"/>
    </g>
    <g id="line2d_133"/>
    <g id="text_39">
     <!-- Temp. min. -->
     <g transform="translate(113.4 91.967675)scale(0.13 -0.13)">
      <use xlink:href="#ArialMT-54"/>
      <use x="60.912109" xlink:href="#ArialMT-65"/>
      <use x="116.527344" xlink:href="#ArialMT-6d"/>
      <use x="199.828125" xlink:href="#ArialMT-70"/>
      <use x="255.443359" xlink:href="#ArialMT-2e"/>
      <use x="283.226562" xlink:href="#ArialMT-20"/>
      <use x="311.009766" xlink:href="#ArialMT-6d"/>
      <use x="394.310547" xlink:href="#ArialMT-69"/>
      <use x="416.527344" xlink:href="#ArialMT-6e"/>
      <use x="472.142578" xlink:href="#ArialMT-2e"/>
     </g>
    </g>
    <g id="patch_8">
     <path d="M 77 110.356581 
L 103 110.356581 
L 103 101.256581 
L 77 101.256581 
z
" style="fill:#173458;"/>
    </g>
    <g id="text_40">
     <!-- Rain -->
     <g transform="translate(113.4 110.356581)scale(0.13 -0.13)">
      <use xlink:href="#ArialMT-52"/>
      <use x="72.216797" xlink:href="#ArialMT-61"/>
      <use x="127.832031" xlink:href="#ArialMT-69"/>
      <use x="150.048828" xlink:href="#ArialMT-6e"/>
     </g>
    </g>
    <g id="patch_9">
     <path d="M 77 128.745487 
L 103 128.745487 
L 103 119.645487 
L 77 119.645487 
z
" style="fill:#a5a5a5;"/>
    </g>
    <g id="text_41">
     <!-- Snow -->
     <defs>
      <path d="M 16.15625 0 
L 0.296875 51.859375 
L 9.375 51.859375 
L 17.625 21.921875 
L 20.703125 10.796875 
Q 20.90625 11.625 23.390625 21.484375 
L 31.640625 51.859375 
L 40.671875 51.859375 
L 48.4375 21.78125 
L 51.03125 11.859375 
L 54 21.875 
L 62.890625 51.859375 
L 71.4375 51.859375 
L 55.21875 0 
L 46.09375 0 
L 37.84375 31.0625 
L 35.84375 39.890625 
L 25.34375 0 
z
" id="ArialMT-77"/>
     </defs>
     <g transform="translate(113.4 128.745487)scale(0.13 -0.13)">
      <use xlink:href="#ArialMT-53"/>
      <use x="66.699219" xlink:href="#ArialMT-6e"/>
      <use x="122.314453" xlink:href="#ArialMT-6f"/>
      <use x="177.929688" xlink:href="#ArialMT-77"/>
     </g>
    </g>
   </g>
   <g id="line2d_134">
    <path clip-path="url(#p7c17369890)" d="M 72 254.26097 
L 91.498375 266.902083 
L 130.495125 259.104282 
L 169.491876 220.617919 
L 208.488626 162.867089 
L 247.485376 109.562994 
L 286.482126 78.398681 
L 325.478877 66.041327 
L 364.475627 71.251091 
L 403.472377 99.615848 
L 442.469128 149.368379 
L 481.465878 195.466566 
L 520.462628 241.619857 
L 539.961003 254.26097 
" style="fill:none;stroke:#990000;stroke-dasharray:5.55,2.4;stroke-dashoffset:0;stroke-width:1.5;"/>
   </g>
   <g id="line2d_135">
    <path clip-path="url(#p7c17369890)" d="M 72 282.579996 
L 91.498375 297.659868 
L 130.495125 290.813778 
L 169.491876 250.526455 
L 208.488626 195.958099 
L 247.485376 147.301977 
L 286.482126 113.480946 
L 325.478877 100.452187 
L 364.475627 106.453667 
L 403.472377 134.436018 
L 442.469128 178.949531 
L 481.465878 220.248398 
L 520.462628 267.500124 
L 539.961003 282.579996 
" style="fill:none;stroke:#ff0000;stroke-dasharray:5.55,2.4;stroke-dashoffset:0;stroke-width:1.5;"/>
   </g>
   <g id="line2d_136">
    <path clip-path="url(#p7c17369890)" d="M 72 310.616209 
L 91.498375 328.04084 
L 130.495125 322.190482 
L 169.491876 280.280212 
L 208.488626 229.218258 
L 247.485376 185.165755 
L 286.482126 148.795999 
L 325.478877 135.118309 
L 364.475627 141.972281 
L 403.472377 169.479765 
L 442.469128 208.664392 
L 481.465878 245.045303 
L 520.462628 293.191578 
L 539.961003 310.616209 
" style="fill:none;stroke:#ff6666;stroke-dasharray:5.55,2.4;stroke-dashoffset:0;stroke-width:1.5;"/>
   </g>
   <g id="line2d_137">
    <defs>
     <path d="M 0 3 
C 0.795609 3 1.55874 2.683901 2.12132 2.12132 
C 2.683901 1.55874 3 0.795609 3 0 
C 3 -0.795609 2.683901 -1.55874 2.12132 -2.12132 
C 1.55874 -2.683901 0.795609 -3 0 -3 
C -0.795609 -3 -1.55874 -2.683901 -2.12132 -2.12132 
C -2.683901 -1.55874 -3 -0.795609 -3 0 
C -3 0.795609 -2.683901 1.55874 -2.12132 2.12132 
C -1.55874 2.683901 -0.795609 3 0 3 
z
" id="me2defb100d" style="stroke:#ff0000;stroke-width:1.5;"/>
    </defs>
    <g clip-path="url(#p7c17369890)">
     <use style="fill:#ffffff;stroke:#ff0000;stroke-width:1.5;" x="91.498375" xlink:href="#me2defb100d" y="297.659868"/>
     <use style="fill:#ffffff;stroke:#ff0000;stroke-width:1.5;" x="130.495125" xlink:href="#me2defb100d" y="290.813778"/>
     <use style="fill:#ffffff;stroke:#ff0000;stroke-width:1.5;" x="169.491876" xlink:href="#me2defb100d" y="250.526455"/>
     <use style="fill:#ffffff;stroke:#ff0000;stroke-width:1.5;" x="208.488626" xlink:href="#me2defb100d" y="195.958099"/>
     <use style="fill:#ffffff;stroke:#ff0000;stroke-width:1.5;" x="247.485376" xlink:href="#me2defb100d" y="147.301977"/>
     <use style="fill:#ffffff;stroke:#ff0000;stroke-width:1.5;" x="286.482126" xlink:href="#me2defb100d" y="113.480946"/>
     <use style="fill:#ffffff;stroke:#ff0000;stroke-width:1.5;" x="325.478877" xlink:href="#me2defb100d" y="100.452187"/>
     <use style="fill:#ffffff;stroke:#ff0000;stroke-width:1.5;" x="364.475627" xlink:href="#me2defb100d" y="106.453667"/>
     <use style="fill:#ffffff;stroke:#ff0000;stroke-width:1.5;" x="403.472377" xlink:href="#me2defb100d" y="134.436018"/>
     <use style="fill:#ffffff;stroke:#ff0000;stroke-width:1.5;" x="442.469128" xlink:href="#me2defb100d" y="178.949531"/>
     <use style="fill:#ffffff;stroke:#ff0000;stroke-width:1.5;" x="481.465878" xlink:href="#me2defb100d" y="220.248398"/>
     <use style="fill:#ffffff;stroke:#ff0000;stroke-width:1.5;" x="520.462628" xlink:href="#me2defb100d" y="267.500124"/>
    </g>
   </g>
  </g>
 </g>
 <defs>
  <clipPath id="p9f9fd62612">
   <rect height="293.915294" width="468" x="72" y="40.884706"/>
  </clipPath>
  <clipPath id="p7c17369890">
   <rect height="327.6" width="468" x="72" y="7.2"/>
  </clipPath>
 </defs>
</svg>
