<?xml version="1.0" encoding="UTF-8" standalone="no"?>
<!-- Created with Inkscape (http://www.inkscape.org/) -->

<svg
   xmlns:dc="http://purl.org/dc/elements/1.1/"
   xmlns:cc="http://creativecommons.org/ns#"
   xmlns:rdf="http://www.w3.org/1999/02/22-rdf-syntax-ns#"
   xmlns:svg="http://www.w3.org/2000/svg"
   xmlns="http://www.w3.org/2000/svg"
   xmlns:sodipodi="http://sodipodi.sourceforge.net/DTD/sodipodi-0.dtd"
   xmlns:inkscape="http://www.inkscape.org/namespaces/inkscape"
   width="90"
   height="90"
   id="svg4874"
   version="1.1"
   inkscape:version="0.48.4 r9939"
   viewBox="0 0 90 90.000001"
   sodipodi:docname="compares.svg"
   inkscape:export-filename="/home/jnsebgosselin/Dropbox/geot-jsgosselin/VersaGLHEDesign/Icons/compare.png"
   inkscape:export-xdpi="256"
   inkscape:export-ydpi="256">
  <defs
     id="defs4876" />
  <sodipodi:namedview
     id="base"
     pagecolor="#ffffff"
     bordercolor="#666666"
     borderopacity="1.0"
     inkscape:pageopacity="0.0"
     inkscape:pageshadow="2"
     inkscape:zoom="2.7833333"
     inkscape:cx="0.77884379"
     inkscape:cy="54.360636"
     inkscape:document-units="px"
     inkscape:current-layer="g1708"
     showgrid="true"
     showborder="true"
     fit-margin-top="0"
     fit-margin-left="0"
     fit-margin-right="0"
     fit-margin-bottom="0"
     inkscape:snap-bbox="true"
     inkscape:bbox-paths="true"
     inkscape:bbox-nodes="true"
     inkscape:snap-bbox-edge-midpoints="true"
     inkscape:snap-bbox-midpoints="true"
     inkscape:object-paths="true"
     inkscape:snap-intersection-paths="true"
     inkscape:object-nodes="true"
     inkscape:snap-smooth-nodes="true"
     inkscape:snap-midpoints="true"
     inkscape:snap-object-midpoints="true"
     inkscape:snap-center="true"
     showguides="true"
     inkscape:guide-bbox="true"
     inkscape:window-width="1535"
     inkscape:window-height="876"
     inkscape:window-x="65"
     inkscape:window-y="24"
     inkscape:window-maximized="1"
     inkscape:snap-global="false">
    <inkscape:grid
       type="xygrid"
       id="grid5451"
       empspacing="6" />
    <sodipodi:guide
       orientation="1,0"
       position="6,77"
       id="guide4063" />
    <sodipodi:guide
       orientation="1,0"
       position="3,78"
       id="guide4065" />
    <sodipodi:guide
       orientation="0,1"
       position="55,84"
       id="guide4067" />
    <sodipodi:guide
       orientation="0,1"
       position="53,87"
       id="guide4069" />
    <sodipodi:guide
       orientation="0,1"
       position="20,3"
       id="guide4071" />
    <sodipodi:guide
       orientation="0,1"
       position="20,6"
       id="guide4073" />
    <sodipodi:guide
       orientation="1,0"
       position="87,7"
       id="guide4075" />
    <sodipodi:guide
       orientation="1,0"
       position="84,7"
       id="guide4077" />
    <sodipodi:guide
       orientation="0,1"
       position="58,81"
       id="guide4074" />
    <sodipodi:guide
       orientation="1,0"
       position="9,74"
       id="guide4076" />
    <sodipodi:guide
       orientation="0,1"
       position="21,9"
       id="guide4078" />
    <sodipodi:guide
       orientation="1,0"
       position="81,4"
       id="guide4080" />
  </sodipodi:namedview>
  <metadata
     id="metadata4879">
    <rdf:RDF>
      <cc:Work
         rdf:about="">
        <dc:format>image/svg+xml</dc:format>
        <dc:type
           rdf:resource="http://purl.org/dc/dcmitype/StillImage" />
        <dc:title></dc:title>
      </cc:Work>
    </rdf:RDF>
  </metadata>
  <g
     inkscape:label="Layer 1"
     inkscape:groupmode="layer"
     id="layer1"
     transform="translate(67.857146,-84.50504)">
    <g
       transform="matrix(0,-1,-1,0,373.50506,516.50504)"
       id="g4845"
       style="display:inline">
      <g
         inkscape:label="Layer 1"
         id="g1708"
         transform="matrix(0,-1,-1,0,1394.3622,441.36221)"
         inkscape:export-filename="add01.png"
         inkscape:export-xdpi="90"
         inkscape:export-ydpi="90">
        <rect
           style="color:#000000;fill:none;stroke:none;stroke-width:7.5;marker:none;visibility:visible;display:inline;overflow:visible;enable-background:accumulate"
           id="rect1710"
           width="87.486816"
           height="87.486816"
           x="1.0025427"
           y="963.65051" />
        <path
           style="fill:#4d4d4d;fill-opacity:1"
           d="m -88.311601,1087.589 c 0,-0.1002 0.0851,-0.1796 0.18904,-0.1796 0.26171,0 0.25538,-8.8915 -0.006,-9.3305 -0.18285,-0.3063 -0.42953,-0.3279 -3.75629,-0.3279 -2.31279,0 -4.14899,-0.09 -5.23957,-0.2564 -3.647849,-0.5571 -6.922579,-1.8175 -9.459609,-3.6409 -2.22003,-1.5956 -4.11335,-4.3506 -5.0076,-7.2863 l -0.43873,-1.4402 -0.0979,-18.7525 c -0.0539,-10.314 -0.14046,-18.7826 -0.19244,-18.8193 -0.052,-0.036 -0.54016,-0.3541 -1.08483,-0.7048 -2.09106,-1.3471 -3.84526,-3.6422 -4.45378,-5.8271 -0.40086,-1.6358 -0.43443,-3.9386 0.14279,-5.6698 1.09972,-3.411 4.33856,-6.2343 8.23162,-7.1755 1.62624,-0.3931 4.42346,-0.3931 6.0497,0 2.90025,0.7011 5.827429,2.7288 7.236459,5.0128 1.37619,2.2307 1.84854,5.3366 1.17357,7.7167 -0.66314,2.3381 -2.48736,4.7247 -4.60232,6.021 -0.520989,0.3194 -0.994169,0.7333 -1.051529,0.9196 -0.0573,0.1864 -0.10543,7.8526 -0.10687,17.0366 -0.003,18.1109 -0.0304,17.5912 1.035289,19.4761 0.65953,1.1668 1.41404,1.8866 2.58839,2.4696 l 1.00554,0.4992 3.8676,0.056 c 3.52193,0.051 3.88944,0.028 4.1119,-0.2439 0.18645,-0.2286 0.24431,-1.466 0.24431,-5.223 l 0,-4.9234 8.60192,7.7088 c 4.73106,4.2396 8.60192,7.7853 8.60192,7.8795 0,0.095 -3.65296,3.4443 -8.11768,7.445 -4.46471,4.0009 -8.10162,7.3558 -8.08201,7.455 0.0196,0.1002 -0.28338,0.2046 -0.6733,0.2332 -0.4104,0.03 -0.70895,-0.024 -0.70895,-0.1269 z m -17.102769,-63.3994 c 2.00497,-0.3322 3.57556,-1.3189 4.4788,-2.8136 2.092499,-3.4631 -0.12293,-7.6173 -4.44408,-8.3333 -4.26805,-0.7072 -8.08518,2.7141 -7.29619,6.5396 0.55474,2.6897 2.62131,4.3246 6.03862,4.7781 0.0588,0.015 0.60916,-0.069 1.22285,-0.1708 z m 56.549909,57.5296 c -3.02459,-0.6562 -5.99643,-2.7581 -7.45652,-5.2733 -0.97196,-1.6749 -1.35845,-3.0871 -1.35845,-4.9647 0,-3.5571 1.5471,-6.117 5.44173,-9.0036 l 0.6024,-0.4464 0,-16.7865 c 0,-11.6006 -0.0646,-17.0641 -0.20893,-17.6846 -0.50486,-2.17 -1.99879,-3.9848 -3.91704,-4.7583 -0.77271,-0.3117 -1.33746,-0.3655 -4.48803,-0.428 -3.19552,-0.063 -3.64021,-0.039 -3.92285,0.2143 -0.28442,0.2548 -0.31876,0.8183 -0.31876,5.2296 l 0,4.9439 -8.64894,-7.7519 -8.64891,-7.7519 8.64891,-7.7522 8.64894,-7.7519 0,4.944 c 0,4.2686 0.0406,4.9804 0.29708,5.2103 0.25029,0.2243 0.89325,0.2663 4.08221,0.2663 4.38765,0 6.49897,0.2954 9.32023,1.3041 5.65356,2.0213 8.92786,5.4783 10.1089,10.6728 0.38005,1.6715 0.39038,2.1949 0.39038,19.7986 l 0,18.0814 0.6024,0.4464 c 0.33131,0.2457 1.25563,1.0209 2.05406,1.7225 1.15051,1.0113 1.61211,1.574 2.22502,2.7114 0.42533,0.7892 0.83162,1.7653 0.90285,2.169 0.42183,1.8736 0.24006,3.4291 -0.006,4.8458 -0.0723,0.4317 -0.51516,1.4722 -0.98436,2.3121 -1.51864,2.7192 -4.43115,4.8085 -7.65101,5.4888 -1.49233,0.3152 -4.24315,0.3115 -5.71498,-0.017 z m 5.66894,-5.1699 c 1.36351,-0.5825 2.38224,-1.527 3.04451,-2.8241 0.38024,-0.7441 0.4758,-1.1996 0.4758,-2.2675 0,-1.155 -0.0803,-1.482 -0.59386,-2.4171 -1.91132,-3.4797 -6.80115,-4.3156 -10.01647,-1.7119 -0.42841,0.3468 -1.05066,1.1254 -1.38277,1.7302 -1.13176,2.0606 -0.72402,4.5148 1.04097,6.266 1.85733,1.8424 4.8355,2.3331 7.43182,1.2244 z"
           id="path2989"
           inkscape:connector-curvature="0"
           sodipodi:nodetypes="cscsssscsssccssssssssscscscsssssccsssscssssscsssscscccccscsssscsssccsssscssccss"
           inkscape:export-xdpi="256"
           inkscape:export-ydpi="256"
           inkscape:export-filename="/home/jnsebgosselin/Dropbox/geot-jsgosselin/VersaGLHEDesign/Icons/compare.png" />
        <rect
           style="opacity:0.21171169;fill:none;stroke:none"
           id="rect1315"
           width="89.999992"
           height="89.999992"
           x="958.83063"
           y="-171.54358"
           transform="matrix(0,1,-1,0,0,0)" />
        <path
           sodipodi:type="arc"
           style="fill:none;stroke:#4d4d4d;stroke-width:6.95905399;stroke-miterlimit:4;stroke-opacity:1;stroke-dasharray:none"
           id="path3870"
           sodipodi:cx="-41.497005"
           sodipodi:cy="-17.60479"
           sodipodi:rx="10.239521"
           sodipodi:ry="10.239521"
           d="m -31.257484,-17.60479 a 10.239521,10.239521 0 1 1 -20.479042,0 10.239521,10.239521 0 1 1 20.479042,0 z"
           transform="matrix(0.99721786,0,0,0.99721786,57.07005,995.79064)" />
        <path
           style="fill:#4d4d4d;fill-opacity:1;stroke:none"
           d="m 31.960843,978.2276 17.642237,15.09098 -0.017,-30.16749 -17.625238,15.07651 z"
           id="rect3872"
           inkscape:connector-curvature="0" />
        <path
           style="fill:#4d4d4d;fill-opacity:1;stroke:none;display:inline"
           d="m 58.720985,1036.498 -17.642238,15.0909 0.017,-30.1674 17.62524,15.0765 z"
           id="rect3872-5"
           inkscape:connector-curvature="0" />
        <path
           style="fill:none;stroke:#4d4d4d;stroke-width:10.69283295;stroke-linecap:butt;stroke-linejoin:miter;stroke-miterlimit:4;stroke-opacity:1;stroke-dasharray:none"
           d="m 16.039906,986.65466 c 0.08611,0.13222 0,34.69884 0,40.64704 0,9.9417 -0.198609,9.6627 9.827248,9.6627 12.968587,0 21.096481,2e-4 21.096481,2e-4"
           id="path3947"
           inkscape:connector-curvature="0"
           sodipodi:nodetypes="cccc" />
        <path
           style="fill:none;stroke:#4d4d4d;stroke-width:10.69283295;stroke-linecap:butt;stroke-linejoin:miter;stroke-miterlimit:4;stroke-opacity:1;stroke-dasharray:none;display:inline"
           d="m 73.7586,1028.4879 c -0.08613,-0.1322 0,-34.6988 0,-40.64703 0,-9.94171 0.198605,-9.66272 -9.827228,-9.66272 -12.968559,0 -21.096473,-2e-4 -21.096473,-2e-4"
           id="path3947-3"
           inkscape:connector-curvature="0"
           sodipodi:nodetypes="cccc" />
        <path
           sodipodi:type="arc"
           style="fill:none;stroke:#4d4d4d;stroke-width:6.95905399;stroke-miterlimit:4;stroke-opacity:1;stroke-dasharray:none;display:inline"
           id="path3870-5"
           sodipodi:cx="-41.497005"
           sodipodi:cy="-17.60479"
           sodipodi:rx="10.239521"
           sodipodi:ry="10.239521"
           d="m -31.257484,-17.60479 a 10.239521,10.239521 0 1 1 -20.479042,0 10.239521,10.239521 0 1 1 20.479042,0 z"
           transform="matrix(0.99721786,0,0,0.99721786,115.21306,1054.0556)" />
      </g>
    </g>
  </g>
</svg>
