<?xml version="1.0" encoding="UTF-8" standalone="no"?>
<!-- Created with Inkscape (http://www.inkscape.org/) -->

<svg
   xmlns:dc="http://purl.org/dc/elements/1.1/"
   xmlns:cc="http://creativecommons.org/ns#"
   xmlns:rdf="http://www.w3.org/1999/02/22-rdf-syntax-ns#"
   xmlns:svg="http://www.w3.org/2000/svg"
   xmlns="http://www.w3.org/2000/svg"
   xmlns:sodipodi="http://sodipodi.sourceforge.net/DTD/sodipodi-0.dtd"
   xmlns:inkscape="http://www.inkscape.org/namespaces/inkscape"
   version="1.1"
   width="168.00002"
   height="168"
   id="svg6313"
   inkscape:version="0.48.4 r9939"
   sodipodi:docname="find_peak.svg"
   inkscape:export-filename="/home/jsgosselin/Documents/Research/Hydrogeology/WHAT/WHAT/Icons/SVG/find_peak.png"
   inkscape:export-xdpi="600"
   inkscape:export-ydpi="600">
  <sodipodi:namedview
     pagecolor="#ffffff"
     bordercolor="#666666"
     borderopacity="1"
     objecttolerance="10"
     gridtolerance="10"
     guidetolerance="10"
     inkscape:pageopacity="0"
     inkscape:pageshadow="2"
     inkscape:window-width="1535"
     inkscape:window-height="876"
     id="namedview8"
     showgrid="false"
     inkscape:zoom="3.277674"
     inkscape:cx="90.75665"
     inkscape:cy="90.167796"
     inkscape:window-x="65"
     inkscape:window-y="24"
     inkscape:window-maximized="1"
     inkscape:current-layer="svg6313"
     fit-margin-top="0"
     fit-margin-left="0"
     fit-margin-right="0"
     fit-margin-bottom="0" />
  <defs
     id="defs6315" />
  <metadata
     id="metadata6318">
    <rdf:RDF>
      <cc:Work
         rdf:about="">
        <dc:format>image/svg+xml</dc:format>
        <dc:type
           rdf:resource="http://purl.org/dc/dcmitype/StillImage" />
        <dc:title />
      </cc:Work>
    </rdf:RDF>
  </metadata>
  <path
     sodipodi:nodetypes="ccsc"
     inkscape:connector-curvature="0"
     style="color:#000000;fill:none;stroke:#4d4d4d;stroke-width:10;stroke-linecap:round;stroke-linejoin:round;stroke-miterlimit:0;stroke-opacity:1;stroke-dasharray:none;stroke-dashoffset:0;marker:none;visibility:visible;display:inline;overflow:visible;enable-background:accumulate"
     id="path6308"
     d="m 26.932092,89.680025 c 0,0 -11.542664,20.281315 25.19908,-46.556002 8.151763,81.178927 32.468835,94.715527 57.104548,83.503157 24.6357,-11.21236 34.39387,-30.190997 34.39387,-30.190997" />
  <path
     transform="matrix(1.4945303,-1.0621866e-7,1.0621866e-7,1.4945303,-82.236756,-33.119413)"
     d="m 102.25807,48.591049 a 11.973255,11.973255 0 1 1 -23.946512,0 11.973255,11.973255 0 1 1 23.946512,0 z"
     sodipodi:ry="11.973255"
     sodipodi:rx="11.973255"
     sodipodi:cy="48.591049"
     sodipodi:cx="90.284813"
     id="path2992-1"
     style="fill:none;stroke:#4d4d4d;stroke-width:6.69106541;stroke-linecap:round;stroke-linejoin:bevel;stroke-miterlimit:4;stroke-opacity:1;stroke-dasharray:none;stroke-dashoffset:0"
     sodipodi:type="arc" />
  <path
     style="font-size:15px;font-style:normal;font-variant:normal;font-weight:normal;font-stretch:normal;text-align:center;line-height:125%;letter-spacing:0px;word-spacing:0px;writing-mode:lr-tb;text-anchor:middle;fill:#4d4d4d;fill-opacity:1;stroke:none;display:inline;font-family:Ubuntu;-inkscape-font-specification:Ubuntu"
     d="M 32.30769,0 C 10.76922,0 0,-4.55e-4 0,25.042656 L 0,142.95734 C 0,168.00045 10.76922,168 32.30769,168 l 103.38462,0 c 21.53847,0 32.3077,4.5e-4 32.3077,-25.04266 l 0,-117.914684 C 168.00001,-4.55e-4 157.23078,0 135.69231,0 L 32.30769,0 z m 4.02166,12.923066 95.34135,0 c 17.08578,0 23.40623,-0.001 23.40623,17.64306 l 0,106.867744 c 0,17.64445 -6.32045,17.64306 -23.40623,17.64306 l -95.34135,0 c -17.08582,0 -23.40628,0.001 -23.40628,-17.64306 l 0,-106.867744 c 0,-17.64442 6.32046,-17.64306 23.40628,-17.64306 z"
     id="path4098"
     inkscape:connector-curvature="0" />
  <path
     transform="matrix(1.4945303,-1.0621866e-7,1.0621866e-7,1.4945303,-43.890205,56.382647)"
     d="m 102.25807,48.591049 a 11.973255,11.973255 0 1 1 -23.946512,0 11.973255,11.973255 0 1 1 23.946512,0 z"
     sodipodi:ry="11.973255"
     sodipodi:rx="11.973255"
     sodipodi:cy="48.591049"
     sodipodi:cx="90.284813"
     id="path2992-1-42"
     style="fill:none;stroke:#4d4d4d;stroke-width:6.69106541;stroke-linecap:round;stroke-linejoin:bevel;stroke-miterlimit:4;stroke-opacity:1;stroke-dasharray:none;stroke-dashoffset:0"
     sodipodi:type="arc" />
</svg>
