<?xml version="1.0" encoding="UTF-8" standalone="no"?>
<svg
   xmlns:dc="http://purl.org/dc/elements/1.1/"
   xmlns:cc="http://creativecommons.org/ns#"
   xmlns:rdf="http://www.w3.org/1999/02/22-rdf-syntax-ns#"
   xmlns:svg="http://www.w3.org/2000/svg"
   xmlns="http://www.w3.org/2000/svg"
   xmlns:sodipodi="http://sodipodi.sourceforge.net/DTD/sodipodi-0.dtd"
   xmlns:inkscape="http://www.inkscape.org/namespaces/inkscape"
   width="256"
   height="256"
   viewBox="0 0 256 256"
   version="1.1"
   id="svg4"
   sodipodi:docname="language.svg"
   inkscape:version="0.92.2 (5c3e80d, 2017-08-06)"
   inkscape:export-filename="C:\Users\jsgosselin\gwhat\gwhat\ressources\icons_png\language.png"
   inkscape:export-xdpi="96"
   inkscape:export-ydpi="96">
  <metadata
     id="metadata10">
    <rdf:RDF>
      <cc:Work
         rdf:about="">
        <dc:format>image/svg+xml</dc:format>
        <dc:type
           rdf:resource="http://purl.org/dc/dcmitype/StillImage" />
        <dc:title />
      </cc:Work>
    </rdf:RDF>
  </metadata>
  <defs
     id="defs8" />
  <sodipodi:namedview
     pagecolor="#ffffff"
     bordercolor="#666666"
     borderopacity="1"
     objecttolerance="10"
     gridtolerance="10"
     guidetolerance="10"
     inkscape:pageopacity="0"
     inkscape:pageshadow="2"
     inkscape:window-width="784"
     inkscape:window-height="822"
     id="namedview6"
     showgrid="false"
     inkscape:zoom="1.2291667"
     inkscape:cx="44.914759"
     inkscape:cy="59.29694"
     inkscape:window-x="800"
     inkscape:window-y="0"
     inkscape:window-maximized="0"
     inkscape:current-layer="svg4" />
  <path
     d="M 127.9365,1 C 57.769,1 1,57.8325 1,128 1,198.1675 57.769,255 127.9365,255 198.104,255 255,198.1675 255,128 255,57.8325 198.104,1 127.9365,1 Z m 87.9475,76.2 h -37.465 c -4.1275,-15.875 -9.906,-31.115 -17.526,-45.212 23.368,8.001 42.799,24.1935 54.991,45.212 z M 128,26.8445 c 10.6045,15.24 18.8595,32.1945 24.257,50.3555 H 103.743 C 109.1405,59.039 117.3955,42.0845 128,26.8445 Z M 29.702,153.4 C 27.6065,145.272 26.4,136.763 26.4,128 c 0,-8.763 1.2065,-17.272 3.302,-25.4 h 42.8625 c -1.016,8.3185 -1.7145,16.764 -1.7145,25.4 0,8.636 0.6985,17.0815 1.778,25.4 z m 10.3505,25.4 h 37.465 c 4.1275,15.875 9.906,31.115 17.526,45.2755 -23.368,-8.001 -42.799,-24.257 -54.991,-45.2755 z M 77.5175,77.2 H 40.0525 C 52.2445,56.1815 71.6755,39.9255 95.0435,31.9245 87.4235,46.085 81.645,61.325 77.5175,77.2 Z M 128,229.1555 C 117.459,213.9155 109.204,196.961 103.743,178.8 h 48.514 C 146.796,196.961 138.541,213.9155 128,229.1555 Z M 157.718,153.4 H 98.282 C 97.0755,145.0815 96.25,136.636 96.25,128 c 0,-8.636 0.8255,-17.0815 2.032,-25.4 h 59.436 c 1.2065,8.3185 2.032,16.764 2.032,25.4 0,8.636 -0.8255,17.0815 -2.032,25.4 z m 3.2385,70.612 c 7.62,-14.1605 13.3985,-29.337 17.526,-45.212 h 37.465 c -12.2555,21.0185 -31.6865,37.211 -54.991,45.212 z M 183.372,153.4 c 1.016,-8.3185 1.778,-16.764 1.778,-25.4 0,-8.636 -0.6985,-17.0815 -1.778,-25.4 h 42.8625 c 2.0955,8.128 3.3655,16.637 3.3655,25.4 0,8.763 -1.2065,17.272 -3.3655,25.4 z"
     id="path2"
     inkscape:connector-curvature="0"
     style="stroke-width:6.3499999;fill:#4d4d4d;fill-opacity:1" />
  <text
     xml:space="preserve"
     style="font-style:normal;font-weight:normal;font-size:12.63429928px;line-height:1.25;font-family:sans-serif;letter-spacing:0px;word-spacing:0px;fill:#000000;fill-opacity:1;stroke:none;stroke-width:0.31585747"
     x="-0.14745224"
     y="274.70923"
     id="text819"><tspan
       sodipodi:role="line"
       id="tspan817"
       x="-0.14745224"
       y="274.70923"
       style="stroke-width:0.31585747">https://www.materialui.co/icon/language</tspan></text>
</svg>
