<?xml version="1.0" encoding="UTF-8" standalone="no"?>
<!-- Created with Inkscape (http://www.inkscape.org/) -->

<svg
   xmlns:dc="http://purl.org/dc/elements/1.1/"
   xmlns:cc="http://creativecommons.org/ns#"
   xmlns:rdf="http://www.w3.org/1999/02/22-rdf-syntax-ns#"
   xmlns:svg="http://www.w3.org/2000/svg"
   xmlns="http://www.w3.org/2000/svg"
   xmlns:xlink="http://www.w3.org/1999/xlink"
   xmlns:sodipodi="http://sodipodi.sourceforge.net/DTD/sodipodi-0.dtd"
   xmlns:inkscape="http://www.inkscape.org/namespaces/inkscape"
   width="256"
   height="256"
   id="svg4874"
   version="1.1"
   inkscape:version="0.92.2 (5c3e80d, 2017-08-06)"
   viewBox="0 0 256 256.00001"
   sodipodi:docname="meteo.svg"
   inkscape:export-filename="C:\Users\jsgosselin\GWHAT\docs\img\icon\meteo.png"
   inkscape:export-xdpi="96"
   inkscape:export-ydpi="96">
  <defs
     id="defs4876">
    <linearGradient
       id="linearGradient4178-4"
       y2="173.88"
       xlink:href="#linearGradient4171-8"
       gradientUnits="userSpaceOnUse"
       x2="170.8"
       gradientTransform="matrix(1.0084,0,0,1.0084,-2.5546,-2)"
       y1="247.78999"
       x1="244.7" />
    <linearGradient
       id="linearGradient4171-8">
      <stop
         id="stop4173-2"
         style="stop-color:#045"
         offset="0" />
      <stop
         id="stop4176-5"
         style="stop-color:#045;stop-opacity:0"
         offset="1" />
    </linearGradient>
    <linearGradient
       id="linearGradient4190-6"
       y2="358"
       gradientUnits="userSpaceOnUse"
       x2="376"
       gradientTransform="matrix(1.0084,0,0,1.0084,-2.5546,-2)"
       y1="238"
       x1="256">
      <stop
         id="stop4186-77"
         style="stop-color:#fff"
         offset="0" />
      <stop
         id="stop4188-0"
         style="stop-color:#fff;stop-opacity:0"
         offset="1" />
    </linearGradient>
    <linearGradient
       id="linearGradient4247"
       y2="238"
       gradientUnits="userSpaceOnUse"
       x2="256"
       gradientTransform="matrix(0.40625,0,0,1.0756,238,-512)"
       y1="238">
      <stop
         id="stop4186-1"
         style="stop-color:#fff"
         offset="0" />
      <stop
         id="stop4188-9"
         style="stop-color:#fff;stop-opacity:0"
         offset="1" />
    </linearGradient>
    <linearGradient
       id="linearGradient4249"
       y2="238"
       xlink:href="#linearGradient4171-8"
       gradientUnits="userSpaceOnUse"
       x2="256"
       gradientTransform="matrix(0.40625,0,0,1.0756,-238,-512)"
       y1="238" />
    <linearGradient
       id="linearGradient3083">
      <stop
         id="stop3085"
         style="stop-color:#045"
         offset="0" />
      <stop
         id="stop3087"
         style="stop-color:#045;stop-opacity:0"
         offset="1" />
    </linearGradient>
    <linearGradient
       id="linearGradient4374"
       y2="451.66"
       gradientUnits="userSpaceOnUse"
       x2="273.45999"
       gradientTransform="translate(0,20)"
       y1="358.57001"
       x1="247.24001">
      <stop
         id="stop4370"
         style="stop-color:#fff"
         offset="0" />
      <stop
         id="stop4372"
         style="stop-color:#fff;stop-opacity:0"
         offset="1" />
    </linearGradient>
    <linearGradient
       id="linearGradient4912"
       y2="494"
       gradientUnits="userSpaceOnUse"
       x2="256"
       gradientTransform="matrix(1,0,0,1.0084,0,-2.1513)"
       y1="18"
       x1="256">
      <stop
         id="stop7539"
         style="stop-color:#247eca;stop-opacity:.99608"
         offset="0" />
      <stop
         id="stop7541"
         style="stop-color:#a1d4e2;stop-opacity:.99608"
         offset="1" />
    </linearGradient>
    <linearGradient
       inkscape:collect="always"
       xlink:href="#linearGradient4374"
       id="linearGradient3107"
       gradientUnits="userSpaceOnUse"
       gradientTransform="matrix(0.14206719,0,0,0.14206719,817.63348,-411.85308)"
       x1="247.24001"
       y1="358.57001"
       x2="273.45999"
       y2="451.66" />
    <linearGradient
       inkscape:collect="always"
       xlink:href="#linearGradient4374"
       id="linearGradient3025"
       gradientUnits="userSpaceOnUse"
       gradientTransform="matrix(0.14206719,0,0,0.14206719,818.00268,-403.68788)"
       x1="247.24001"
       y1="358.57001"
       x2="273.45999"
       y2="451.66" />
  </defs>
  <sodipodi:namedview
     id="base"
     pagecolor="#ffffff"
     bordercolor="#666666"
     borderopacity="1.0"
     inkscape:pageopacity="0.0"
     inkscape:pageshadow="2"
     inkscape:zoom="1.8007076"
     inkscape:cx="154.84627"
     inkscape:cy="133.53561"
     inkscape:document-units="px"
     inkscape:current-layer="g4845"
     showgrid="true"
     showborder="true"
     fit-margin-top="0"
     fit-margin-left="0"
     fit-margin-right="0"
     fit-margin-bottom="0"
     inkscape:snap-bbox="false"
     inkscape:bbox-paths="false"
     inkscape:bbox-nodes="false"
     inkscape:snap-bbox-edge-midpoints="false"
     inkscape:snap-bbox-midpoints="true"
     inkscape:object-paths="false"
     inkscape:snap-intersection-paths="false"
     inkscape:object-nodes="false"
     inkscape:snap-smooth-nodes="false"
     inkscape:snap-midpoints="false"
     inkscape:snap-object-midpoints="false"
     inkscape:snap-center="false"
     showguides="true"
     inkscape:guide-bbox="true"
     inkscape:window-width="1600"
     inkscape:window-height="838"
     inkscape:window-x="-8"
     inkscape:window-y="-8"
     inkscape:window-maximized="1"
     inkscape:snap-nodes="false">
    <inkscape:grid
       type="xygrid"
       id="grid5451"
       empspacing="6"
       visible="true"
       enabled="true"
       snapvisiblegridlinesonly="true"
       originx="47.55054"
       originy="49.086571"
       spacingx="1"
       spacingy="1" />
  </sodipodi:namedview>
  <metadata
     id="metadata4879">
    <rdf:RDF>
      <cc:Work
         rdf:about="">
        <dc:format>image/svg+xml</dc:format>
        <dc:type
           rdf:resource="http://purl.org/dc/dcmitype/StillImage" />
        <dc:title></dc:title>
      </cc:Work>
    </rdf:RDF>
  </metadata>
  <g
     inkscape:label="Layer 1"
     inkscape:groupmode="layer"
     id="layer1"
     transform="translate(115.40769,32.408377)">
    <g
       transform="matrix(0,-1.0283604,-1.0283604,0,369.02424,543.498)"
       id="g4845"
       style="display:inline">
      <path
         style="fill:#555753;fill-opacity:1;stroke-width:1"
         d="m 530.93247,356.08617 -37.78379,-1.43118 c 3.90879,-5.8594 6.44857,-12.39167 7.51188,-19.14008 l 30.27191,20.57129 z m -8.59873,-69.01114 -23.66567,25.87287 c -1.55095,-4.48861 -3.81475,-8.83937 -6.79806,-12.89106 -1.03136,-1.39941 -2.12889,-2.72516 -3.28194,-3.99131 z m -32.46697,41.54575 c -0.11831,12.07706 -6.22055,23.91742 -17.49623,31.34583 -0.93254,0.61409 -1.88085,1.18259 -2.84484,1.71336 -1.85324,-10.34512 -7.89402,-19.34695 -16.17487,-25.91319 -9.6e-4,0 9.6e-4,-0.009 0,-0.009 0.75671,-2.50285 1.18347,-5.14187 1.18347,-7.90191 0,-16.14886 -13.97393,-29.5044 -30.99638,-29.72305 0.70139,-0.53017 1.42651,-1.04935 2.17367,-1.54219 18.50347,-12.19021 43.94829,-7.89716 56.83575,9.60531 5.03412,6.83682 7.40045,14.68408 7.32025,22.42584 z m -10.60213,76.85264 -14.02252,-18.06164 c 2.32345,-4.26353 3.89004,-8.92427 4.53926,-13.85866 2.59333,-1.06019 5.13528,-2.32838 7.57592,-3.81996 l 1.90658,35.74026 z m -13.1593,-123.78061 c -6.06293,-1.97132 -12.48405,-2.89848 -18.90278,-2.70116 l 12.7225,-28.59422 z m -47.11812,6.23892 c -1.31386,0.87537 -2.58129,1.79414 -3.78272,2.76166 -5.74325,-4.73596 -12.71497,-8.16011 -20.36247,-9.83714 l -4.12351,-7.15609 z"
         id="path20"
         inkscape:connector-curvature="0" />
      <path
         style="fill:#555753;fill-opacity:1;fill-rule:evenodd;stroke-width:1"
         d="m 460.82549,374.92676 c 0,-13.2287 -7.4489,-24.56522 -18.18438,-30.59217 2.52741,-3.39292 4.16297,-7.72658 4.16297,-12.4823 0,-10.80856 -7.852,-19.58077 -17.52675,-19.58077 -2.17274,0 -4.21341,0.41513 -6.13431,1.22348 -4.91458,-12.29279 -16.04757,-20.80412 -28.91928,-20.80412 -17.47771,0 -31.54801,15.71939 -31.54801,35.24534 v 70.48751 c 0,19.52592 14.0703,35.24534 31.54801,35.24534 13.84623,0 25.52593,-9.93137 29.79547,-23.73967 0.59529,0 1.14617,0.24275 1.75215,0.24275 19.34972,0 35.05362,-15.78987 35.05362,-35.24536 z"
         id="path22"
         inkscape:connector-curvature="0" />
      <rect
         style="fill:none;stroke:#4d4d4d;stroke-width:24.31054306;stroke-miterlimit:4;stroke-dasharray:none"
         id="rect3782"
         width="224.62943"
         height="224.62943"
         x="-547.86859"
         y="234.28745"
         ry="17.521431"
         transform="scale(-1,1)"
         rx="17.521431" />
      <rect
         style="fill:#4d4d4d;fill-opacity:1;stroke:#4d4d4d;stroke-width:7.32186937;stroke-linecap:round;stroke-linejoin:miter;stroke-miterlimit:4;stroke-dasharray:none;stroke-dashoffset:0;stroke-opacity:1"
         id="rect3089"
         width="228.38771"
         height="24.862053"
         x="-461.62292"
         y="-350.37552"
         transform="matrix(0,-1,-1,0,0,0)"
         ry="5.4269609"
         rx="1.1632239" />
      <path
         style="color:#000000;display:inline;overflow:visible;visibility:visible;fill:#4d4d4d;fill-opacity:1;fill-rule:nonzero;stroke:none;stroke-width:4.86210871;marker:none;enable-background:accumulate"
         d="M 561.07372,1.2418951 H 323.92437 V -162.93848 -172.0596 l 63.8479,-63.84785 h 9.12113 164.18032 z M 533.1074,-26.724475 V -207.94109 h -136.214 v 45.00261 h -45.00262 v 136.214005 z"
         id="path5289"
         inkscape:connector-curvature="0"
         sodipodi:nodetypes="ccccccccccccccc" />
    </g>
  </g>
</svg>
