<?xml version="1.0" encoding="UTF-8" standalone="no"?>
<!-- Created with Inkscape (http://www.inkscape.org/) -->

<svg
   xmlns:dc="http://purl.org/dc/elements/1.1/"
   xmlns:cc="http://creativecommons.org/ns#"
   xmlns:rdf="http://www.w3.org/1999/02/22-rdf-syntax-ns#"
   xmlns:svg="http://www.w3.org/2000/svg"
   xmlns="http://www.w3.org/2000/svg"
   xmlns:sodipodi="http://sodipodi.sourceforge.net/DTD/sodipodi-0.dtd"
   xmlns:inkscape="http://www.inkscape.org/namespaces/inkscape"
   width="248"
   height="248"
   id="svg2"
   version="1.1"
   inkscape:version="0.48.4 r9939"
   sodipodi:docname="recharge.svg">
  <defs
     id="defs4" />
  <sodipodi:namedview
     id="base"
     pagecolor="#ffffff"
     bordercolor="#666666"
     borderopacity="1.0"
     inkscape:pageopacity="0.0"
     inkscape:pageshadow="2"
     inkscape:zoom="1.979899"
     inkscape:cx="211.5926"
     inkscape:cy="112.80647"
     inkscape:document-units="px"
     inkscape:current-layer="g3813"
     showgrid="false"
     inkscape:window-width="1535"
     inkscape:window-height="876"
     inkscape:window-x="65"
     inkscape:window-y="24"
     inkscape:window-maximized="1" />
  <metadata
     id="metadata7">
    <rdf:RDF>
      <cc:Work
         rdf:about="">
        <dc:format>image/svg+xml</dc:format>
        <dc:type
           rdf:resource="http://purl.org/dc/dcmitype/StillImage" />
        <dc:title />
      </cc:Work>
    </rdf:RDF>
  </metadata>
  <g
     inkscape:label="Layer 1"
     inkscape:groupmode="layer"
     id="layer1"
     transform="translate(0,-804.36218)">
    <g
       transform="matrix(2.9844762,0,0,-2.9844762,74.651886,839.13689)"
       id="g12">
      <rect
         y="-20.612423"
         x="-39.489506"
         height="63.591537"
         width="63.591537"
         id="rect5364"
         style="color:#000000;fill:none;stroke:none;stroke-width:7.5;marker:none;visibility:visible;display:inline;overflow:visible;enable-background:accumulate"
         transform="scale(1,-1)" />
      <rect
         transform="scale(-1,-1)"
         y="-20.612423"
         x="-24.10203"
         height="63.591537"
         width="63.591537"
         id="rect5374"
         style="color:#000000;fill:none;stroke:none;stroke-width:6;marker:none;visibility:visible;display:inline;overflow:visible;enable-background:accumulate" />
      <g
         id="g3813"
         transform="translate(-0.16923448,0)">
        <path
           sodipodi:nodetypes="ccsssccc"
           inkscape:transform-center-y="16.160791"
           inkscape:transform-center-x="-17.687752"
           inkscape:connector-curvature="0"
           id="path2194-7"
           d="m 8.2705674,-27.930727 c 0,0 -3.9175638,-16.515792 -11.1006568,-31.625034 -0.00444,-0.0018 -0.00848,0.0012 -0.011119,0.0019 -0.00584,3.55e-4 -0.00736,0.0035 -0.01237,0.0053 -0.00792,0.0025 -0.00973,0.0044 -0.01237,0.0053 -0.0082,0.0022 -0.0082,0.0022 -0.011119,0.0019 -12.3704196,12.403658 -21.2247856,25.877954 -21.2247856,25.877954 z"
           style="color:#000000;fill:#4d4d4d;fill-opacity:1;fill-rule:nonzero;stroke:none;stroke-width:3;marker:none;visibility:visible;display:inline;overflow:visible;enable-background:accumulate" />
        <path
           style="font-size:medium;font-style:normal;font-variant:normal;font-weight:normal;font-stretch:normal;text-indent:0;text-align:start;text-decoration:none;line-height:normal;letter-spacing:normal;word-spacing:normal;text-transform:none;direction:ltr;block-progression:tb;writing-mode:lr-tb;text-anchor:start;baseline-shift:baseline;color:#000000;fill:#4d4d4d;fill-opacity:1;stroke:none;stroke-width:15;marker:none;visibility:visible;display:inline;overflow:visible;enable-background:accumulate;font-family:Sans;-inkscape-font-specification:Sans"
           d="M 21.33161,7.5035423 C 18.911853,7.5528403 16.433794,7.3767521 13.966369,6.9204607 -5.7730265,3.2701098 -18.930136,-15.8744 -15.279775,-35.613806 l 1.319606,-7.242486 14.48497342,2.669899 -1.31960566,7.242487 C -2.9975091,-21.03271 4.7250835,-9.7672111 16.636269,-7.5645131 28.547444,-5.3618052 39.81296,-13.115086 42.015661,-25.026272 c 2.202702,-11.911185 -5.519892,-23.176694 -17.43107,-25.379392 -4.154113,-0.768205 -8.468269,-0.306159 -12.367467,1.319605 l -3.9897901,1.723319 -5.6773732,-13.595007 4.020479,-1.723319 c 6.5354433,-2.724933 13.7213263,-3.497173 20.6840513,-2.209572 19.739398,3.650351 32.896495,22.794871 29.246144,42.534266 C 53.306578,-5.0844008 38.269883,7.1584267 21.33161,7.5035423 z"
           id="path3007"
           inkscape:connector-curvature="0"
           sodipodi:nodetypes="ssccccsssccccsss" />
        <path
           inkscape:transform-center-y="48.694071"
           inkscape:connector-curvature="0"
           id="path4253"
           d="m 20.158657,-41.191785 c -4.035461,0 -7.306903,3.270047 -7.306903,7.303903 0,0.800989 0.135108,1.569429 0.373438,2.290542 0.02433,0.07328 0.04364,0.148976 0.06999,0.221338 0.18605,0.615602 2.913832,9.56214 6.870971,17.58513 0,0 0,-5.45e-4 0,-0.0021 0,-5.47e-4 0,-0.0024 0,-0.0029 0,-0.0012 0,-0.0027 0,-0.0029 0,-8.76e-4 0,-0.0021 0,-0.0021 4.228011,-8.762517 6.915611,-17.794469 6.915611,-17.794469 l 0,0 c 0.238013,-0.720695 0.368671,-1.490068 0.368671,-2.290514 0,-4.033886 -3.271346,-7.303902 -7.306803,-7.303902 z"
           style="color:#000000;fill:#4d4d4d;fill-opacity:1;fill-rule:nonzero;stroke:none;stroke-width:3;marker:none;visibility:visible;display:inline;overflow:visible;enable-background:accumulate" />
      </g>
    </g>
  </g>
</svg>
