<?xml version="1.0" encoding="UTF-8" standalone="no"?>
<!-- Created with Inkscape (http://www.inkscape.org/) -->

<svg
   xmlns:dc="http://purl.org/dc/elements/1.1/"
   xmlns:cc="http://creativecommons.org/ns#"
   xmlns:rdf="http://www.w3.org/1999/02/22-rdf-syntax-ns#"
   xmlns:svg="http://www.w3.org/2000/svg"
   xmlns="http://www.w3.org/2000/svg"
   xmlns:sodipodi="http://sodipodi.sourceforge.net/DTD/sodipodi-0.dtd"
   xmlns:inkscape="http://www.inkscape.org/namespaces/inkscape"
   id="svg2"
   version="1.1"
   inkscape:version="0.92.2 (5c3e80d, 2017-08-06)"
   width="256"
   height="256"
   sodipodi:docname="save.svg"
   inkscape:export-filename="C:\Users\jsgosselin\OneDrive\GWHAT\docs\img\icon_save.png"
   inkscape:export-xdpi="96"
   inkscape:export-ydpi="96">
  <metadata
     id="metadata8">
    <rdf:RDF>
      <cc:Work
         rdf:about="">
        <dc:format>image/svg+xml</dc:format>
        <dc:type
           rdf:resource="http://purl.org/dc/dcmitype/StillImage" />
        <dc:title />
      </cc:Work>
    </rdf:RDF>
  </metadata>
  <defs
     id="defs6" />
  <sodipodi:namedview
     pagecolor="#ffffff"
     bordercolor="#666666"
     borderopacity="1"
     objecttolerance="10"
     gridtolerance="10"
     guidetolerance="10"
     inkscape:pageopacity="0"
     inkscape:pageshadow="2"
     inkscape:window-width="1600"
     inkscape:window-height="838"
     id="namedview4"
     showgrid="false"
     inkscape:zoom="1.3409091"
     inkscape:cx="127.33721"
     inkscape:cy="153.90643"
     inkscape:window-x="-8"
     inkscape:window-y="-8"
     inkscape:window-maximized="1"
     inkscape:current-layer="svg2"
     fit-margin-top="0"
     fit-margin-left="0"
     fit-margin-right="0"
     fit-margin-bottom="0" />
  <path
     style="fill:#4d4d4d;fill-opacity:1;stroke-width:1.03225815"
     d="M 38.749878,256 16,239.97188 0,223.94375 V 127.24077 30.537797 L 15.36,15.268893 30.720002,0 H 128 225.28001 l 15.36,15.268893 L 256,30.537797 v 97.689803 97.6898 l -19.2,15.84006 -18.77813,13.74324 c 0,-39.21089 -0.42189,-76.32495 -0.42189,-115.53584 H 128.7013 39.802625 C 40.687491,178.65914 39.669891,217.32108 38.749827,256 Z M 128,101.79262 h 89.60001 V 69.982432 38.172243 H 128 38.400001 v 31.810189 31.810188 z m 0,152.68893 H 64.000002 V 209.94727 165.41301 H 128 192 v 44.53426 44.53428 z m -25.6,-25.44816 h 12.80001 V 209.94727 190.86115 H 102.4 89.600005 v 19.08612 19.08612 z"
     id="path3181"
     inkscape:connector-curvature="0"
     sodipodi:nodetypes="cccccccccccccccccccccccccccccccccccccccccccccc"
     inkscape:export-xdpi="150"
     inkscape:export-ydpi="150" />
</svg>
