<?xml version="1.0" encoding="UTF-8" standalone="no"?>
<!-- Created with Inkscape (http://www.inkscape.org/) -->

<svg
   xmlns:dc="http://purl.org/dc/elements/1.1/"
   xmlns:cc="http://creativecommons.org/ns#"
   xmlns:rdf="http://www.w3.org/1999/02/22-rdf-syntax-ns#"
   xmlns:svg="http://www.w3.org/2000/svg"
   xmlns="http://www.w3.org/2000/svg"
   xmlns:xlink="http://www.w3.org/1999/xlink"
   xmlns:sodipodi="http://sodipodi.sourceforge.net/DTD/sodipodi-0.dtd"
   xmlns:inkscape="http://www.inkscape.org/namespaces/inkscape"
   width="256"
   height="256"
   id="svg4874"
   version="1.1"
   inkscape:version="0.92.2 (5c3e80d, 2017-08-06)"
   viewBox="0 0 256 256.00001"
   sodipodi:docname="show_meteo.svg"
   inkscape:export-filename="C:\Users\jsgosselin\gwhat\gwhat\ressources\icons_png\show_meteo.png"
   inkscape:export-xdpi="96"
   inkscape:export-ydpi="96">
  <defs
     id="defs4876">
    <linearGradient
       id="linearGradient4178-4"
       y2="173.88"
       xlink:href="#linearGradient4171-8"
       gradientUnits="userSpaceOnUse"
       x2="170.8"
       gradientTransform="matrix(1.0084,0,0,1.0084,-2.5546,-2)"
       y1="247.78999"
       x1="244.7" />
    <linearGradient
       id="linearGradient4171-8">
      <stop
         id="stop4173-2"
         style="stop-color:#045"
         offset="0" />
      <stop
         id="stop4176-5"
         style="stop-color:#045;stop-opacity:0"
         offset="1" />
    </linearGradient>
    <linearGradient
       id="linearGradient4190-6"
       y2="358"
       gradientUnits="userSpaceOnUse"
       x2="376"
       gradientTransform="matrix(1.0084,0,0,1.0084,-2.5546,-2)"
       y1="238"
       x1="256">
      <stop
         id="stop4186-77"
         style="stop-color:#fff"
         offset="0" />
      <stop
         id="stop4188-0"
         style="stop-color:#fff;stop-opacity:0"
         offset="1" />
    </linearGradient>
    <linearGradient
       id="linearGradient4247"
       y2="238"
       gradientUnits="userSpaceOnUse"
       x2="256"
       gradientTransform="matrix(0.40625,0,0,1.0756,238,-512)"
       y1="238">
      <stop
         id="stop4186-1"
         style="stop-color:#fff"
         offset="0" />
      <stop
         id="stop4188-9"
         style="stop-color:#fff;stop-opacity:0"
         offset="1" />
    </linearGradient>
    <linearGradient
       id="linearGradient4249"
       y2="238"
       xlink:href="#linearGradient4171-8"
       gradientUnits="userSpaceOnUse"
       x2="256"
       gradientTransform="matrix(0.40625,0,0,1.0756,-238,-512)"
       y1="238" />
    <linearGradient
       id="linearGradient3083">
      <stop
         id="stop3085"
         style="stop-color:#045"
         offset="0" />
      <stop
         id="stop3087"
         style="stop-color:#045;stop-opacity:0"
         offset="1" />
    </linearGradient>
    <linearGradient
       id="linearGradient4374"
       y2="451.66"
       gradientUnits="userSpaceOnUse"
       x2="273.45999"
       gradientTransform="translate(0,20)"
       y1="358.57001"
       x1="247.24001">
      <stop
         id="stop4370"
         style="stop-color:#fff"
         offset="0" />
      <stop
         id="stop4372"
         style="stop-color:#fff;stop-opacity:0"
         offset="1" />
    </linearGradient>
    <linearGradient
       id="linearGradient4912"
       y2="494"
       gradientUnits="userSpaceOnUse"
       x2="256"
       gradientTransform="matrix(1,0,0,1.0084,0,-2.1513)"
       y1="18"
       x1="256">
      <stop
         id="stop7539"
         style="stop-color:#247eca;stop-opacity:.99608"
         offset="0" />
      <stop
         id="stop7541"
         style="stop-color:#a1d4e2;stop-opacity:.99608"
         offset="1" />
    </linearGradient>
    <linearGradient
       inkscape:collect="always"
       xlink:href="#linearGradient4374"
       id="linearGradient3107"
       gradientUnits="userSpaceOnUse"
       gradientTransform="matrix(0.14206719,0,0,0.14206719,817.63348,-411.85308)"
       x1="247.24001"
       y1="358.57001"
       x2="273.45999"
       y2="451.66" />
    <linearGradient
       inkscape:collect="always"
       xlink:href="#linearGradient4374"
       id="linearGradient3025"
       gradientUnits="userSpaceOnUse"
       gradientTransform="matrix(0.14206719,0,0,0.14206719,818.00268,-403.68788)"
       x1="247.24001"
       y1="358.57001"
       x2="273.45999"
       y2="451.66" />
  </defs>
  <sodipodi:namedview
     id="base"
     pagecolor="#ffffff"
     bordercolor="#666666"
     borderopacity="1.0"
     inkscape:pageopacity="0.0"
     inkscape:pageshadow="2"
     inkscape:zoom="1.8007076"
     inkscape:cx="64.603967"
     inkscape:cy="133.53561"
     inkscape:document-units="px"
     inkscape:current-layer="g4845"
     showgrid="true"
     showborder="true"
     fit-margin-top="0"
     fit-margin-left="0"
     fit-margin-right="0"
     fit-margin-bottom="0"
     inkscape:snap-bbox="false"
     inkscape:bbox-paths="false"
     inkscape:bbox-nodes="false"
     inkscape:snap-bbox-edge-midpoints="false"
     inkscape:snap-bbox-midpoints="true"
     inkscape:object-paths="false"
     inkscape:snap-intersection-paths="false"
     inkscape:object-nodes="false"
     inkscape:snap-smooth-nodes="false"
     inkscape:snap-midpoints="false"
     inkscape:snap-object-midpoints="false"
     inkscape:snap-center="false"
     showguides="true"
     inkscape:guide-bbox="true"
     inkscape:window-width="1600"
     inkscape:window-height="838"
     inkscape:window-x="140"
     inkscape:window-y="1072"
     inkscape:window-maximized="1"
     inkscape:snap-nodes="false">
    <inkscape:grid
       type="xygrid"
       id="grid5451"
       empspacing="6"
       visible="true"
       enabled="true"
       snapvisiblegridlinesonly="true"
       originx="47.55054"
       originy="49.086571"
       spacingx="1"
       spacingy="1" />
  </sodipodi:namedview>
  <metadata
     id="metadata4879">
    <rdf:RDF>
      <cc:Work
         rdf:about="">
        <dc:format>image/svg+xml</dc:format>
        <dc:type
           rdf:resource="http://purl.org/dc/dcmitype/StillImage" />
        <dc:title></dc:title>
      </cc:Work>
    </rdf:RDF>
  </metadata>
  <g
     inkscape:label="Layer 1"
     inkscape:groupmode="layer"
     id="layer1"
     transform="translate(115.40769,32.408377)">
    <g
       transform="matrix(0,-1.0283604,-1.0283604,0,369.02424,543.498)"
       id="g4845"
       style="display:inline">
      <path
         style="fill:#555753;fill-opacity:1;stroke-width:1.29359698"
         d="m 547.3908,365.16936 -48.877,-1.85136 c 5.0564,-7.57971 8.34185,-16.02982 9.71735,-24.75955 l 39.15965,26.61096 z m -11.1233,-89.2726 -30.61383,33.46908 c -2.00631,-5.80646 -4.93475,-11.43458 -8.79395,-16.67584 -1.33417,-1.81027 -2.75393,-3.52527 -4.24551,-5.16315 z m -41.99917,53.74346 c -0.15305,15.62285 -8.04689,30.9395 -22.63307,40.54887 -1.20633,0.79439 -2.43306,1.52979 -3.68008,2.2164 -2.39734,-13.38241 -10.21167,-25.02716 -20.92376,-33.52123 -9.8e-4,0 9.9e-4,-0.0116 0,-0.0116 0.97888,-3.23768 1.53094,-6.65151 1.53094,-10.22189 0,-20.89011 -18.07663,-38.1668 -40.09683,-38.44964 0.90732,-0.68583 1.84533,-1.35744 2.81185,-1.99497 23.93603,-15.76922 56.85138,-10.21574 73.52255,12.42539 6.51213,8.84409 9.57321,18.99529 9.46947,29.01 z m -13.71488,99.41634 -18.13949,-23.36448 c 3.00561,-5.5153 5.03214,-11.5444 5.87198,-17.92752 3.35472,-1.37146 6.64298,-3.01199 9.80018,-4.94149 l 2.46634,46.23349 z M 463.53062,268.93434 c -7.84299,-2.55009 -16.14933,-3.74946 -24.45258,-3.49421 l 16.45779,-36.9894 z m -60.95185,8.07065 c -1.69961,1.13238 -3.33916,2.32089 -4.89332,3.57248 -7.42946,-6.12643 -16.44805,-10.5559 -26.34083,-12.72529 l -5.33416,-9.25711 z"
         id="path20"
         inkscape:connector-curvature="0" />
      <path
         style="fill:#555753;fill-opacity:1;fill-rule:evenodd;stroke-width:1.29359698"
         d="m 456.70061,389.54149 c 0,-17.11261 -9.63586,-31.77749 -23.52325,-39.57393 3.26945,-4.38907 5.3852,-9.99508 5.3852,-16.14707 0,-13.98192 -10.15732,-25.32962 -22.67254,-25.32962 -2.81065,0 -5.45045,0.53701 -7.93532,1.58268 -6.35749,-15.90191 -20.75909,-26.91214 -37.40989,-26.91214 -22.60912,0 -40.81042,20.33456 -40.81042,45.59327 v 91.18242 c 0,25.25867 18.2013,45.59327 40.81042,45.59327 17.91143,0 33.02025,-12.84719 38.54331,-30.70956 0.77008,0 1.48268,0.31402 2.26658,0.31402 25.03074,0 45.34526,-20.42573 45.34526,-45.59329 z"
         id="path22"
         inkscape:connector-curvature="0" />
      <path
         style="color:#000000;display:inline;overflow:visible;visibility:visible;fill:#4d4d4d;fill-opacity:1;fill-rule:nonzero;stroke:none;stroke-width:4.86210871;marker:none;enable-background:accumulate"
         d="M 561.07372,1.2418951 H 323.92437 V -162.93848 -172.0596 l 63.8479,-63.84785 h 9.12113 164.18032 z M 533.1074,-26.724475 V -207.94109 h -136.214 v 45.00261 h -45.00262 v 136.214005 z"
         id="path5289"
         inkscape:connector-curvature="0"
         sodipodi:nodetypes="ccccccccccccccc" />
    </g>
  </g>
</svg>
