<?xml version="1.0" encoding="UTF-8" standalone="no"?>
<!-- Created with Inkscape (http://www.inkscape.org/) -->

<svg
   xmlns:dc="http://purl.org/dc/elements/1.1/"
   xmlns:cc="http://creativecommons.org/ns#"
   xmlns:rdf="http://www.w3.org/1999/02/22-rdf-syntax-ns#"
   xmlns:svg="http://www.w3.org/2000/svg"
   xmlns="http://www.w3.org/2000/svg"
   xmlns:sodipodi="http://sodipodi.sourceforge.net/DTD/sodipodi-0.dtd"
   xmlns:inkscape="http://www.inkscape.org/namespaces/inkscape"
   width="256"
   height="256"
   id="svg4874"
   version="1.1"
   inkscape:version="0.92.2 (5c3e80d, 2017-08-06)"
   viewBox="0 0 256 256"
   sodipodi:docname="add2list.svg"
   inkscape:export-filename="C:\Users\jsgosselin\OneDrive\GWHAT\docs\img\icon_add_to_list.png"
   inkscape:export-xdpi="96"
   inkscape:export-ydpi="96">
  <defs
     id="defs4876" />
  <sodipodi:namedview
     id="base"
     pagecolor="#ffffff"
     bordercolor="#666666"
     borderopacity="1.0"
     inkscape:pageopacity="0.0"
     inkscape:pageshadow="2"
     inkscape:zoom="0.90035383"
     inkscape:cx="149.10929"
     inkscape:cy="132.39761"
     inkscape:document-units="px"
     inkscape:current-layer="g5283"
     showgrid="true"
     showborder="true"
     fit-margin-top="0"
     fit-margin-left="0"
     fit-margin-right="0"
     fit-margin-bottom="0"
     inkscape:snap-bbox="true"
     inkscape:bbox-paths="true"
     inkscape:bbox-nodes="true"
     inkscape:snap-bbox-edge-midpoints="true"
     inkscape:snap-bbox-midpoints="true"
     inkscape:object-paths="true"
     inkscape:snap-intersection-paths="true"
     inkscape:object-nodes="true"
     inkscape:snap-smooth-nodes="true"
     inkscape:snap-midpoints="true"
     inkscape:snap-object-midpoints="true"
     inkscape:snap-center="true"
     showguides="true"
     inkscape:guide-bbox="true"
     inkscape:window-width="1600"
     inkscape:window-height="838"
     inkscape:window-x="-8"
     inkscape:window-y="-8"
     inkscape:window-maximized="1">
    <inkscape:grid
       type="xygrid"
       id="grid5451"
       empspacing="6"
       visible="true"
       enabled="true"
       snapvisiblegridlinesonly="true"
       originx="-2.062506"
       originy="-2.0621149" />
    <sodipodi:guide
       orientation="0,1"
       position="177.93749,249.93788"
       id="guide3826"
       inkscape:locked="false" />
    <sodipodi:guide
       orientation="1,0"
       position="-0.062505999,174.93788"
       id="guide3828"
       inkscape:locked="false" />
    <sodipodi:guide
       orientation="0,1"
       position="143.57468,0.020399715"
       id="guide3830"
       inkscape:locked="false" />
    <sodipodi:guide
       orientation="1,0"
       position="243.93749,114.93788"
       id="guide3832"
       inkscape:locked="false" />
  </sodipodi:namedview>
  <metadata
     id="metadata4879">
    <rdf:RDF>
      <cc:Work
         rdf:about="">
        <dc:format>image/svg+xml</dc:format>
        <dc:type
           rdf:resource="http://purl.org/dc/dcmitype/StillImage" />
        <dc:title></dc:title>
      </cc:Work>
    </rdf:RDF>
  </metadata>
  <g
     inkscape:label="Layer 1"
     inkscape:groupmode="layer"
     id="layer1"
     transform="translate(65.79464,83.557084)">
    <g
       transform="matrix(0,-1,-1,0,373.50506,516.50504)"
       id="g4845"
       style="display:inline">
      <g
         id="g5283"
         transform="matrix(0,-1,-1,0,-293.63782,2219.3622)">
        <g
           id="g835">
          <path
             inkscape:connector-curvature="0"
             id="path5289"
             d="m 1780.0625,-893.69984 v 255.9995 h 157.7781 c -9.9635,-7.77532 -17.7718,-18.17589 -22.3664,-30.17934 h -105.24 V -863.5205 h 195.5911 v 105.26683 c 11.9924,4.59437 22.401,12.38096 30.1716,22.33927 v -157.78544 z"
             style="color:#000000;display:inline;overflow:visible;visibility:visible;fill:#4d4d4d;fill-opacity:1;fill-rule:nonzero;stroke:none;stroke-width:5.24791288;marker:none;enable-background:accumulate" />
          <rect
             y="-834.62299"
             x="1839.1244"
             height="19.692268"
             width="137.81079"
             id="rect5293"
             style="color:#000000;display:inline;overflow:visible;visibility:visible;fill:#4d4d4d;fill-opacity:1;fill-rule:nonzero;stroke:none;stroke-width:6.29749584;marker:none;enable-background:accumulate" />
          <rect
             style="color:#000000;display:inline;overflow:visible;visibility:visible;fill:#4d4d4d;fill-opacity:1;fill-rule:nonzero;stroke:none;stroke-width:6.29749584;marker:none;enable-background:accumulate"
             id="rect5295"
             width="137.81079"
             height="19.692268"
             x="1839.1244"
             y="-795.23846" />
          <rect
             y="-755.85388"
             x="1839.1244"
             height="19.692268"
             width="78.749023"
             id="rect5297"
             style="color:#000000;display:inline;overflow:visible;visibility:visible;fill:#4d4d4d;fill-opacity:1;fill-rule:nonzero;stroke:none;stroke-width:6.29749584;marker:none;enable-background:accumulate" />
          <path
             inkscape:connector-curvature="0"
             id="path3049-2"
             d="m 1975.5292,-638.76886 c -12.6512,-1.29373 -24.0383,-6.71858 -33.075,-15.75765 -21.1885,-21.19383 -21.4327,-54.75017 -0.5552,-76.31148 7.6536,-7.90402 17.0216,-13.10166 27.9756,-15.52083 4.5795,-1.01113 14.3032,-1.23799 19.2807,-0.4491 26.4572,4.19112 46.1312,27.21691 46.0999,53.95313 -0.035,17.05067 -8.0138,32.98971 -21.7218,43.31078 -10.868,8.18308 -24.7795,12.12711 -38.0042,10.77515 z m 11.2981,-34.82734 c 0,-8.97692 0.1275,-12.36213 0.4845,-12.71787 0.3557,-0.35753 3.7851,-0.48462 12.9165,-0.48462 h 12.4318 v -6.0561 -6.05609 h -12.1354 c -7.5935,0 -12.4282,-0.15977 -12.9165,-0.41929 -0.7462,-0.40154 -0.7809,-0.97278 -0.7809,-12.91953 v -12.50202 h -6.0546 -6.0546 v 12.67457 c 0,11.18555 -0.076,12.70366 -0.6385,12.91988 -0.3513,0.13846 -6.0726,0.24141 -12.7146,0.24141 h -12.0761 v 6.05042 6.05042 l 12.6139,0.10655 12.6137,0.10656 0.106,12.61704 0.106,12.61668 h 6.0488 6.0485 v -12.23324 z"
             style="fill:#4d4d4d;fill-opacity:1;stroke:#4d4d4d;stroke-width:1.6147598;stroke-linecap:square;stroke-linejoin:bevel;stroke-miterlimit:4;stroke-dasharray:none;stroke-dashoffset:0;stroke-opacity:1" />
        </g>
        <path
           style="color:#000000;display:inline;overflow:visible;visibility:visible;fill:#4d4d4d;fill-opacity:1;fill-rule:nonzero;stroke:none;stroke-width:5;marker:none;enable-background:accumulate"
           d="m 2184.0625,-796.39727 v 243.875 h 168.8366 9.3798 l 65.6586,-65.65866 v -9.3798 -168.83654 z m 28.7595,28.75945 h 186.356 v 140.07709 h -46.2789 v 46.27891 H 2212.822 Z"
           id="path5289-1"
           inkscape:connector-curvature="0"
           sodipodi:nodetypes="ccccccccccccccc" />
        <rect
           style="color:#000000;display:inline;overflow:visible;visibility:visible;fill:#4d4d4d;fill-opacity:1;fill-rule:nonzero;stroke:none;stroke-width:6;marker:none;enable-background:accumulate"
           id="rect5293-1"
           width="131.31725"
           height="18.759615"
           x="2240.3413"
           y="-740.11847" />
        <rect
           y="-702.59924"
           x="2240.3413"
           height="18.759615"
           width="131.31725"
           id="rect5295-8"
           style="color:#000000;display:inline;overflow:visible;visibility:visible;fill:#4d4d4d;fill-opacity:1;fill-rule:nonzero;stroke:none;stroke-width:6;marker:none;enable-background:accumulate" />
        <rect
           style="color:#000000;display:inline;overflow:visible;visibility:visible;fill:#4d4d4d;fill-opacity:1;fill-rule:nonzero;stroke:none;stroke-width:6;marker:none;enable-background:accumulate"
           id="rect5297-1"
           width="75.038429"
           height="18.759615"
           x="2240.3413"
           y="-665.07996" />
        <circle
           style="display:inline;fill:#ffffff;fill-opacity:1;stroke:#ffffff;stroke-width:10;stroke-linecap:square;stroke-linejoin:miter;stroke-miterlimit:4;stroke-dasharray:none;stroke-dashoffset:0;stroke-opacity:1"
           id="path3034"
           transform="matrix(0.95194497,0,0,0.95194497,2441.0521,-769.78924)"
           cx="-69"
           cy="173"
           r="63" />
        <path
           style="display:inline;fill:#4d4d4d;fill-opacity:1;stroke:#4d4d4d;stroke-width:1.53847802;stroke-linecap:square;stroke-linejoin:bevel;stroke-miterlimit:4;stroke-dasharray:none;stroke-dashoffset:0;stroke-opacity:1"
           d="m 2370.319,-553.54023 c -12.0551,-1.23246 -22.9057,-6.40038 -31.5166,-15.01134 -20.1901,-20.19007 -20.4228,-52.15713 -0.529,-72.69727 7.293,-7.52967 16.2195,-12.48114 26.6574,-14.78573 4.3637,-0.96325 13.6292,-1.17936 18.3722,-0.42784 25.2106,3.99262 43.9575,25.92788 43.9277,51.39784 -0.033,16.24312 -7.6362,31.42726 -20.6983,41.25952 -10.3559,7.79551 -23.6119,11.55275 -36.2134,10.26482 z m 10.7657,-33.17787 c 0,-8.55176 0.1215,-11.77664 0.4617,-12.11553 0.3389,-0.34059 3.6067,-0.46167 12.3079,-0.46167 h 11.846 v -5.76927 -5.76927 h -11.5636 c -7.2357,0 -11.8426,-0.1522 -12.3079,-0.39943 -0.711,-0.38252 -0.7441,-0.92671 -0.7441,-12.30764 v -11.90991 h -5.7693 -5.7693 v 12.07428 c 0,10.65579 -0.072,12.102 -0.6084,12.30798 -0.3348,0.1319 -5.7865,0.22998 -12.1155,0.22998 h -11.5071 v 5.76386 5.76386 l 12.0195,0.10151 12.0194,0.10151 0.101,12.01948 0.101,12.01914 h 5.7638 5.7635 v -11.65386 z"
           id="path3049-2-1"
           inkscape:connector-curvature="0" />
      </g>
    </g>
  </g>
</svg>
