<?xml version="1.0" encoding="UTF-8" standalone="no"?>
<!-- Created with Inkscape (http://www.inkscape.org/) -->

<svg
   xmlns:dc="http://purl.org/dc/elements/1.1/"
   xmlns:cc="http://creativecommons.org/ns#"
   xmlns:rdf="http://www.w3.org/1999/02/22-rdf-syntax-ns#"
   xmlns:svg="http://www.w3.org/2000/svg"
   xmlns="http://www.w3.org/2000/svg"
   xmlns:sodipodi="http://sodipodi.sourceforge.net/DTD/sodipodi-0.dtd"
   xmlns:inkscape="http://www.inkscape.org/namespaces/inkscape"
   width="248"
   height="248"
   id="svg4874"
   version="1.1"
   inkscape:version="0.48.4 r9939"
   viewBox="0 0 248 248"
   sodipodi:docname="add2list2.svg"
   inkscape:export-filename="/home/jsgosselin/Documents/Research/Hydrogeology/WHAT/WHAT/Icons/add2list.png"
   inkscape:export-xdpi="90"
   inkscape:export-ydpi="90">
  <defs
     id="defs4876" />
  <sodipodi:namedview
     id="base"
     pagecolor="#ffffff"
     bordercolor="#666666"
     borderopacity="1.0"
     inkscape:pageopacity="0.0"
     inkscape:pageshadow="2"
     inkscape:zoom="0.90035383"
     inkscape:cx="217.81227"
     inkscape:cy="46.71644"
     inkscape:document-units="px"
     inkscape:current-layer="g5283"
     showgrid="true"
     showborder="true"
     fit-margin-top="0"
     fit-margin-left="0"
     fit-margin-right="0"
     fit-margin-bottom="0"
     inkscape:snap-bbox="true"
     inkscape:bbox-paths="true"
     inkscape:bbox-nodes="true"
     inkscape:snap-bbox-edge-midpoints="true"
     inkscape:snap-bbox-midpoints="true"
     inkscape:object-paths="true"
     inkscape:snap-intersection-paths="true"
     inkscape:object-nodes="true"
     inkscape:snap-smooth-nodes="true"
     inkscape:snap-midpoints="true"
     inkscape:snap-object-midpoints="true"
     inkscape:snap-center="true"
     showguides="true"
     inkscape:guide-bbox="true"
     inkscape:window-width="1535"
     inkscape:window-height="876"
     inkscape:window-x="65"
     inkscape:window-y="24"
     inkscape:window-maximized="1">
    <inkscape:grid
       type="xygrid"
       id="grid5451"
       empspacing="6"
       visible="true"
       enabled="true"
       snapvisiblegridlinesonly="true" />
    <sodipodi:guide
       orientation="0,1"
       position="100,246"
       id="guide3826" />
    <sodipodi:guide
       orientation="1,0"
       position="2,177"
       id="guide3828" />
    <sodipodi:guide
       orientation="0,1"
       position="145.63719,2.0825146"
       id="guide3830" />
    <sodipodi:guide
       orientation="1,0"
       position="246,117"
       id="guide3832" />
  </sodipodi:namedview>
  <metadata
     id="metadata4879">
    <rdf:RDF>
      <cc:Work
         rdf:about="">
        <dc:format>image/svg+xml</dc:format>
        <dc:type
           rdf:resource="http://purl.org/dc/dcmitype/StillImage" />
        <dc:title></dc:title>
      </cc:Work>
    </rdf:RDF>
  </metadata>
  <g
     inkscape:label="Layer 1"
     inkscape:groupmode="layer"
     id="layer1"
     transform="translate(67.857146,73.494962)">
    <g
       transform="matrix(0,-1,-1,0,373.50506,516.50504)"
       id="g4845"
       style="display:inline">
      <g
         id="g5283"
         transform="matrix(0,-1,-1,0,-293.63782,2219.3622)">
        <path
           style="color:#000000;fill:#4d4d4d;fill-opacity:1;fill-rule:nonzero;stroke:none;stroke-width:5;marker:none;visibility:visible;display:inline;overflow:visible;enable-background:accumulate"
           d="M 2.0625 2.0625 L 2.0625 245.9375 L 152.40625 245.9375 C 142.91218 238.53044 135.47185 228.62245 131.09375 217.1875 L 30.8125 217.1875 L 30.8125 30.8125 L 217.1875 30.8125 L 217.1875 131.09375 C 228.61481 135.47052 238.533 142.88833 245.9375 152.375 L 245.9375 2.0625 L 2.0625 2.0625 z "
           id="path5289"
           transform="translate(1778,-883.63782)" />
        <rect
           style="color:#000000;fill:#4d4d4d;fill-opacity:1;fill-rule:nonzero;stroke:none;stroke-width:6;marker:none;visibility:visible;display:inline;overflow:visible;enable-background:accumulate"
           id="rect5293"
           width="131.31725"
           height="18.759615"
           x="1836.3414"
           y="-825.29645" />
        <rect
           y="-787.77722"
           x="1836.3414"
           height="18.759615"
           width="131.31725"
           id="rect5295"
           style="color:#000000;fill:#4d4d4d;fill-opacity:1;fill-rule:nonzero;stroke:none;stroke-width:6;marker:none;visibility:visible;display:inline;overflow:visible;enable-background:accumulate" />
        <rect
           style="color:#000000;fill:#4d4d4d;fill-opacity:1;fill-rule:nonzero;stroke:none;stroke-width:6;marker:none;visibility:visible;display:inline;overflow:visible;enable-background:accumulate"
           id="rect5297"
           width="75.038429"
           height="18.759615"
           x="1836.3414"
           y="-750.25793" />
        <path
           style="fill:#4d4d4d;fill-opacity:1;stroke:#4d4d4d;stroke-width:1.71417773;stroke-linecap:square;stroke-linejoin:bevel;stroke-miterlimit:4;stroke-opacity:1;stroke-dasharray:none;stroke-dashoffset:0"
           d="m 1568.0105,-605.60531 c -13.425,-1.37365 -25.5087,-7.13482 -35.0981,-16.73383 -22.4847,-22.50713 -22.7439,-58.14254 -0.5894,-81.03971 8.1219,-8.39418 18.0628,-13.91347 29.6871,-16.48262 4.8597,-1.07406 15.1779,-1.31477 20.4604,-0.47727 28.0755,4.45115 48.9531,28.90355 48.92,57.29638 -0.021,18.10728 -8.5043,35.03421 -23.0508,45.99479 -11.533,8.68983 -26.2953,12.8782 -40.3292,11.44226 l 0,0 z M 1580,-642.59058 c 0,-9.53275 0.1369,-13.12837 0.514,-13.50591 0.3775,-0.37789 4.0168,-0.51449 13.7066,-0.51449 l 13.1926,0 0,-6.43138 0,-6.43135 -12.8781,0 c -8.0581,0 -13.1882,-0.16622 -13.7066,-0.44388 -0.7917,-0.42412 -0.8285,-1.03307 -0.8285,-13.72023 l 0,-13.27643 -6.4249,0 -6.425,0 0,13.45998 c 0,11.87828 -0.08,13.49064 -0.6776,13.72027 -0.3726,0.14337 -6.4442,0.26013 -13.4924,0.26013 l -12.8149,0 0,6.42528 0,6.42528 13.3854,0.11331 13.3853,0.11332 0.1132,13.3987 0.1132,13.3987 6.4188,0 6.4189,0 0,-12.99139 z"
           id="path3049"
           inkscape:connector-curvature="0" />
        <path
           style="fill:#4d4d4d;fill-opacity:1;stroke:#4d4d4d;stroke-width:0.45488173;stroke-linecap:square;stroke-linejoin:bevel;stroke-miterlimit:4;stroke-opacity:1;stroke-dasharray:none;stroke-dashoffset:0"
           d="m 1663.3918,-655.87941 c -3.5642,-0.3644 -6.7724,-1.8924 -9.3184,-4.4384 -5.9696,-5.9696 -6.0384,-15.4213 -0.1565,-21.4944 2.1564,-2.2263 4.7956,-3.6903 7.8819,-4.3717 1.2902,-0.2848 4.0296,-0.3487 5.4321,-0.1265 7.454,1.1805 12.9969,7.6661 12.9881,15.1968 -0.01,4.8026 -2.2578,9.2921 -6.1199,12.1992 -3.0619,2.3049 -6.9813,3.4158 -10.7073,3.035 l 0,0 z m 3.1832,-9.8097 c 0,-2.5285 0.036,-3.482 0.1365,-3.5822 0.1002,-0.1007 1.0664,-0.1365 3.639,-0.1365 l 3.5026,0 0,-1.7058 0,-1.7058 -3.4191,0 c -2.1394,0 -3.5014,-0.045 -3.639,-0.1181 -0.2102,-0.1131 -0.22,-0.274 -0.22,-3.639 l 0,-3.5214 -1.7058,0 -1.7058,0 0,3.57 c 0,3.1506 -0.021,3.5782 -0.1799,3.6391 -0.099,0.039 -1.7109,0.068 -3.5822,0.068 l -3.4023,0 0,1.7042 0,1.7042 3.5538,0.03 3.5537,0.03 0.03,3.5538 0.03,3.5537 1.7042,0 1.7042,0 0,-3.4457 z"
           id="path3049-3"
           inkscape:connector-curvature="0" />
        <rect
           style="color:#000000;fill:none;stroke:none;stroke-width:7.5;marker:none;visibility:visible;display:inline;overflow:visible;enable-background:accumulate"
           id="rect4198"
           width="238.0896"
           height="238.0896"
           x="1490.1997"
           y="-962.31421" />
        <path
           style="fill:#4d4d4d;fill-opacity:1;stroke:#4d4d4d;stroke-width:1.53847802;stroke-linecap:square;stroke-linejoin:bevel;stroke-miterlimit:4;stroke-opacity:1;stroke-dasharray:none;stroke-dashoffset:0"
           d="m 1966.319,-638.71823 c -12.0551,-1.23246 -22.9057,-6.40038 -31.5166,-15.01134 -20.1901,-20.19007 -20.4228,-52.15713 -0.529,-72.69727 7.293,-7.52967 16.2195,-12.48114 26.6574,-14.78573 4.3637,-0.96325 13.6292,-1.17936 18.3722,-0.42784 25.2106,3.99262 43.9575,25.92788 43.9277,51.39784 -0.033,16.24312 -7.6362,31.42726 -20.6983,41.25952 -10.3559,7.79551 -23.6119,11.55275 -36.2134,10.26482 l 0,0 z m 10.7657,-33.17787 c 0,-8.55176 0.1215,-11.77664 0.4617,-12.11553 0.3389,-0.34059 3.6067,-0.46167 12.3079,-0.46167 l 11.846,0 0,-5.76927 0,-5.76927 -11.5636,0 c -7.2357,0 -11.8426,-0.1522 -12.3079,-0.39943 -0.711,-0.38252 -0.7441,-0.92671 -0.7441,-12.30764 l 0,-11.90991 -5.7693,0 -5.7693,0 0,12.07428 c 0,10.65579 -0.072,12.102 -0.6084,12.30798 -0.3348,0.1319 -5.7865,0.22998 -12.1155,0.22998 l -11.5071,0 0,5.76386 0,5.76386 12.0195,0.10151 12.0194,0.10151 0.101,12.01948 0.101,12.01914 5.7638,0 5.7635,0 0,-11.65386 z"
           id="path3049-2"
           inkscape:connector-curvature="0" />
        <g
           transform="matrix(2.6454413,0,0,2.6454413,1500.7522,-3501.1046)"
           id="g2989">
          <path
             id="path4157-8"
             d="m 14.942852,1010.6204 a 2.6452116,2.6344441 45 0 0 -4.192087,1.2857 l -10.61999287,31.9717 a 2.6452116,2.6344441 45 0 0 3.35369047,3.3535 l 31.9717214,-10.6198 a 2.6452116,2.6344441 45 0 0 1.061987,-4.4158 l -0.726628,-0.7266 -21.854793,7.3222 -5.365894,-5.366 7.322214,-21.8547 -0.726628,-0.7267 a 2.6452116,2.6344441 45 0 0 -0.223537,-0.223 z"
             style="fill:#4d4d4d;fill-opacity:1;stroke:none"
             inkscape:connector-curvature="0" />
          <path
             id="rect4148-9"
             d="m 72.011262,968.08465 c -7.654068,-7.40964 -10.005134,-7.76937 -17.830386,0.0558 l -42.927073,42.92695 3.577254,3.5775 c 2.96359,-2.9637 6.567073,-4.1647 8.048841,-2.683 1.481768,1.4816 0.280643,5.0852 -2.682947,8.0489 2.96359,-2.9637 6.967448,-3.7643 8.943148,-1.7887 1.975673,1.9757 1.174949,5.9797 -1.78864,8.9432 2.963589,-2.9635 6.567046,-4.1649 8.048841,-2.683 1.481768,1.4817 0.280616,5.0854 -2.682946,8.0487 l 3.577253,3.5773 42.927073,-42.92693 c 8.943149,-8.94307 7.154508,-10.7319 -3.577254,-21.46352 -1.341487,-1.34149 -2.539294,-2.57519 -3.633164,-3.63314 z"
             style="color:#000000;fill:#4d4d4d;fill-opacity:1;stroke:none;stroke-width:7.5;marker:none;visibility:visible;display:inline;overflow:visible;enable-background:accumulate"
             inkscape:connector-curvature="0" />
        </g>
        <path
           style="color:#000000;fill:#4d4d4d;fill-opacity:1;fill-rule:nonzero;stroke:none;stroke-width:5;marker:none;visibility:visible;display:inline;overflow:visible;enable-background:accumulate"
           d="m 2184.0625,-796.39727 0,243.875 168.8366,0 9.3798,0 65.6586,-65.65866 0,-9.3798 0,-168.83654 z m 28.7595,28.75945 186.356,0 0,140.07709 -46.2789,0 0,46.27891 -140.0771,0 z"
           id="path5289-1"
           inkscape:connector-curvature="0"
           sodipodi:nodetypes="ccccccccccccccc" />
        <rect
           style="color:#000000;fill:#4d4d4d;fill-opacity:1;fill-rule:nonzero;stroke:none;stroke-width:6;marker:none;visibility:visible;display:inline;overflow:visible;enable-background:accumulate"
           id="rect5293-1"
           width="131.31725"
           height="18.759615"
           x="2240.3413"
           y="-740.11847" />
        <rect
           y="-702.59924"
           x="2240.3413"
           height="18.759615"
           width="131.31725"
           id="rect5295-8"
           style="color:#000000;fill:#4d4d4d;fill-opacity:1;fill-rule:nonzero;stroke:none;stroke-width:6;marker:none;visibility:visible;display:inline;overflow:visible;enable-background:accumulate" />
        <rect
           style="color:#000000;fill:#4d4d4d;fill-opacity:1;fill-rule:nonzero;stroke:none;stroke-width:6;marker:none;visibility:visible;display:inline;overflow:visible;enable-background:accumulate"
           id="rect5297-1"
           width="75.038429"
           height="18.759615"
           x="2240.3413"
           y="-665.07996" />
        <path
           sodipodi:type="arc"
           style="fill:#ffffff;fill-opacity:1;stroke:#ffffff;stroke-width:10;stroke-linecap:square;stroke-linejoin:miter;stroke-miterlimit:4;stroke-opacity:1;stroke-dasharray:none;stroke-dashoffset:0;display:inline"
           id="path3034"
           sodipodi:cx="-69"
           sodipodi:cy="173"
           sodipodi:rx="63"
           sodipodi:ry="63"
           d="m -6,173 a 63,63 0 1 1 -126,0 63,63 0 1 1 126,0 z"
           transform="matrix(0.95194497,0,0,0.95194497,2441.0521,-769.78924)" />
        <path
           style="fill:#4d4d4d;fill-opacity:1;stroke:#4d4d4d;stroke-width:1.53847802;stroke-linecap:square;stroke-linejoin:bevel;stroke-miterlimit:4;stroke-opacity:1;stroke-dasharray:none;stroke-dashoffset:0;display:inline"
           d="m 2370.319,-553.54023 c -12.0551,-1.23246 -22.9057,-6.40038 -31.5166,-15.01134 -20.1901,-20.19007 -20.4228,-52.15713 -0.529,-72.69727 7.293,-7.52967 16.2195,-12.48114 26.6574,-14.78573 4.3637,-0.96325 13.6292,-1.17936 18.3722,-0.42784 25.2106,3.99262 43.9575,25.92788 43.9277,51.39784 -0.033,16.24312 -7.6362,31.42726 -20.6983,41.25952 -10.3559,7.79551 -23.6119,11.55275 -36.2134,10.26482 l 0,0 z m 10.7657,-33.17787 c 0,-8.55176 0.1215,-11.77664 0.4617,-12.11553 0.3389,-0.34059 3.6067,-0.46167 12.3079,-0.46167 l 11.846,0 0,-5.76927 0,-5.76927 -11.5636,0 c -7.2357,0 -11.8426,-0.1522 -12.3079,-0.39943 -0.711,-0.38252 -0.7441,-0.92671 -0.7441,-12.30764 l 0,-11.90991 -5.7693,0 -5.7693,0 0,12.07428 c 0,10.65579 -0.072,12.102 -0.6084,12.30798 -0.3348,0.1319 -5.7865,0.22998 -12.1155,0.22998 l -11.5071,0 0,5.76386 0,5.76386 12.0195,0.10151 12.0194,0.10151 0.101,12.01948 0.101,12.01914 5.7638,0 5.7635,0 0,-11.65386 z"
           id="path3049-2-1"
           inkscape:connector-curvature="0" />
      </g>
    </g>
  </g>
</svg>
