<?xml version="1.0" encoding="UTF-8" standalone="no"?>
<!-- Created with Inkscape (http://www.inkscape.org/) -->

<svg
   xmlns:dc="http://purl.org/dc/elements/1.1/"
   xmlns:cc="http://creativecommons.org/ns#"
   xmlns:rdf="http://www.w3.org/1999/02/22-rdf-syntax-ns#"
   xmlns:svg="http://www.w3.org/2000/svg"
   xmlns="http://www.w3.org/2000/svg"
   xmlns:sodipodi="http://sodipodi.sourceforge.net/DTD/sodipodi-0.dtd"
   xmlns:inkscape="http://www.inkscape.org/namespaces/inkscape"
   id="svg7384"
   height="256"
   width="256"
   version="1.1"
   inkscape:version="0.92.2 (5c3e80d, 2017-08-06)"
   sodipodi:docname="folder.svg"
   inkscape:export-filename="C:\Users\jsgosselin\OneDrive\GWHAT\docs\img\icon_folder.png"
   inkscape:export-xdpi="96"
   inkscape:export-ydpi="96">
  <defs
     id="defs10" />
  <sodipodi:namedview
     pagecolor="#ffffff"
     bordercolor="#666666"
     borderopacity="1"
     objecttolerance="10"
     gridtolerance="10"
     guidetolerance="10"
     inkscape:pageopacity="0"
     inkscape:pageshadow="2"
     inkscape:window-width="1600"
     inkscape:window-height="838"
     id="namedview8"
     showgrid="false"
     inkscape:zoom="1.84375"
     inkscape:cx="147.38991"
     inkscape:cy="143.12846"
     inkscape:window-x="-8"
     inkscape:window-y="-8"
     inkscape:window-maximized="1"
     inkscape:current-layer="g14154"
     fit-margin-top="0"
     fit-margin-left="0"
     fit-margin-right="0"
     fit-margin-bottom="0" />
  <metadata
     id="metadata90">
    <rdf:RDF>
      <cc:Work
         rdf:about="">
        <dc:format>image/svg+xml</dc:format>
        <dc:type
           rdf:resource="http://purl.org/dc/dcmitype/StillImage" />
        <dc:title>Gnome Symbolic Icon Theme</dc:title>
      </cc:Work>
    </rdf:RDF>
  </metadata>
  <title
     id="title9167">Gnome Symbolic Icon Theme</title>
  <g
     id="layer13"
     transform="matrix(12.027934,0,0,12.027934,-5316.3318,-2053.3682)"
     style="fill:#4d4d4d">
    <g
       id="g14154"
       transform="translate(234,-820)"
       style="fill:#4d4d4d">
      <path
         id="rect3845"
         style="fill:#4d4d4d;stroke-width:1.33019519"
         d="m 208.70542,991.91609 c -0.3846,0 -0.70667,0.45292 -0.70667,0.83752 v 18.54019 c 0,0.3971 0.30946,0.7066 0.70667,0.7066 h 19.87045 c 0.3972,0 0.70667,-0.3094 0.70667,-0.7066 v -11.88862 c 0,-0.38456 -0.32207,-0.70673 -0.70667,-0.70673 h -16.5862 v 9.97645 c 0,0.3686 -0.29664,0.6651 -0.6651,0.6651 -0.36846,0 -0.6651,-0.2965 -0.6651,-0.6651 v -10.64155 c 0,-0.36846 0.29664,-0.6651 0.6651,-0.6651 h 3.94908 11.34817 v -1.87045 c 0,-0.43524 -0.35471,-0.78987 -0.78981,-0.78987 h -9.85169 v -1.95379 c 0,-0.51878 -0.31925,-0.83805 -0.705,-0.83805 z"
         inkscape:connector-curvature="0"
         sodipodi:nodetypes="cssssssscsssssccsscscc" />
    </g>
  </g>
</svg>
