<?xml version="1.0" encoding="UTF-8" standalone="no"?>
<!-- Created with Inkscape (http://www.inkscape.org/) -->

<svg
   xmlns:dc="http://purl.org/dc/elements/1.1/"
   xmlns:cc="http://creativecommons.org/ns#"
   xmlns:rdf="http://www.w3.org/1999/02/22-rdf-syntax-ns#"
   xmlns:svg="http://www.w3.org/2000/svg"
   xmlns="http://www.w3.org/2000/svg"
   xmlns:sodipodi="http://sodipodi.sourceforge.net/DTD/sodipodi-0.dtd"
   xmlns:inkscape="http://www.inkscape.org/namespaces/inkscape"
   id="svg7384"
   height="256"
   width="256"
   version="1.1"
   inkscape:version="0.92.2 (5c3e80d, 2017-08-06)"
   sodipodi:docname="open_project.svg">
  <defs
     id="defs10" />
  <sodipodi:namedview
     pagecolor="#ffffff"
     bordercolor="#666666"
     borderopacity="1"
     objecttolerance="10"
     gridtolerance="10"
     guidetolerance="10"
     inkscape:pageopacity="0"
     inkscape:pageshadow="2"
     inkscape:window-width="1600"
     inkscape:window-height="838"
     id="namedview8"
     showgrid="false"
     inkscape:zoom="0.921875"
     inkscape:cx="181.31933"
     inkscape:cy="106.38029"
     inkscape:window-x="-8"
     inkscape:window-y="-8"
     inkscape:window-maximized="1"
     inkscape:current-layer="svg7384"
     fit-margin-top="0"
     fit-margin-left="0"
     fit-margin-right="0"
     fit-margin-bottom="0"
     showguides="true"
     inkscape:guide-bbox="true">
    <sodipodi:guide
       orientation="0,1"
       position="268.22086,279.86441"
       id="guide3796"
       inkscape:locked="false" />
    <sodipodi:guide
       orientation="0,1"
       position="-129.09292,432.48312"
       id="guide3798"
       inkscape:locked="false" />
  </sodipodi:namedview>
  <metadata
     id="metadata90">
    <rdf:RDF>
      <cc:Work
         rdf:about="">
        <dc:format>image/svg+xml</dc:format>
        <dc:type
           rdf:resource="http://purl.org/dc/dcmitype/StillImage" />
        <dc:title>Gnome Symbolic Icon Theme</dc:title>
      </cc:Work>
    </rdf:RDF>
  </metadata>
  <title
     id="title9167">Gnome Symbolic Icon Theme</title>
  <path
     style="fill:#4d4d4d"
     d="M 8.500001,14.374998 C 3.87408,14.374998 0,18.249068 0,22.874998 L 0,247.46875 c 0,4.77586 3.7224,8.5 8.500001,8.5 l 135.374999,0 c -9.95278,-13.37748 -15.8125,-29.98228 -15.8125,-47.9375 0,-44.37415 35.9696,-80.34375 80.34375,-80.34375 17.81906,0 34.26962,5.80895 47.59375,15.625 l 0,-38.84375 c 0,-4.625443 -3.87408,-8.500003 -8.5,-8.500003 l -199.499999,0 0,120.000003 c 0,4.43346 -3.56814,8 -8,8 -4.43185,0 -8,-3.56654 -8,-8 l 0,-128.000003 c 0,-4.43186 3.56815,-8 8,-8 l 47.5,0 136.499999,0 0,-22.5 c 0,-5.23504 -4.26673,-9.5 -9.5,-9.5 l -118.499999,0 0,-23.499999 c 0,-6.2398 -3.8289,-10.0625 -8.46875,-10.0625 l -79.03125,-0.0312 z M 207.6875,156 l -48.5625,55.625 23.5625,0 0,44.375 50.15625,0 0,-44.375 23.125,0 L 207.6875,156 z"
     id="rect3845-7"
     inkscape:connector-curvature="0" />
</svg>
