<?xml version="1.0" encoding="UTF-8" standalone="no"?>
<!-- Created with Inkscape (http://www.inkscape.org/) -->

<svg
   xmlns:dc="http://purl.org/dc/elements/1.1/"
   xmlns:cc="http://creativecommons.org/ns#"
   xmlns:rdf="http://www.w3.org/1999/02/22-rdf-syntax-ns#"
   xmlns:svg="http://www.w3.org/2000/svg"
   xmlns="http://www.w3.org/2000/svg"
   xmlns:sodipodi="http://sodipodi.sourceforge.net/DTD/sodipodi-0.dtd"
   xmlns:inkscape="http://www.inkscape.org/namespaces/inkscape"
   id="svg7384"
   height="256"
   width="256"
   version="1.1"
   inkscape:version="0.92.2 (5c3e80d, 2017-08-06)"
   sodipodi:docname="open_file.svg"
   inkscape:export-filename="/home/jsgosselin/Documents/Research/Hydrogeology/WHAT/WHAT/Icons/open_file.png"
   inkscape:export-xdpi="90"
   inkscape:export-ydpi="90">
  <defs
     id="defs10" />
  <sodipodi:namedview
     pagecolor="#ffffff"
     bordercolor="#666666"
     borderopacity="1"
     objecttolerance="10"
     gridtolerance="10"
     guidetolerance="10"
     inkscape:pageopacity="0"
     inkscape:pageshadow="2"
     inkscape:window-width="1600"
     inkscape:window-height="838"
     id="namedview8"
     showgrid="false"
     inkscape:zoom="1.3037281"
     inkscape:cx="151.44042"
     inkscape:cy="123.52037"
     inkscape:window-x="-8"
     inkscape:window-y="-8"
     inkscape:window-maximized="1"
     inkscape:current-layer="svg7384"
     fit-margin-top="0"
     fit-margin-left="0"
     fit-margin-right="0"
     fit-margin-bottom="0" />
  <metadata
     id="metadata90">
    <rdf:RDF>
      <cc:Work
         rdf:about="">
        <dc:format>image/svg+xml</dc:format>
        <dc:type
           rdf:resource="http://purl.org/dc/dcmitype/StillImage" />
        <dc:title>Gnome Symbolic Icon Theme</dc:title>
      </cc:Work>
    </rdf:RDF>
  </metadata>
  <title
     id="title9167">Gnome Symbolic Icon Theme</title>
  <g
     id="layer12"
     transform="matrix(16.0005,0,0,17.06587,-2560.06,-11041.606)"
     style="fill:#4d4d4d">
    <path
       id="rect3845-5-8"
       style="fill:#4d4d4d"
       d="m 160.53,651 c -0.28913,0 -0.53125,0.2421 -0.53125,0.5313 v 9.9375 c 0,0.2985 0.23264,0.5312 0.53125,0.5312 h 13.812 c 0.2986,0 0.53125,-0.2326 0.53125,-0.5312 l 1.125,-4.9159 c 0,-0.2891 -0.24212,-0.5312 -0.53125,-0.5312 h -11.594 l -0.875,3.4783 c 0,0.277 -0.223,0.5 -0.5,0.5 -0.277,0 -0.5,-0.223 -0.5,-0.5 v -4.9966 c 0,-0.277 0.223,-0.5 0.5,-0.5 h 0.46615 V 651 Z"
       inkscape:connector-curvature="0" />
    <path
       id="path1234-3"
       style="color:#000000;text-indent:0;text-transform:none;fill:#4d4d4d"
       d="m 164.81,647 c -0.4584,0.0875 -0.82072,0.5334 -0.8125,1 v 7 h 2 v -6 h 4 v 3 h 3 v 3 h 2 v -3.4375 c 0.006,-0.2641 -0.0976,-0.529 -0.28125,-0.7188 l -3.5625,-3.5624 c -0.18978,-0.1837 -0.45469,-0.28737 -0.71875,-0.28125 h -5.4375 c -0.0312,-10e-4 -0.0625,-10e-4 -0.0937,0 -0.0312,-10e-4 -0.0625,-10e-4 -0.0937,0 z"
       inkscape:connector-curvature="0" />
  </g>
</svg>
