<?xml version="1.0" encoding="UTF-8" standalone="no"?>
<!-- Created with Inkscape (http://www.inkscape.org/) -->

<svg
   xmlns:dc="http://purl.org/dc/elements/1.1/"
   xmlns:cc="http://creativecommons.org/ns#"
   xmlns:rdf="http://www.w3.org/1999/02/22-rdf-syntax-ns#"
   xmlns:svg="http://www.w3.org/2000/svg"
   xmlns="http://www.w3.org/2000/svg"
   xmlns:sodipodi="http://sodipodi.sourceforge.net/DTD/sodipodi-0.dtd"
   xmlns:inkscape="http://www.inkscape.org/namespaces/inkscape"
   id="svg2"
   version="1.1"
   inkscape:version="0.92.1 r15371"
   width="264.53333"
   height="264.53333"
   sodipodi:docname="save.svg">
  <metadata
     id="metadata8">
    <rdf:RDF>
      <cc:Work
         rdf:about="">
        <dc:format>image/svg+xml</dc:format>
        <dc:type
           rdf:resource="http://purl.org/dc/dcmitype/StillImage" />
        <dc:title />
      </cc:Work>
    </rdf:RDF>
  </metadata>
  <defs
     id="defs6" />
  <sodipodi:namedview
     pagecolor="#ffffff"
     bordercolor="#666666"
     borderopacity="1"
     objecttolerance="10"
     gridtolerance="10"
     guidetolerance="10"
     inkscape:pageopacity="0"
     inkscape:pageshadow="2"
     inkscape:window-width="1600"
     inkscape:window-height="838"
     id="namedview4"
     showgrid="false"
     inkscape:zoom="1.3409091"
     inkscape:cx="-41.95092"
     inkscape:cy="142.71998"
     inkscape:window-x="-8"
     inkscape:window-y="-8"
     inkscape:window-maximized="1"
     inkscape:current-layer="svg2"
     fit-margin-top="0"
     fit-margin-left="0"
     fit-margin-right="0"
     fit-margin-bottom="0" />
  <path
     style="fill:#4d4d4d;fill-opacity:1;stroke-width:1.06666672"
     d="M 40.04154,264.53333 16.533333,247.97094 0,231.40854 V 131.48213 31.555723 L 15.872,15.777856 31.744002,0 H 132.26666 232.78934 l 15.872,15.777856 15.87199,15.777867 V 132.50185 233.44798 l -19.84,16.36806 -19.40407,14.20135 c 0,-40.51792 -0.43595,-78.86912 -0.43595,-119.38704 H 132.99134 41.129379 c 0.914361,39.98409 -0.137159,79.93476 -1.087892,119.90298 z m 92.22512,-159.34762 h 92.58668 V 72.315179 39.444651 H 132.26666 39.680001 v 32.870528 32.870531 z m 0,157.77855 H 66.133335 V 216.94551 170.92677 H 132.26666 198.4 v 46.01874 46.01875 z m -26.45333,-26.29643 h 13.22668 V 216.94551 197.22319 H 105.81333 92.586671 v 19.72232 19.72232 z"
     id="path3181"
     inkscape:connector-curvature="0"
     sodipodi:nodetypes="cccccccccccccccccccccccccccccccccccccccccccccc"
     inkscape:export-xdpi="150"
     inkscape:export-ydpi="150" />
</svg>
