<?xml version="1.0" encoding="UTF-8" standalone="no"?>
<!-- Created with Inkscape (http://www.inkscape.org/) -->

<svg
   xmlns:dc="http://purl.org/dc/elements/1.1/"
   xmlns:cc="http://creativecommons.org/ns#"
   xmlns:rdf="http://www.w3.org/1999/02/22-rdf-syntax-ns#"
   xmlns:svg="http://www.w3.org/2000/svg"
   xmlns="http://www.w3.org/2000/svg"
   xmlns:sodipodi="http://sodipodi.sourceforge.net/DTD/sodipodi-0.dtd"
   xmlns:inkscape="http://www.inkscape.org/namespaces/inkscape"
   id="svg3336"
   style="enable-background:new"
   height="21.137793cm"
   width="59.531464cm"
   version="1.1"
   inkscape:version="0.92.1 r15371"
   sodipodi:docname="logo.svg"
   inkscape:export-filename="C:\Users\jsgosselin\OneDrive\GWHAT\gwhat\common\icons\Icons\WHAT_banner_750px.png"
   inkscape:export-xdpi="37.954659"
   inkscape:export-ydpi="37.954659">
  <sodipodi:namedview
     pagecolor="#ffffff"
     bordercolor="#666666"
     borderopacity="1"
     objecttolerance="10"
     gridtolerance="10"
     guidetolerance="10"
     inkscape:pageopacity="0"
     inkscape:pageshadow="2"
     inkscape:window-width="1600"
     inkscape:window-height="838"
     id="namedview88"
     showgrid="false"
     inkscape:snap-bbox="true"
     inkscape:zoom="0.24"
     inkscape:cx="1023.2493"
     inkscape:cy="392.17861"
     inkscape:window-x="-8"
     inkscape:window-y="-8"
     inkscape:window-maximized="1"
     inkscape:current-layer="svg3336"
     fit-margin-top="3"
     fit-margin-left="3"
     fit-margin-right="3"
     fit-margin-bottom="3"
     showguides="true"
     inkscape:guide-bbox="true"
     units="cm"
     inkscape:snap-global="true" />
  <defs
     id="defs3338">
    <filter
       id="filter4254"
       style="color-interpolation-filters:sRGB">
      <feBlend
         id="feBlend4256"
         in2="BackgroundImage"
         mode="multiply" />
    </filter>
    <clipPath
       clipPathUnits="userSpaceOnUse"
       id="clipPath3962">
      <rect
         width="460.09244"
         x="56.304016"
         y="10.396246"
         rx="230.02681"
         height="460.09314"
         style="fill:none;stroke:#ff0000;stroke-width:1.06666672;stroke-miterlimit:4;stroke-dasharray:none;enable-background:new"
         id="rect3964"
         clip-path="none" />
    </clipPath>
    <clipPath
       clipPathUnits="userSpaceOnUse"
       id="clipPath3973">
      <rect
         width="431.33667"
         x="12.670648"
         y="12.878485"
         rx="215.65013"
         height="431.33731"
         style="fill:none;stroke:#ff0000;stroke-width:1;stroke-miterlimit:4;stroke-dasharray:none;enable-background:new"
         id="rect3975"
         clip-path="none" />
    </clipPath>
    <linearGradient
       id="linearGradient4190-6-2"
       y2="358"
       gradientUnits="userSpaceOnUse"
       x2="376"
       gradientTransform="matrix(1.0084,0,0,1.0084,-2.5546,-2)"
       y1="238"
       x1="256">
      <stop
         id="stop4186-77-0"
         style="stop-color:#00ccff;stop-opacity:1;"
         offset="0" />
      <stop
         id="stop4188-0-1"
         style="stop-color:#004354;stop-opacity:1;"
         offset="1" />
    </linearGradient>
  </defs>
  <metadata
     id="metadata3341">
    <rdf:RDF>
      <cc:Work
         rdf:about="">
        <dc:format>image/svg+xml</dc:format>
        <dc:type
           rdf:resource="http://purl.org/dc/dcmitype/StillImage" />
        <dc:title></dc:title>
      </cc:Work>
    </rdf:RDF>
  </metadata>
  <g
     id="layer6"
     style="opacity:0.3;filter:url(#filter4254)"
     transform="translate(1996.3811,99.568472)"
     clip-path="url(#clipPath3962)" />
  <g
     id="layer1"
     style="display:none"
     transform="translate(1387.701,-435.96156)">
    <path
       id="path3774"
       d="m 177.12,614.784 h 191.88267 c 154.98666,0 177.12,22.11947 177.12,176.96 v 153.81333 c 0,154.83737 -22.1408,176.95997 -177.12,176.95997 H 177.12 C 22.144,1122.5173 0,1100.3307 0,945.51467 V 791.70133 c 0,-154.83733 22.1408,-176.96 177.12,-176.96 z"
       style="display:inline;fill:#0000ff;fill-opacity:0.08118101;stroke:#0000ff;stroke-width:1.06666672"
       inkscape:connector-curvature="0" />
    <circle
       id="path4118"
       style="color:#000000;display:inline;fill:#0000ff;fill-opacity:0.08118101;stroke:#0000ff;stroke-width:1.06666231;enable-background:accumulate"
       cx="273.06668"
       cy="868.6507"
       r="153.60001" />
    <rect
       id="rect4152"
       style="color:#000000;display:inline;fill:#0000ff;fill-opacity:0.08118101;stroke:#0000ff;stroke-width:1.06666672;stroke-linecap:round;stroke-linejoin:round;enable-background:accumulate"
       height="290.13333"
       width="290.13333"
       y="723.58398"
       x="128" />
    <rect
       id="rect4154"
       style="color:#000000;display:inline;fill:#0000ff;fill-opacity:0.08118101;stroke:#0000ff;stroke-width:1.06666672;stroke-linecap:round;stroke-linejoin:round;enable-background:accumulate"
       height="256"
       width="324.26666"
       y="740.65063"
       x="110.93333" />
    <rect
       id="rect4156"
       style="color:#000000;display:inline;fill:#0000ff;fill-opacity:0.08118101;stroke:#0000ff;stroke-width:1.06666672;stroke-linecap:round;stroke-linejoin:round;enable-background:accumulate"
       height="324.26666"
       width="256"
       y="706.51733"
       x="145.06667" />
  </g>
  <path
     sodipodi:nodetypes="ccc"
     style="fill:none;fill-opacity:0;stroke:#ffffff;stroke-width:25;stroke-linecap:square;stroke-linejoin:miter;stroke-miterlimit:4;stroke-dasharray:none;stroke-opacity:1"
     d="m 1925.6505,315.31872 h -39.1321 v 254.21396"
     id="path2995-6"
     inkscape:connector-curvature="0" />
  <path
     sodipodi:nodetypes="cccc"
     inkscape:connector-curvature="0"
     id="path3765"
     d="M 1708.5206,330.46719 V 271.4481 h 283.2695 v 59.01909"
     style="display:inline;fill:none;fill-opacity:0;stroke:#ffffff;stroke-width:25;stroke-linecap:square;stroke-linejoin:miter;stroke-miterlimit:4;stroke-dasharray:none;stroke-opacity:1;enable-background:new" />
  <path
     sodipodi:nodetypes="ccc"
     style="fill:none;fill-opacity:0;stroke:#ffffff;stroke-width:25;stroke-linecap:square;stroke-linejoin:miter;stroke-miterlimit:4;stroke-dasharray:none;stroke-opacity:1"
     d="m 1774.5119,315.31874 h 43.7544 V 567.1024"
     id="path2995"
     inkscape:connector-curvature="0" />
  <path
     inkscape:connector-curvature="0"
     d="m 2013.2353,432.76985 h -65.1686 c 0,0 17.3567,31.48147 32.6046,57.89184 0.032,0 0.032,-0.0212 0.032,-0.0212 l 0.031,-0.0315 0.032,-0.0315 0.031,-0.0212 c 17.0578,-29.54515 32.4824,-57.85277 32.4824,-57.85277 z"
     style="color:#000000;display:inline;fill:#ffffff;fill-opacity:1;stroke:#ffffff;stroke-width:1.23265612;enable-background:new"
     id="path4622"
     sodipodi:nodetypes="ccccccccc" />
  <path
     style="display:inline;fill:#ffffff;fill-opacity:1;stroke:#ffffff;stroke-width:26.44789505;stroke-linecap:round;stroke-linejoin:round;stroke-miterlimit:4;stroke-dasharray:none;stroke-opacity:1;enable-background:new"
     d="m 1613.8859,460.71967 c -0.6866,96.28267 101.8663,158.88035 142.9064,174.95404 215.9418,74.50333 345.1547,-150.67782 345.1547,-150.67782 -215.2609,135.41656 -319.1652,-151.18606 -488.0611,-24.27622 z"
     id="path3852"
     inkscape:connector-curvature="0"
     sodipodi:nodetypes="cccc" />
  <rect
     width="531.68976"
     x="1584.7092"
     y="133.60909"
     rx="265.82245"
     height="531.69055"
     style="fill:none;fill-opacity:1;stroke:#ffffff;stroke-width:40.44652557;stroke-miterlimit:4;stroke-dasharray:none;stroke-opacity:1"
     id="rect16-5"
     clip-path="none"
     ry="265.82245" />
  <path
     style="font-style:normal;font-variant:normal;font-weight:bold;font-stretch:normal;font-size:17.53732491px;line-height:0%;font-family:'Liberation Sans';-inkscape-font-specification:'Liberation Sans Bold';letter-spacing:0px;word-spacing:0px;fill:none;fill-opacity:1;stroke:#ffffff;stroke-width:25;stroke-miterlimit:4;stroke-dasharray:none;stroke-opacity:1;enable-background:new"
     d="m 279.82212,252.15148 c -47.72653,0 -85.31442,13.57293 -112.76335,40.72118 -27.44895,27.14826 -41.17294,64.39523 -41.17294,111.74076 0,46.82087 13.47751,83.93719 40.43187,111.34771 26.95436,27.2795 63.49123,40.9192 109.61037,40.9192 20.40124,0 40.18345,-2.2958 59.34825,-6.8861 19.16478,-4.5903 37.64947,-11.4747 55.45419,-20.6553 V 388.08881 H 279.45082 v 50.75573 h 43.58485 v 57.05079 c -5.06941,2.09843 -10.81913,3.67248 -17.24861,4.7217 -6.30582,0.91804 -13.16705,1.37692 -20.58568,1.37692 -27.32528,0 -48.40658,-8.46014 -63.24383,-25.37857 -14.83726,-16.91852 -22.25656,-40.9192 -22.25656,-72.00196 0,-31.34513 7.66579,-55.41114 22.99762,-72.19847 15.45548,-16.91843 37.40333,-25.37707 65.84141,-25.37707 15.33183,0 30.60139,2.29433 45.80958,6.88459 15.33184,4.59034 30.7254,11.54167 46.18088,20.85337 v -60.78859 c -14.9609,-7.21327 -30.91099,-12.65588 -47.8502,-16.3281 -16.81557,-3.67222 -34.43523,-5.50767 -52.85816,-5.50767 z m 170.41619,5.31125 65.84142,293.7119 h 82.34585 l 49.70518,-223.28338 50.26058,223.28338 h 82.34743 l 65.2844,-293.7119 h -67.8805 L 730.2925,470.91119 682.81361,257.46273 h -68.80874 l -47.4789,213.44846 -47.85021,-213.44846 z m 473.08236,0 v 293.7119 h 71.40478 V 426.6472 H 1100.069 v 124.52743 h 71.4047 V 257.46273 H 1100.069 V 369.39991 H 994.72545 V 257.46273 Z m 428.18373,0 -102.5634,293.7119 h 71.7761 l 17.6183,-53.50945 h 111.651 l 17.4343,53.50945 h 71.7744 l -102.5616,-293.7119 z m 42.6566,68.85359 37.8358,116.8554 h -75.8558 z"
     id="text3084"
     inkscape:connector-curvature="0"
     sodipodi:nodetypes="ssscsscccccccscscsccccscccccccccccccccccccccccccccccccccccccccc" />
</svg>
