<?xml version="1.0" encoding="UTF-8" standalone="no"?>
<!-- Created with Inkscape (http://www.inkscape.org/) -->

<svg
   xmlns:dc="http://purl.org/dc/elements/1.1/"
   xmlns:cc="http://creativecommons.org/ns#"
   xmlns:rdf="http://www.w3.org/1999/02/22-rdf-syntax-ns#"
   xmlns:svg="http://www.w3.org/2000/svg"
   xmlns="http://www.w3.org/2000/svg"
   xmlns:sodipodi="http://sodipodi.sourceforge.net/DTD/sodipodi-0.dtd"
   xmlns:inkscape="http://www.inkscape.org/namespaces/inkscape"
   id="svg3336"
   style="enable-background:new"
   height="15.137794cm"
   width="53.531464cm"
   version="1.1"
   inkscape:version="0.92.1 r15371"
   sodipodi:docname="logo.svg"
   inkscape:export-filename="C:\Users\jsgosselin\OneDrive\GWHAT\gwhat\common\icons\Icons\WHAT_banner_750px.png"
   inkscape:export-xdpi="37.954659"
   inkscape:export-ydpi="37.954659">
  <sodipodi:namedview
     pagecolor="#ffffff"
     bordercolor="#666666"
     borderopacity="1"
     objecttolerance="10"
     gridtolerance="10"
     guidetolerance="10"
     inkscape:pageopacity="0"
     inkscape:pageshadow="2"
     inkscape:window-width="1600"
     inkscape:window-height="838"
     id="namedview88"
     showgrid="false"
     inkscape:snap-bbox="true"
     inkscape:zoom="0.36062446"
     inkscape:cx="931.47749"
     inkscape:cy="530.51293"
     inkscape:window-x="-8"
     inkscape:window-y="-8"
     inkscape:window-maximized="1"
     inkscape:current-layer="svg3336"
     fit-margin-top="0"
     fit-margin-left="0"
     fit-margin-right="0"
     fit-margin-bottom="0"
     showguides="true"
     inkscape:guide-bbox="true"
     units="cm"
     inkscape:snap-global="true">
    <sodipodi:guide
       position="1395.098,438.23529"
       orientation="0,1"
       id="guide864"
       inkscape:locked="false" />
  </sodipodi:namedview>
  <defs
     id="defs3338">
    <filter
       id="filter4254"
       style="color-interpolation-filters:sRGB">
      <feBlend
         id="feBlend4256"
         in2="BackgroundImage"
         mode="multiply" />
    </filter>
    <clipPath
       clipPathUnits="userSpaceOnUse"
       id="clipPath3962">
      <rect
         width="460.09244"
         x="56.304016"
         y="10.396246"
         rx="230.02681"
         height="460.09314"
         style="fill:none;stroke:#ff0000;stroke-width:1.06666672;stroke-miterlimit:4;stroke-dasharray:none;enable-background:new"
         id="rect3964"
         clip-path="none" />
    </clipPath>
    <clipPath
       clipPathUnits="userSpaceOnUse"
       id="clipPath3973">
      <rect
         width="431.33667"
         x="12.670648"
         y="12.878485"
         rx="215.65013"
         height="431.33731"
         style="fill:none;stroke:#ff0000;stroke-width:1;stroke-miterlimit:4;stroke-dasharray:none;enable-background:new"
         id="rect3975"
         clip-path="none" />
    </clipPath>
    <linearGradient
       id="linearGradient4190-6-2"
       y2="358"
       gradientUnits="userSpaceOnUse"
       x2="376"
       gradientTransform="matrix(1.0084,0,0,1.0084,-2.5546,-2)"
       y1="238"
       x1="256">
      <stop
         id="stop4186-77-0"
         style="stop-color:#00ccff;stop-opacity:1;"
         offset="0" />
      <stop
         id="stop4188-0-1"
         style="stop-color:#004354;stop-opacity:1;"
         offset="1" />
    </linearGradient>
  </defs>
  <metadata
     id="metadata3341">
    <rdf:RDF>
      <cc:Work
         rdf:about="">
        <dc:format>image/svg+xml</dc:format>
        <dc:type
           rdf:resource="http://purl.org/dc/dcmitype/StillImage" />
        <dc:title />
      </cc:Work>
    </rdf:RDF>
  </metadata>
  <g
     id="layer6"
     style="opacity:0.3;filter:url(#filter4254)"
     transform="translate(1882.9953,-13.81735)"
     clip-path="url(#clipPath3962)" />
  <g
     id="layer1"
     style="display:none"
     transform="translate(1274.3152,-549.34738)">
    <path
       id="path3774"
       d="m 177.12,614.784 h 191.88267 c 154.98666,0 177.12,22.11947 177.12,176.96 v 153.81333 c 0,154.83737 -22.1408,176.95997 -177.12,176.95997 H 177.12 C 22.144,1122.5173 0,1100.3307 0,945.51467 V 791.70133 c 0,-154.83733 22.1408,-176.96 177.12,-176.96 z"
       style="display:inline;fill:#0000ff;fill-opacity:0.08118101;stroke:#0000ff;stroke-width:1.06666672"
       inkscape:connector-curvature="0" />
    <circle
       id="path4118"
       style="color:#000000;display:inline;fill:#0000ff;fill-opacity:0.08118101;stroke:#0000ff;stroke-width:1.06666231;enable-background:accumulate"
       cx="273.06668"
       cy="868.6507"
       r="153.60001" />
    <rect
       id="rect4152"
       style="color:#000000;display:inline;fill:#0000ff;fill-opacity:0.08118101;stroke:#0000ff;stroke-width:1.06666672;stroke-linecap:round;stroke-linejoin:round;enable-background:accumulate"
       height="290.13333"
       width="290.13333"
       y="723.58398"
       x="128" />
    <rect
       id="rect4154"
       style="color:#000000;display:inline;fill:#0000ff;fill-opacity:0.08118101;stroke:#0000ff;stroke-width:1.06666672;stroke-linecap:round;stroke-linejoin:round;enable-background:accumulate"
       height="256"
       width="324.26666"
       y="740.65063"
       x="110.93333" />
    <rect
       id="rect4156"
       style="color:#000000;display:inline;fill:#0000ff;fill-opacity:0.08118101;stroke:#0000ff;stroke-width:1.06666672;stroke-linecap:round;stroke-linejoin:round;enable-background:accumulate"
       height="324.26666"
       width="256"
       y="706.51733"
       x="145.06667" />
  </g>
  <path
     sodipodi:nodetypes="cccc"
     inkscape:connector-curvature="0"
     id="path3765"
     d="m 1557.5368,203.05831 v -59.11523 h 280.0962 v 59.11523"
     style="display:inline;fill:none;fill-opacity:0;stroke:#ffffff;stroke-width:19.90385246;stroke-linecap:square;stroke-linejoin:miter;stroke-miterlimit:4;stroke-dasharray:none;stroke-opacity:1;enable-background:new" />
  <g
     id="g871"
     transform="translate(2.5562457,4)">
    <path
       inkscape:connector-curvature="0"
       id="path2995-6"
       d="m 1778.598,179.86177 h -39.1321 v 254.21396"
       style="fill:none;fill-opacity:0;stroke:#ffffff;stroke-width:20;stroke-linecap:square;stroke-linejoin:miter;stroke-miterlimit:4;stroke-dasharray:none;stroke-opacity:1"
       sodipodi:nodetypes="ccc" />
    <path
       inkscape:connector-curvature="0"
       id="path2995"
       d="m 1611.4594,179.86179 h 43.7544 v 251.78366"
       style="fill:none;fill-opacity:0;stroke:#ffffff;stroke-width:20;stroke-linecap:square;stroke-linejoin:miter;stroke-miterlimit:4;stroke-dasharray:none;stroke-opacity:1"
       sodipodi:nodetypes="ccc" />
  </g>
  <path
     inkscape:connector-curvature="0"
     d="m 1858.1828,303.38403 h -65.1686 c 0,0 17.3567,31.48147 32.6046,57.89184 0.032,0 0.032,-0.0212 0.032,-0.0212 l 0.031,-0.0315 0.032,-0.0315 0.031,-0.0212 c 17.0578,-29.54515 32.4824,-57.85277 32.4824,-57.85277 z"
     style="color:#000000;display:inline;fill:#ffffff;fill-opacity:1;stroke:#ffffff;stroke-width:1.23265612;enable-background:new"
     id="path4622"
     sodipodi:nodetypes="ccccccccc" />
  <g
     id="g862"
     transform="translate(0,31.478214)">
    <path
       sodipodi:nodetypes="cccc"
       inkscape:connector-curvature="0"
       id="path3852"
       d="m 1483.5385,333.6124 c -0.6209,76.66887 92.1295,126.51476 129.2468,139.31406 195.3012,59.32623 312.1634,-119.98317 312.1634,-119.98317 -194.6853,107.8308 -288.658,-120.38788 -441.4102,-19.33089 z"
       style="display:inline;fill:#ffffff;fill-opacity:1;stroke:#ffffff;stroke-width:22.44453812;stroke-linecap:round;stroke-linejoin:round;stroke-miterlimit:4;stroke-dasharray:none;stroke-opacity:1;enable-background:new" />
    <rect
       ry="240.41402"
       clip-path="none"
       id="rect16-5"
       style="fill:none;fill-opacity:1;stroke:#ffffff;stroke-width:31.65455246;stroke-miterlimit:4;stroke-dasharray:none;stroke-opacity:1"
       height="480.86932"
       rx="240.41402"
       y="19.217209"
       x="1457.1506"
       width="480.86862" />
  </g>
  <path
     style="font-style:normal;font-variant:normal;font-weight:bold;font-stretch:normal;font-size:17.53732491px;line-height:0%;font-family:'Liberation Sans';-inkscape-font-specification:'Liberation Sans Bold';letter-spacing:0px;word-spacing:0px;fill:none;fill-opacity:1;stroke:#ffffff;stroke-width:20;stroke-miterlimit:4;stroke-dasharray:none;stroke-opacity:1;enable-background:new"
     d="m 166.43629,138.76566 c -47.72653,0 -85.31442,13.57293 -112.76335,40.72118 C 26.22399,206.6351 12.5,243.88207 12.5,291.2276 c 0,46.82087 13.47751,83.93719 40.43187,111.34771 26.95436,27.2795 63.49123,40.9192 109.61037,40.9192 20.40124,0 40.18345,-2.2958 59.34825,-6.8861 19.16478,-4.5903 37.64947,-11.4747 55.45419,-20.6553 V 274.70299 H 166.06499 v 50.75573 h 43.58485 v 57.05079 c -5.06941,2.09843 -10.81913,3.67248 -17.24861,4.7217 -6.30582,0.91804 -13.16705,1.37692 -20.58568,1.37692 -27.32528,0 -48.40658,-8.46014 -63.24383,-25.37857 -14.83726,-16.91852 -22.25656,-40.9192 -22.25656,-72.00196 0,-31.34513 7.66579,-55.41114 22.99762,-72.19847 15.45548,-16.91843 37.40333,-25.37707 65.84141,-25.37707 15.33183,0 30.60139,2.29433 45.80958,6.88459 15.33184,4.59034 30.7254,11.54167 46.18088,20.85337 v -60.78859 c -14.9609,-7.21327 -30.91099,-12.65588 -47.8502,-16.3281 -16.81557,-3.67222 -34.43523,-5.50767 -52.85816,-5.50767 z m 170.41619,5.31125 65.84142,293.7119 h 82.34585 l 49.70518,-223.28338 50.26058,223.28338 h 82.34743 l 65.2844,-293.7119 h -67.8805 L 616.90667,357.52537 569.42778,144.07691 h -68.80874 l -47.4789,213.44846 -47.85021,-213.44846 z m 473.08236,0 v 293.7119 h 71.40478 V 313.26138 h 105.34355 v 124.52743 h 71.40473 V 144.07691 H 986.68317 V 256.01409 H 881.33962 V 144.07691 Z m 428.18376,0 -102.5634,293.7119 h 71.7761 l 17.6183,-53.50945 h 111.651 l 17.4343,53.50945 h 71.7744 l -102.5616,-293.7119 z m 42.6566,68.85359 37.8358,116.8554 h -75.8558 z"
     id="text3084"
     inkscape:connector-curvature="0"
     sodipodi:nodetypes="ssscsscccccccscscsccccscccccccccccccccccccccccccccccccccccccccc" />
</svg>
