<?xml version="1.0" encoding="UTF-8" standalone="no"?>
<!-- Created with Inkscape (http://www.inkscape.org/) -->

<svg
   xmlns:dc="http://purl.org/dc/elements/1.1/"
   xmlns:cc="http://creativecommons.org/ns#"
   xmlns:rdf="http://www.w3.org/1999/02/22-rdf-syntax-ns#"
   xmlns:svg="http://www.w3.org/2000/svg"
   xmlns="http://www.w3.org/2000/svg"
   xmlns:xlink="http://www.w3.org/1999/xlink"
   xmlns:sodipodi="http://sodipodi.sourceforge.net/DTD/sodipodi-0.dtd"
   xmlns:inkscape="http://www.inkscape.org/namespaces/inkscape"
   id="svg3336"
   style="enable-background:new"
   height="677.40088"
   width="1929.0454"
   version="1.1"
   inkscape:version="0.92.1 r15371"
   sodipodi:docname="logo.svg"
   inkscape:export-filename="C:\Users\jsgosselin\OneDrive\GWHAT\gwhat\common\icons\Icons\WHAT_banner_750px.png"
   inkscape:export-xdpi="37.954659"
   inkscape:export-ydpi="37.954659">
  <sodipodi:namedview
     pagecolor="#ffffff"
     bordercolor="#666666"
     borderopacity="1"
     objecttolerance="10"
     gridtolerance="10"
     guidetolerance="10"
     inkscape:pageopacity="0"
     inkscape:pageshadow="2"
     inkscape:window-width="1600"
     inkscape:window-height="838"
     id="namedview88"
     showgrid="false"
     inkscape:snap-bbox="true"
     inkscape:zoom="0.2652504"
     inkscape:cx="1763.5776"
     inkscape:cy="-69.442461"
     inkscape:window-x="-8"
     inkscape:window-y="-8"
     inkscape:window-maximized="1"
     inkscape:current-layer="svg3336"
     fit-margin-top="0"
     fit-margin-left="0"
     fit-margin-right="0"
     fit-margin-bottom="0"
     showguides="true"
     inkscape:guide-bbox="true"
     units="px"
     inkscape:snap-global="true">
    <sodipodi:guide
       position="-455.51943,426.55677"
       orientation="1,0"
       id="guide4627"
       inkscape:locked="false" />
    <sodipodi:guide
       position="-123.8444,568.5434"
       orientation="1,0"
       id="guide59"
       inkscape:locked="false" />
    <sodipodi:guide
       position="0,740.17532"
       orientation="1,0"
       id="guide4943"
       inkscape:locked="false" />
    <sodipodi:guide
       position="1929.0454,526.52085"
       orientation="1,0"
       id="guide4530"
       inkscape:locked="false" />
    <sodipodi:guide
       position="1889.2729,436.49097"
       orientation="1,0"
       id="guide4555"
       inkscape:locked="false" />
  </sodipodi:namedview>
  <defs
     id="defs3338">
    <filter
       id="filter4254"
       style="color-interpolation-filters:sRGB">
      <feBlend
         id="feBlend4256"
         in2="BackgroundImage"
         mode="multiply" />
    </filter>
    <clipPath
       clipPathUnits="userSpaceOnUse"
       id="clipPath3962">
      <rect
         width="460.09244"
         x="56.304016"
         y="10.396246"
         rx="230.02681"
         height="460.09314"
         style="fill:none;stroke:#ff0000;stroke-width:1.06666672;stroke-miterlimit:4;stroke-dasharray:none;enable-background:new"
         id="rect3964"
         clip-path="none" />
    </clipPath>
    <clipPath
       clipPathUnits="userSpaceOnUse"
       id="clipPath3973">
      <rect
         width="431.33667"
         x="12.670648"
         y="12.878485"
         rx="215.65013"
         height="431.33731"
         style="fill:none;stroke:#ff0000;stroke-width:1;stroke-miterlimit:4;stroke-dasharray:none;enable-background:new"
         id="rect3975"
         clip-path="none" />
    </clipPath>
    <linearGradient
       inkscape:collect="always"
       id="linearGradient4067-5">
      <stop
         style="stop-color:#004354;stop-opacity:1;"
         offset="0"
         id="stop4069-0" />
      <stop
         style="stop-color:#004354;stop-opacity:0;"
         offset="1"
         id="stop4071-4" />
    </linearGradient>
    <linearGradient
       inkscape:collect="always"
       id="linearGradient4059-8">
      <stop
         style="stop-color:#004354;stop-opacity:1;"
         offset="0"
         id="stop4061-7" />
      <stop
         style="stop-color:#004354;stop-opacity:0;"
         offset="1"
         id="stop4063-6" />
    </linearGradient>
    <linearGradient
       id="linearGradient4190-6-2"
       y2="358"
       gradientUnits="userSpaceOnUse"
       x2="376"
       gradientTransform="matrix(1.0084,0,0,1.0084,-2.5546,-2)"
       y1="238"
       x1="256">
      <stop
         id="stop4186-77-0"
         style="stop-color:#00ccff;stop-opacity:1;"
         offset="0" />
      <stop
         id="stop4188-0-1"
         style="stop-color:#004354;stop-opacity:1;"
         offset="1" />
    </linearGradient>
    <linearGradient
       inkscape:collect="always"
       xlink:href="#linearGradient4067-5"
       id="linearGradient4144"
       gradientUnits="userSpaceOnUse"
       gradientTransform="matrix(1.2326561,0,0,1.1875057,1304.4302,33.55664)"
       x1="60.434956"
       y1="396.50476"
       x2="357.19394"
       y2="396.50476" />
    <linearGradient
       inkscape:collect="always"
       xlink:href="#linearGradient4059-8"
       id="linearGradient4147"
       gradientUnits="userSpaceOnUse"
       gradientTransform="matrix(1.2326561,0,0,1.2381709,1301.9649,8.4267098)"
       x1="47.518688"
       y1="376.82016"
       x2="390.72925"
       y2="376.82016" />
  </defs>
  <metadata
     id="metadata3341">
    <rdf:RDF>
      <cc:Work
         rdf:about="">
        <dc:format>image/svg+xml</dc:format>
        <dc:type
           rdf:resource="http://purl.org/dc/dcmitype/StillImage" />
        <dc:title></dc:title>
      </cc:Work>
    </rdf:RDF>
  </metadata>
  <path
     style="opacity:1;fill:#2a2a2a;fill-opacity:1;stroke:none;stroke-width:59.8747406;stroke-linecap:square;stroke-linejoin:miter;stroke-miterlimit:4;stroke-dasharray:none;stroke-dashoffset:165;stroke-opacity:1;paint-order:normal;enable-background:new"
     d="M 0,7.8976733e-4 V 85.000793 h 1347.1507 c 27.2722,-34.751844 61.4891,-63.766618 100.5976,-85.00000323267 z m 1758.889,0 C 1797.9975,21.234175 1832.2144,50.248949 1859.4866,85.000793 h 69.5588 V 7.8976733e-4 Z M 0,487.13751 v 85 h 1447.7483 c -39.1077,-21.23295 -73.3237,-50.24912 -100.5957,-85 z m 1859.4847,0 c -27.272,34.75088 -61.488,63.76705 -100.5957,85 h 170.1564 v -85 z"
     id="rect4534-8-6"
     inkscape:connector-curvature="0"
     sodipodi:nodetypes="cccccccccccccccccccc" />
  <g
     id="layer6"
     style="opacity:0.3;filter:url(#filter4254)"
     transform="translate(1749.1452,-13.817308)"
     clip-path="url(#clipPath3962)" />
  <g
     id="layer1"
     style="display:none"
     transform="translate(1140.4651,-549.34735)">
    <path
       id="path3774"
       d="m 177.12,614.784 h 191.88267 c 154.98666,0 177.12,22.11947 177.12,176.96 v 153.81333 c 0,154.83737 -22.1408,176.95997 -177.12,176.95997 H 177.12 C 22.144,1122.5173 0,1100.3307 0,945.51467 V 791.70133 c 0,-154.83733 22.1408,-176.96 177.12,-176.96 z"
       style="display:inline;fill:#0000ff;fill-opacity:0.08118101;stroke:#0000ff;stroke-width:1.06666672"
       inkscape:connector-curvature="0" />
    <circle
       id="path4118"
       style="color:#000000;display:inline;fill:#0000ff;fill-opacity:0.08118101;stroke:#0000ff;stroke-width:1.06666231;enable-background:accumulate"
       cx="273.06668"
       cy="868.6507"
       r="153.60001" />
    <rect
       id="rect4152"
       style="color:#000000;display:inline;fill:#0000ff;fill-opacity:0.08118101;stroke:#0000ff;stroke-width:1.06666672;stroke-linecap:round;stroke-linejoin:round;enable-background:accumulate"
       height="290.13333"
       width="290.13333"
       y="723.58398"
       x="128" />
    <rect
       id="rect4154"
       style="color:#000000;display:inline;fill:#0000ff;fill-opacity:0.08118101;stroke:#0000ff;stroke-width:1.06666672;stroke-linecap:round;stroke-linejoin:round;enable-background:accumulate"
       height="256"
       width="324.26666"
       y="740.65063"
       x="110.93333" />
    <rect
       id="rect4156"
       style="color:#000000;display:inline;fill:#0000ff;fill-opacity:0.08118101;stroke:#0000ff;stroke-width:1.06666672;stroke-linecap:round;stroke-linejoin:round;enable-background:accumulate"
       height="324.26666"
       width="256"
       y="706.51733"
       x="145.06667" />
  </g>
  <g
     id="g4537"
     transform="translate(32.045433,-74.587351)">
    <path
       inkscape:connector-curvature="0"
       id="path2995-6"
       d="m 1656.3692,284.52028 h -39.1321 v 254.21396"
       style="fill:none;fill-opacity:0;stroke:#2a2a2a;stroke-width:31.73747444;stroke-linecap:square;stroke-linejoin:miter;stroke-miterlimit:4;stroke-dasharray:none;stroke-opacity:1"
       sodipodi:nodetypes="ccc" />
    <path
       style="display:inline;fill:none;fill-opacity:0;stroke:#2a2a2a;stroke-width:31.73747444;stroke-linecap:square;stroke-linejoin:miter;stroke-miterlimit:4;stroke-dasharray:none;stroke-opacity:1;enable-background:new"
       d="m 1429.2393,291.66875 v -59.01909 h 283.2695 v 59.01909"
       id="path3765"
       inkscape:connector-curvature="0"
       sodipodi:nodetypes="cccc" />
    <path
       inkscape:connector-curvature="0"
       id="path2995"
       d="m 1485.2306,284.5203 h 43.7544 v 251.78366"
       style="fill:none;fill-opacity:0;stroke:#2a2a2a;stroke-width:31.73747444;stroke-linecap:square;stroke-linejoin:miter;stroke-miterlimit:4;stroke-dasharray:none;stroke-opacity:1"
       sodipodi:nodetypes="ccc" />
  </g>
  <path
     inkscape:connector-curvature="0"
     d="m 1769.9702,337.18275 h -65.1686 c 0,0 17.3567,31.48147 32.6046,57.89184 0.032,0 0.032,-0.0212 0.032,-0.0212 l 0.031,-0.0315 0.032,-0.0315 0.031,-0.0212 c 17.0578,-29.54515 32.4824,-57.85277 32.4824,-57.85277 z"
     style="color:#000000;display:inline;fill:#c83737;fill-opacity:1;stroke-width:1.23265612;enable-background:new"
     id="path4622"
     sodipodi:nodetypes="ccccccccc" />
  <path
     style="display:inline;fill:#80e5ff;fill-opacity:1;stroke:#004455;stroke-width:26.44789505;stroke-linecap:round;stroke-linejoin:round;stroke-miterlimit:4;stroke-dasharray:none;stroke-opacity:1;enable-background:new"
     d="m 1353.321,356.54015 c -0.6866,96.28267 117.8612,163.66893 158.9013,179.74262 138.7321,50.11612 289.9106,-38.33883 326.9384,-132.75766 -245.5228,51.49296 -316.9438,-176.56061 -485.8397,-46.98496 z"
     id="path3852"
     inkscape:connector-curvature="0"
     sodipodi:nodetypes="cccc" />
  <path
     style="display:inline;opacity:0.75;fill:url(#linearGradient4147);fill-opacity:1;stroke:none;stroke-width:1.23265612;enable-background:new"
     d="m 1376.1455,418.72847 c 27.5774,48.55466 117.6496,120.10438 156.3365,130.93939 118.0133,2.58137 195.5329,-27.94613 268.7298,-84.02834 -231.4446,34.71053 -280.508,-148.91416 -425.0663,-46.91105 z"
     id="path3852-7-7"
     inkscape:connector-curvature="0"
     sodipodi:nodetypes="cccc" />
  <path
     style="display:inline;opacity:0.75;fill:url(#linearGradient4144);fill-opacity:1;stroke:none;stroke-width:1.23265612;enable-background:new"
     d="m 1396.5378,463.19816 c 23.5163,37.30266 108.5419,82.44302 141.5316,90.76713 95.2092,1.37106 159.9954,-18.80412 219.07,-52.3368 -197.3618,26.66675 -224.207,-108.20165 -360.6016,-38.43033 z"
     id="path3852-7"
     inkscape:connector-curvature="0"
     sodipodi:nodetypes="cccc" />
  <rect
     width="487.9953"
     x="1359.3207"
     y="42.07056"
     rx="243.97707"
     height="487.99594"
     style="opacity:0.23000004;fill:none;stroke:#000000;stroke-width:32.04905701;stroke-miterlimit:4;stroke-dasharray:none"
     id="rect16-9"
     ry="243.97707" />
  <rect
     width="531.68976"
     x="1337.4735"
     y="20.223263"
     rx="265.82245"
     height="531.69055"
     style="fill:none;fill-opacity:1;stroke:#2a2a2a;stroke-width:40.44652557;stroke-miterlimit:4;stroke-dasharray:none;stroke-opacity:1"
     id="rect16-5"
     clip-path="none"
     ry="265.82245" />
  <text
     xml:space="preserve"
     style="font-style:normal;font-variant:normal;font-weight:normal;font-stretch:normal;font-size:89.34528351px;line-height:0%;font-family:'Liberation Sans';-inkscape-font-specification:'Liberation Sans';letter-spacing:0.66999996px;word-spacing:8.19424248px;fill:#2a2a2a;fill-opacity:1;stroke:none;stroke-width:1.97762287"
     x="13.089635"
     y="645.04346"
     id="text3090"
     transform="scale(0.97852413,1.0219472)"><tspan
       sodipodi:role="line"
       x="13.089635"
       y="645.04346"
       id="tspan3092"
       style="font-style:normal;font-variant:normal;font-weight:bold;font-stretch:normal;font-size:84.04190826px;line-height:1.25;font-family:'Liberation Sans';-inkscape-font-specification:'Liberation Sans Bold';letter-spacing:0.66999996px;word-spacing:9.57270908px;fill:#2a2a2a;fill-opacity:1;stroke-width:1.97762287"><tspan
         x="13.089635"
         y="645.04346"
         style="font-style:normal;font-variant:normal;font-weight:bold;font-stretch:normal;font-size:84.04190826px;font-family:'Liberation Sans';-inkscape-font-specification:'Liberation Sans Bold';letter-spacing:0.66999996px;word-spacing:9.57270908px;fill:#2a2a2a;fill-opacity:1;stroke-width:1.97762287"
         id="tspan3094">Toolbox for GroundWater Hydrograph Analysis</tspan></tspan></text>
  <path
     style="font-style:normal;font-variant:normal;font-weight:bold;font-stretch:normal;font-size:17.53732491px;line-height:0%;font-family:'Liberation Sans';-inkscape-font-specification:'Liberation Sans Bold';letter-spacing:0px;word-spacing:0px;fill:#312e2e;fill-opacity:1;stroke:none;stroke-width:13.25999641;stroke-miterlimit:4;stroke-dasharray:none;stroke-opacity:1;enable-background:new"
     d="m 158.58631,138.76569 c -47.72653,0 -85.314419,13.57293 -112.763349,40.72118 -27.44895,27.14826 -41.17294,64.39523 -41.17294,111.74076 0,46.82087 13.47751,83.93719 40.43187,111.34771 26.95436,27.2795 63.491229,40.9192 109.610369,40.9192 20.40124,0 40.18345,-2.2958 59.34825,-6.8861 19.16478,-4.5903 37.64947,-11.4747 55.45419,-20.6553 V 274.70302 H 158.21501 v 50.75573 h 43.58485 v 57.05079 c -5.06941,2.09843 -10.81913,3.67248 -17.24861,4.7217 -6.30582,0.91804 -13.16705,1.37692 -20.58568,1.37692 -27.32528,0 -48.40658,-8.46014 -63.24383,-25.37857 -14.837259,-16.91852 -22.256559,-40.9192 -22.256559,-72.00196 0,-31.34513 7.66579,-55.41114 22.997619,-72.19847 15.45548,-16.91843 37.40333,-25.37707 65.84141,-25.37707 15.33183,0 30.60139,2.29433 45.80958,6.88459 15.33184,4.59034 30.7254,11.54167 46.18088,20.85337 v -60.78859 c -14.9609,-7.21327 -30.91099,-12.65588 -47.8502,-16.3281 -16.81557,-3.67222 -34.43523,-5.50767 -52.85816,-5.50767 z m 140.41619,5.31125 65.84142,293.7119 h 82.34585 l 49.70518,-223.28338 50.26058,223.28338 h 82.34741 l 65.28445,-293.7119 H 626.9069 L 579.05669,357.5254 531.5778,144.07694 H 462.76906 L 415.29016,357.5254 367.43995,144.07694 Z m 433.08234,0 v 293.7119 H 803.4896 V 313.26141 h 105.34352 v 124.52743 h 71.40473 V 144.07694 H 908.83312 V 256.01412 H 803.4896 V 144.07694 Z m 378.18366,0 -102.5634,293.7119 h 71.7761 l 17.6183,-53.50945 h 111.651 l 17.4343,53.50945 h 71.7744 l -102.5616,-293.7119 z m 42.6566,68.85359 37.8358,116.8554 h -75.8558 z"
     id="text3084"
     inkscape:connector-curvature="0" />
</svg>
