<?xml version="1.0" encoding="UTF-8" standalone="no"?>
<!-- Created with Inkscape (http://www.inkscape.org/) -->

<svg
   xmlns:dc="http://purl.org/dc/elements/1.1/"
   xmlns:cc="http://creativecommons.org/ns#"
   xmlns:rdf="http://www.w3.org/1999/02/22-rdf-syntax-ns#"
   xmlns:svg="http://www.w3.org/2000/svg"
   xmlns="http://www.w3.org/2000/svg"
   xmlns:sodipodi="http://sodipodi.sourceforge.net/DTD/sodipodi-0.dtd"
   xmlns:inkscape="http://www.inkscape.org/namespaces/inkscape"
   width="248"
   height="248"
   id="svg4874"
   version="1.1"
   inkscape:version="0.48.4 r9939"
   viewBox="0 0 248 248"
   sodipodi:docname="fill_data.svg"
   inkscape:export-filename="/home/jsgosselin/Documents/Research/Hydrogeology/WHAT/WHAT/Icons/fill_data.png"
   inkscape:export-xdpi="90"
   inkscape:export-ydpi="90">
  <defs
     id="defs4876" />
  <sodipodi:namedview
     id="base"
     pagecolor="#ffffff"
     bordercolor="#666666"
     borderopacity="1.0"
     inkscape:pageopacity="0.0"
     inkscape:pageshadow="2"
     inkscape:zoom="1.28"
     inkscape:cx="368.53229"
     inkscape:cy="121.82489"
     inkscape:document-units="px"
     inkscape:current-layer="g5283"
     showgrid="true"
     showborder="true"
     fit-margin-top="0"
     fit-margin-left="0"
     fit-margin-right="0"
     fit-margin-bottom="0"
     inkscape:snap-bbox="true"
     inkscape:bbox-paths="true"
     inkscape:bbox-nodes="true"
     inkscape:snap-bbox-edge-midpoints="true"
     inkscape:snap-bbox-midpoints="true"
     inkscape:object-paths="true"
     inkscape:snap-intersection-paths="true"
     inkscape:object-nodes="true"
     inkscape:snap-smooth-nodes="true"
     inkscape:snap-midpoints="true"
     inkscape:snap-object-midpoints="true"
     inkscape:snap-center="true"
     showguides="true"
     inkscape:guide-bbox="true"
     inkscape:window-width="1535"
     inkscape:window-height="876"
     inkscape:window-x="65"
     inkscape:window-y="24"
     inkscape:window-maximized="1"
     inkscape:snap-global="false">
    <inkscape:grid
       type="xygrid"
       id="grid5451"
       empspacing="6"
       visible="true"
       enabled="true"
       snapvisiblegridlinesonly="true" />
  </sodipodi:namedview>
  <metadata
     id="metadata4879">
    <rdf:RDF>
      <cc:Work
         rdf:about="">
        <dc:format>image/svg+xml</dc:format>
        <dc:type
           rdf:resource="http://purl.org/dc/dcmitype/StillImage" />
        <dc:title />
      </cc:Work>
    </rdf:RDF>
  </metadata>
  <g
     inkscape:label="Layer 1"
     inkscape:groupmode="layer"
     id="layer1"
     transform="translate(67.857146,73.494962)">
    <g
       transform="matrix(0,-1,-1,0,373.50506,516.50504)"
       id="g4845"
       style="display:inline">
      <g
         id="g5283"
         transform="matrix(0,-1,-1,0,-293.63782,2219.3622)">
        <path
           style="color:#000000;fill:#4d4d4d;fill-opacity:1;fill-rule:nonzero;stroke:none;stroke-width:5;marker:none;visibility:visible;display:inline;overflow:visible;enable-background:accumulate"
           d="m 1780.0625,-881.57527 0,243.875 243.9375,0 c 0,0 -0.062,-171.61166 -0.062,-243.875 z m 28.7595,28.75945 186.356,0 0,186.356 -186.356,0 z"
           id="path5289"
           inkscape:connector-curvature="0"
           sodipodi:nodetypes="cccccccccc" />
        <rect
           style="color:#000000;fill:#4d4d4d;fill-opacity:1;fill-rule:nonzero;stroke:none;stroke-width:6;marker:none;visibility:visible;display:inline;overflow:visible;enable-background:accumulate"
           id="rect5293"
           width="149.50792"
           height="35"
           x="1826.1388"
           y="-835.5296" />
        <rect
           style="color:#000000;fill:#4d4d4d;fill-opacity:1;fill-rule:nonzero;stroke:none;stroke-width:6;marker:none;visibility:visible;display:inline;overflow:visible;enable-background:accumulate"
           id="rect5293-1"
           width="91.655762"
           height="35"
           x="1825.4672"
           y="-777.0965" />
        <path
           sodipodi:type="arc"
           style="fill:#4d4d4d;fill-opacity:1;stroke:none;display:inline"
           id="path3029-8-9"
           sodipodi:cx="-78"
           sodipodi:cy="98"
           sodipodi:rx="18"
           sodipodi:ry="18"
           d="m -60,98 c 0,9.94113 -8.058875,18 -18,18 -9.941125,0 -18,-8.05887 -18,-18 0,-9.941125 8.058875,-18 18,-18 9.941125,0 18,8.058875 18,18 z"
           transform="matrix(0.97222222,0,0,0.97222222,2034.2187,-854.87427)" />
        <path
           sodipodi:type="arc"
           style="fill:#4d4d4d;fill-opacity:1;stroke:none;display:inline"
           id="path3029-8-9-5"
           sodipodi:cx="-78"
           sodipodi:cy="98"
           sodipodi:rx="18"
           sodipodi:ry="18"
           d="m -60,98 c 0,9.94113 -8.058875,18 -18,18 -9.941125,0 -18,-8.05887 -18,-18 0,-9.941125 8.058875,-18 18,-18 9.941125,0 18,8.058875 18,18 z"
           transform="matrix(0.97222222,0,0,0.97222222,2034.2186,-796.44118)" />
        <path
           sodipodi:type="arc"
           style="fill:#4d4d4d;fill-opacity:1;stroke:none;display:inline"
           id="path3029-8-9-5-5-7"
           sodipodi:cx="-78"
           sodipodi:cy="98"
           sodipodi:rx="18"
           sodipodi:ry="18"
           d="m -60,98 c 0,9.94113 -8.058875,18 -18,18 -9.941125,0 -18,-8.05887 -18,-18 0,-9.941125 8.058875,-18 18,-18 9.941125,0 18,8.058875 18,18 z"
           transform="matrix(0.97222222,0,0,0.97222222,1976.4942,-796.44118)" />
        <path
           sodipodi:type="arc"
           style="fill:#4d4d4d;fill-opacity:1;stroke:none;display:inline"
           id="path3029-8-9-5-5-0"
           sodipodi:cx="-78"
           sodipodi:cy="98"
           sodipodi:rx="18"
           sodipodi:ry="18"
           d="m -60,98 c 0,9.94113 -8.058875,18 -18,18 -9.941125,0 -18,-8.05887 -18,-18 0,-9.941125 8.058875,-18 18,-18 9.941125,0 18,8.058875 18,18 z"
           transform="matrix(0.97222222,0,0,0.97222222,1918.7699,-796.44118)" />
      </g>
    </g>
  </g>
</svg>
