<?xml version="1.0" encoding="UTF-8" standalone="no"?>
<!-- Created with Inkscape (http://www.inkscape.org/) -->

<svg
   xmlns:dc="http://purl.org/dc/elements/1.1/"
   xmlns:cc="http://creativecommons.org/ns#"
   xmlns:rdf="http://www.w3.org/1999/02/22-rdf-syntax-ns#"
   xmlns:svg="http://www.w3.org/2000/svg"
   xmlns="http://www.w3.org/2000/svg"
   xmlns:sodipodi="http://sodipodi.sourceforge.net/DTD/sodipodi-0.dtd"
   xmlns:inkscape="http://www.inkscape.org/namespaces/inkscape"
   id="svg7384"
   height="181.60677"
   width="192.45296"
   version="1.1"
   inkscape:version="0.48.4 r9939"
   sodipodi:docname="folder.svg">
  <defs
     id="defs10" />
  <sodipodi:namedview
     pagecolor="#ffffff"
     bordercolor="#666666"
     borderopacity="1"
     objecttolerance="10"
     gridtolerance="10"
     guidetolerance="10"
     inkscape:pageopacity="0"
     inkscape:pageshadow="2"
     inkscape:window-width="1535"
     inkscape:window-height="876"
     id="namedview8"
     showgrid="false"
     inkscape:zoom="2.6074563"
     inkscape:cx="168.03141"
     inkscape:cy="55.24756"
     inkscape:window-x="65"
     inkscape:window-y="24"
     inkscape:window-maximized="1"
     inkscape:current-layer="svg7384"
     fit-margin-top="0"
     fit-margin-left="0"
     fit-margin-right="0"
     fit-margin-bottom="0" />
  <metadata
     id="metadata90">
    <rdf:RDF>
      <cc:Work
         rdf:about="">
        <dc:format>image/svg+xml</dc:format>
        <dc:type
           rdf:resource="http://purl.org/dc/dcmitype/StillImage" />
        <dc:title>Gnome Symbolic Icon Theme</dc:title>
      </cc:Work>
    </rdf:RDF>
  </metadata>
  <title
     id="title9167">Gnome Symbolic Icon Theme</title>
  <g
     id="layer13"
     transform="matrix(12.027934,0,0,12.027934,-5316.3318,-2127.7614)"
     style="fill:#4d4d4d">
    <g
       id="g14154"
       transform="translate(234,-820)"
       style="fill:#4d4d4d">
      <path
         id="rect3845"
         style="fill:#4d4d4d"
         d="m 208.53,997 c -0.28913,0 -0.53125,0.24212 -0.53125,0.53125 v 13.93795 c 0,0.2985 0.23264,0.5312 0.53125,0.5312 h 14.938 c 0.2986,0 0.53125,-0.2326 0.53125,-0.5312 v -8.9375 c 0,-0.2891 -0.24212,-0.5313 -0.53125,-0.5313 h -12.469 v 7.5 c 0,0.2771 -0.223,0.5 -0.5,0.5 -0.277,0 -0.5,-0.2229 -0.5,-0.5 v -8 c 0,-0.277 0.223,-0.5 0.5,-0.5 h 2.9688 8.5312 v -1.40615 c 0,-0.3272 -0.26666,-0.5938 -0.59375,-0.5938 h -7.4062 v -1.4688 c 0,-0.39 -0.24,-0.63 -0.53,-0.63 z"
         inkscape:connector-curvature="0" />
    </g>
  </g>
</svg>
