<?xml version="1.0" encoding="UTF-8" standalone="no"?>
<!-- Created with Inkscape (http://www.inkscape.org/) -->

<svg
   xmlns:dc="http://purl.org/dc/elements/1.1/"
   xmlns:cc="http://creativecommons.org/ns#"
   xmlns:rdf="http://www.w3.org/1999/02/22-rdf-syntax-ns#"
   xmlns:svg="http://www.w3.org/2000/svg"
   xmlns="http://www.w3.org/2000/svg"
   xmlns:xlink="http://www.w3.org/1999/xlink"
   xmlns:sodipodi="http://sodipodi.sourceforge.net/DTD/sodipodi-0.dtd"
   xmlns:inkscape="http://www.inkscape.org/namespaces/inkscape"
   width="90"
   height="90"
   id="svg4874"
   version="1.1"
   inkscape:version="0.48.4 r9939"
   viewBox="0 0 90 90.000001"
   sodipodi:docname="meteo.svg"
   inkscape:export-filename="/home/jsgosselin/Documents/Research/Hydrogeology/Rainbird/Icons/SVG/meteo.png"
   inkscape:export-xdpi="150"
   inkscape:export-ydpi="150">
  <defs
     id="defs4876">
    <linearGradient
       id="linearGradient4178-4"
       y2="173.88"
       xlink:href="#linearGradient4171-8"
       gradientUnits="userSpaceOnUse"
       x2="170.8"
       gradientTransform="matrix(1.0084,0,0,1.0084,-2.5546,-2)"
       y1="247.78999"
       x1="244.7" />
    <linearGradient
       id="linearGradient4171-8">
      <stop
         id="stop4173-2"
         style="stop-color:#045"
         offset="0" />
      <stop
         id="stop4176-5"
         style="stop-color:#045;stop-opacity:0"
         offset="1" />
    </linearGradient>
    <linearGradient
       id="linearGradient4190-6"
       y2="358"
       gradientUnits="userSpaceOnUse"
       x2="376"
       gradientTransform="matrix(1.0084,0,0,1.0084,-2.5546,-2)"
       y1="238"
       x1="256">
      <stop
         id="stop4186-77"
         style="stop-color:#fff"
         offset="0" />
      <stop
         id="stop4188-0"
         style="stop-color:#fff;stop-opacity:0"
         offset="1" />
    </linearGradient>
    <linearGradient
       id="linearGradient4247"
       y2="238"
       gradientUnits="userSpaceOnUse"
       x2="256"
       gradientTransform="matrix(0.40625,0,0,1.0756,238,-512)"
       y1="238">
      <stop
         id="stop4186-1"
         style="stop-color:#fff"
         offset="0" />
      <stop
         id="stop4188-9"
         style="stop-color:#fff;stop-opacity:0"
         offset="1" />
    </linearGradient>
    <linearGradient
       id="linearGradient4249"
       y2="238"
       xlink:href="#linearGradient4171-8"
       gradientUnits="userSpaceOnUse"
       x2="256"
       gradientTransform="matrix(0.40625,0,0,1.0756,-238,-512)"
       y1="238" />
    <linearGradient
       id="linearGradient3083">
      <stop
         id="stop3085"
         style="stop-color:#045"
         offset="0" />
      <stop
         id="stop3087"
         style="stop-color:#045;stop-opacity:0"
         offset="1" />
    </linearGradient>
    <linearGradient
       id="linearGradient4374"
       y2="451.66"
       gradientUnits="userSpaceOnUse"
       x2="273.45999"
       gradientTransform="translate(0,20)"
       y1="358.57001"
       x1="247.24001">
      <stop
         id="stop4370"
         style="stop-color:#fff"
         offset="0" />
      <stop
         id="stop4372"
         style="stop-color:#fff;stop-opacity:0"
         offset="1" />
    </linearGradient>
    <linearGradient
       id="linearGradient4912"
       y2="494"
       gradientUnits="userSpaceOnUse"
       x2="256"
       gradientTransform="matrix(1,0,0,1.0084,0,-2.1513)"
       y1="18"
       x1="256">
      <stop
         id="stop7539"
         style="stop-color:#247eca;stop-opacity:.99608"
         offset="0" />
      <stop
         id="stop7541"
         style="stop-color:#a1d4e2;stop-opacity:.99608"
         offset="1" />
    </linearGradient>
    <linearGradient
       inkscape:collect="always"
       xlink:href="#linearGradient4374"
       id="linearGradient3107"
       gradientUnits="userSpaceOnUse"
       gradientTransform="matrix(0.14206719,0,0,0.14206719,817.63348,-411.85308)"
       x1="247.24001"
       y1="358.57001"
       x2="273.45999"
       y2="451.66" />
    <linearGradient
       inkscape:collect="always"
       xlink:href="#linearGradient4374"
       id="linearGradient3025"
       gradientUnits="userSpaceOnUse"
       gradientTransform="matrix(0.14206719,0,0,0.14206719,818.00268,-403.68788)"
       x1="247.24001"
       y1="358.57001"
       x2="273.45999"
       y2="451.66" />
  </defs>
  <sodipodi:namedview
     id="base"
     pagecolor="#ffffff"
     bordercolor="#666666"
     borderopacity="1.0"
     inkscape:pageopacity="0.0"
     inkscape:pageshadow="2"
     inkscape:zoom="0.90035381"
     inkscape:cx="362.52416"
     inkscape:cy="184.64281"
     inkscape:document-units="px"
     inkscape:current-layer="g4480"
     showgrid="true"
     showborder="true"
     fit-margin-top="0"
     fit-margin-left="0"
     fit-margin-right="0"
     fit-margin-bottom="0"
     inkscape:snap-bbox="true"
     inkscape:bbox-paths="true"
     inkscape:bbox-nodes="true"
     inkscape:snap-bbox-edge-midpoints="true"
     inkscape:snap-bbox-midpoints="true"
     inkscape:object-paths="true"
     inkscape:snap-intersection-paths="true"
     inkscape:object-nodes="true"
     inkscape:snap-smooth-nodes="true"
     inkscape:snap-midpoints="true"
     inkscape:snap-object-midpoints="true"
     inkscape:snap-center="true"
     showguides="true"
     inkscape:guide-bbox="true"
     inkscape:window-width="1535"
     inkscape:window-height="876"
     inkscape:window-x="65"
     inkscape:window-y="24"
     inkscape:window-maximized="1">
    <inkscape:grid
       type="xygrid"
       id="grid5451"
       empspacing="6" />
    <sodipodi:guide
       orientation="1,0"
       position="6,77"
       id="guide4063" />
    <sodipodi:guide
       orientation="1,0"
       position="3,78"
       id="guide4065" />
    <sodipodi:guide
       orientation="0,1"
       position="55,84"
       id="guide4067" />
    <sodipodi:guide
       orientation="0,1"
       position="53,87"
       id="guide4069" />
    <sodipodi:guide
       orientation="0,1"
       position="20,3"
       id="guide4071" />
    <sodipodi:guide
       orientation="0,1"
       position="20,6"
       id="guide4073" />
    <sodipodi:guide
       orientation="1,0"
       position="87,7"
       id="guide4075" />
    <sodipodi:guide
       orientation="1,0"
       position="84,7"
       id="guide4077" />
    <sodipodi:guide
       orientation="0,1"
       position="58,81"
       id="guide4074" />
    <sodipodi:guide
       orientation="1,0"
       position="9,74"
       id="guide4076" />
    <sodipodi:guide
       orientation="0,1"
       position="21,9"
       id="guide4078" />
    <sodipodi:guide
       orientation="1,0"
       position="81,4"
       id="guide4080" />
  </sodipodi:namedview>
  <metadata
     id="metadata4879">
    <rdf:RDF>
      <cc:Work
         rdf:about="">
        <dc:format>image/svg+xml</dc:format>
        <dc:type
           rdf:resource="http://purl.org/dc/dcmitype/StillImage" />
        <dc:title></dc:title>
      </cc:Work>
    </rdf:RDF>
  </metadata>
  <g
     inkscape:label="Layer 1"
     inkscape:groupmode="layer"
     id="layer1"
     transform="translate(67.857146,-84.50504)">
    <g
       transform="matrix(0,-1,-1,0,373.50506,516.50504)"
       id="g4845"
       style="display:inline">
      <g
         transform="matrix(0,-1,-1,0,-173.6378,899.36221)"
         id="g4480">
        <rect
           style="fill:none;stroke:none"
           id="rect4512"
           width="90"
           height="90"
           x="458"
           y="-605.63782" />
        <path
           sodipodi:nodetypes="cccccccccc"
           inkscape:connector-curvature="0"
           id="rect4520"
           d="m 463.99999,-599.63867 0,78 78,0 0,-78 z m 6,6 66,0 0,57 -66,0 z"
           style="color:#000000;fill:#555753;fill-opacity:1;fill-rule:nonzero;stroke:none;stroke-width:4;marker:none;visibility:visible;display:inline;overflow:visible;enable-background:accumulate" />
        <g
           transform="matrix(7.2637795,0,0,7.2637795,452.9,-615.0878)"
           id="g18"
           style="fill:#555753;fill-opacity:1">
          <path
             style="fill:#555753;fill-opacity:1"
             d="m 6.4929095,3.3866667 0.057301,1.5210222 C 6.7848068,4.7503374 7.0463446,4.6480955 7.3165353,4.6052898 L 6.4929072,3.3866667 z m 2.7630479,0.346151 -1.0358908,0.9526829 c 0.1797131,0.062435 0.3539078,0.1535657 0.516129,0.2736632 0.056029,0.041517 0.109109,0.085699 0.1598029,0.132115 z M 7.5925593,5.0398041 c -0.4835375,0.00476 -0.9575984,0.250415 -1.255014,0.7043277 -0.024588,0.037541 -0.047349,0.075716 -0.0686,0.114522 0.4141949,0.074604 0.7746081,0.317781 1.0375054,0.6511349 0,6.37e-5 4.048e-4,-6.36e-5 4.048e-4,0 0.1002094,-0.030462 0.2058703,-0.047642 0.3163763,-0.047642 0.6465638,0 1.1812875,0.5625332 1.1900429,1.2477886 0.021227,-0.028235 0.042014,-0.057424 0.061746,-0.087504 C 9.3630864,6.8775574 9.1912038,5.8532534 8.4904458,5.3344563 8.2167145,5.1318018 7.9025275,5.0365431 7.592566,5.0397723 z M 4.5155557,5.4666033 5.2387028,6.0310931 C 5.4094047,5.9375603 5.5960115,5.8744971 5.7935716,5.848362 5.8360199,5.7439647 5.8867946,5.6416354 5.9465138,5.5433861 L 4.5155557,5.4666351 z m 4.955893,0.529741 c 0.078926,0.2440683 0.1160488,0.5025562 0.108148,0.7609486 L 10.724444,6.245137 z M 9.2216561,7.8931284 c -0.035048,0.052891 -0.071832,0.1039121 -0.1105704,0.1522772 0.1896184,0.2311995 0.3267112,0.5118537 0.3938568,0.8197088 l 0.2865142,0.1659969 z"
             id="path20"
             inkscape:connector-curvature="0" />
          <path
             style="fill:#555753;fill-opacity:1;fill-rule:evenodd"
             d="m 5.738575,6.208889 c 0.529647,0 0.9835346,0.2998635 1.2248392,0.7320293 0.135846,-0.1017429 0.3093548,-0.1675829 0.4997642,-0.1675829 0.4327497,0 0.7839688,0.3160876 0.7839688,0.7055547 0,0.087465 -0.01662,0.1696142 -0.048986,0.2469426 C 8.6903369,7.9236743 9.0311117,8.3718422 9.0311117,8.8900062 9.0311117,9.5935863 8.4017435,10.16 7.6199685,10.16 H 4.79781 c -0.7817734,0 -1.4111433,-0.5664137 -1.4111433,-1.2699938 0,-0.5573932 0.3976289,-1.0275722 0.9504819,-1.199447 0,-0.023964 -0.00972,-0.04614 -0.00972,-0.070533 0,-0.7789413 0.6321916,-1.4111161 1.411144,-1.4111161 z"
             id="path22"
             inkscape:connector-curvature="0" />
        </g>
      </g>
    </g>
  </g>
</svg>
