<?xml version="1.0" encoding="UTF-8" standalone="no"?>
<!-- Created with Inkscape (http://www.inkscape.org/) -->

<svg
   xmlns:dc="http://purl.org/dc/elements/1.1/"
   xmlns:cc="http://creativecommons.org/ns#"
   xmlns:rdf="http://www.w3.org/1999/02/22-rdf-syntax-ns#"
   xmlns:svg="http://www.w3.org/2000/svg"
   xmlns="http://www.w3.org/2000/svg"
   xmlns:sodipodi="http://sodipodi.sourceforge.net/DTD/sodipodi-0.dtd"
   xmlns:inkscape="http://www.inkscape.org/namespaces/inkscape"
   id="svg7384"
   height="256"
   width="256"
   version="1.1"
   inkscape:version="0.48.4 r9939"
   sodipodi:docname="open_project2.svg">
  <defs
     id="defs10" />
  <sodipodi:namedview
     pagecolor="#ffffff"
     bordercolor="#666666"
     borderopacity="1"
     objecttolerance="10"
     gridtolerance="10"
     guidetolerance="10"
     inkscape:pageopacity="0"
     inkscape:pageshadow="2"
     inkscape:window-width="1535"
     inkscape:window-height="876"
     id="namedview8"
     showgrid="false"
     inkscape:zoom="0.92187502"
     inkscape:cx="-118.61287"
     inkscape:cy="176.88876"
     inkscape:window-x="65"
     inkscape:window-y="24"
     inkscape:window-maximized="1"
     inkscape:current-layer="svg7384"
     fit-margin-top="0"
     fit-margin-left="0"
     fit-margin-right="0"
     fit-margin-bottom="0"
     showguides="true"
     inkscape:guide-bbox="true">
    <sodipodi:guide
       orientation="0,1"
       position="268.22086,279.86441"
       id="guide3796" />
    <sodipodi:guide
       orientation="0,1"
       position="-129.09292,432.48312"
       id="guide3798" />
  </sodipodi:namedview>
  <metadata
     id="metadata90">
    <rdf:RDF>
      <cc:Work
         rdf:about="">
        <dc:format>image/svg+xml</dc:format>
        <dc:type
           rdf:resource="http://purl.org/dc/dcmitype/StillImage" />
        <dc:title>Gnome Symbolic Icon Theme</dc:title>
      </cc:Work>
    </rdf:RDF>
  </metadata>
  <title
     id="title9167">Gnome Symbolic Icon Theme</title>
  <g
     id="layer13"
     transform="matrix(15.9995,0,0,15.9995,-7406.9347,-3029.839)"
     style="fill:#4d4d4d;fill-opacity:1">
    <g
       id="g14154"
       transform="translate(234,-820)"
       style="fill:#4d4d4d;fill-opacity:1">
      <path
         style="fill:#4d4d4d;fill-opacity:1"
         d="M 87.53125,-59.96875 8.5,-59.796081 c -4.6259354,0 -8.5,3.874065 -8.5,8.5 L 0,173.09375 c 0,4.77585 3.7223893,8.5 8.5,8.5 l 134.46875,0 c -22.68623,-31.34716 -20.17626,-74.60382 7.75,-103.4375 11.38683,-11.756817 25.32783,-19.495393 41.625,-23.09375 6.81326,-1.504348 21.28153,-1.829228 28.6875,-0.65625 12.99383,2.058024 24.86596,7.176882 34.96875,14.53125 l 0,-38.8125 c 0,-4.625455 -3.87406,-8.5 -8.5,-8.5 l -199.5,0 0,119.96875 c 0,4.43346 -3.568138,8 -8,8 -4.431861,0 -8,-3.56654 -8,-8 L 32,13.625 c 0,-4.4318615 3.568139,-8 8,-8 l 47.5,0 136.5,0 0,-22.5 c 0,-5.235036 -4.26672,-9.5 -9.5,-9.5 l -118.5,0 0,-23.5 c 0,-6.239805 -3.828895,-10.09375 -8.46875,-10.09375 z m 112,147.1875 0,18.84375 c 0,16.63655 -0.099,18.89707 -0.9375,19.21875 -0.52241,0.20059 -9.02475,0.375 -18.90625,0.375 l -17.96875,0 0,9 0,9 18.75,0.15625 18.78125,0.15625 0.15625,18.75 0.15625,18.78125 9,0 9,0 0,-18.1875 c 0,-13.35148 0.19012,-18.40874 0.71875,-18.9375 0.52927,-0.52931 5.63375,-0.71875 19.21875,-0.71875 l 18.5,0 0,-9 0,-9 -18.0625,0 c -11.29732,0 -18.49198,-0.2361 -19.21875,-0.625 -1.11002,-0.59407 -1.15625,-1.44917 -1.15625,-19.21875 l 0,-18.59375 -9,0 z"
         transform="matrix(0.06250195,0,0,0.06250195,207.99875,1000.6496)"
         id="rect3845"
         inkscape:connector-curvature="0"
         sodipodi:nodetypes="ccssscssscsscsssssccsscsccscscccccccccscscccscsccc" />
    </g>
  </g>
  <path
     style="fill:#4d4d4d"
     d="M 8.500001,14.374998 C 3.87408,14.374998 0,18.249068 0,22.874998 L 0,247.46875 c 0,4.77586 3.7224,8.5 8.500001,8.5 l 135.374999,0 c -9.95278,-13.37748 -15.8125,-29.98228 -15.8125,-47.9375 0,-44.37415 35.9696,-80.34375 80.34375,-80.34375 17.81906,0 34.26962,5.80895 47.59375,15.625 l 0,-38.84375 c 0,-4.625443 -3.87408,-8.500003 -8.5,-8.500003 l -199.499999,0 0,120.000003 c 0,4.43346 -3.56814,8 -8,8 -4.43185,0 -8,-3.56654 -8,-8 l 0,-128.000003 c 0,-4.43186 3.56815,-8 8,-8 l 47.5,0 136.499999,0 0,-22.5 c 0,-5.23504 -4.26673,-9.5 -9.5,-9.5 l -118.499999,0 0,-23.499999 c 0,-6.2398 -3.8289,-10.0625 -8.46875,-10.0625 l -79.03125,-0.0312 z M 207.6875,156 l -48.5625,55.625 23.5625,0 0,44.375 50.15625,0 0,-44.375 23.125,0 L 207.6875,156 z"
     id="rect3845-7"
     inkscape:connector-curvature="0" />
</svg>
