<?xml version="1.0" encoding="UTF-8" standalone="no"?>
<!-- Created with Inkscape (http://www.inkscape.org/) -->

<svg
   xmlns:dc="http://purl.org/dc/elements/1.1/"
   xmlns:cc="http://creativecommons.org/ns#"
   xmlns:rdf="http://www.w3.org/1999/02/22-rdf-syntax-ns#"
   xmlns:svg="http://www.w3.org/2000/svg"
   xmlns="http://www.w3.org/2000/svg"
   xmlns:sodipodi="http://sodipodi.sourceforge.net/DTD/sodipodi-0.dtd"
   xmlns:inkscape="http://www.inkscape.org/namespaces/inkscape"
   width="248"
   height="248"
   id="svg4874"
   version="1.1"
   inkscape:version="0.91 r13725"
   viewBox="0 0 248 248"
   sodipodi:docname="page_dim.svg"
   inkscape:export-filename="/home/jsgosselin/Documents/Research/Hydrogeology/WHAT/WHAT/Icons/page_setup.png"
   inkscape:export-xdpi="90"
   inkscape:export-ydpi="90">
  <defs
     id="defs4876" />
  <sodipodi:namedview
     id="base"
     pagecolor="#ffffff"
     bordercolor="#666666"
     borderopacity="1.0"
     inkscape:pageopacity="0.0"
     inkscape:pageshadow="2"
     inkscape:zoom="0.90035383"
     inkscape:cx="214.73276"
     inkscape:cy="84.340327"
     inkscape:document-units="px"
     inkscape:current-layer="g5283"
     showgrid="true"
     showborder="true"
     fit-margin-top="0"
     fit-margin-left="0"
     fit-margin-right="0"
     fit-margin-bottom="0"
     inkscape:snap-bbox="true"
     inkscape:bbox-paths="true"
     inkscape:bbox-nodes="true"
     inkscape:snap-bbox-edge-midpoints="true"
     inkscape:snap-bbox-midpoints="true"
     inkscape:object-paths="true"
     inkscape:snap-intersection-paths="true"
     inkscape:object-nodes="true"
     inkscape:snap-smooth-nodes="true"
     inkscape:snap-midpoints="true"
     inkscape:snap-object-midpoints="true"
     inkscape:snap-center="true"
     showguides="true"
     inkscape:guide-bbox="true"
     inkscape:window-width="1535"
     inkscape:window-height="876"
     inkscape:window-x="65"
     inkscape:window-y="24"
     inkscape:window-maximized="1"
     inkscape:snap-global="false">
    <inkscape:grid
       type="xygrid"
       id="grid5451"
       empspacing="6"
       visible="true"
       enabled="true"
       snapvisiblegridlinesonly="true" />
  </sodipodi:namedview>
  <metadata
     id="metadata4879">
    <rdf:RDF>
      <cc:Work
         rdf:about="">
        <dc:format>image/svg+xml</dc:format>
        <dc:type
           rdf:resource="http://purl.org/dc/dcmitype/StillImage" />
        <dc:title></dc:title>
      </cc:Work>
    </rdf:RDF>
  </metadata>
  <g
     inkscape:label="Layer 1"
     inkscape:groupmode="layer"
     id="layer1"
     transform="translate(67.857146,73.494962)">
    <g
       transform="matrix(0,-1,-1,0,373.50506,516.50504)"
       id="g4845"
       style="display:inline">
      <g
         id="g5283"
         transform="matrix(0,-1,-1,0,-293.63782,2219.3622)">
        <path
           style="color:#000000;display:inline;overflow:visible;visibility:visible;fill:#4d4d4d;fill-opacity:1;fill-rule:nonzero;stroke:none;stroke-width:5;marker:none;enable-background:accumulate"
           d="m 1482.7849,-907.80947 0,240.26531 181.14,0 c 0,0 -0.046,-169.07157 -0.046,-240.26531 z m 21.3558,28.33378 138.3819,0 0,183.59766 -138.3819,0 z"
           id="path5289"
           inkscape:connector-curvature="0"
           sodipodi:nodetypes="cccccccccc" />
        <rect
           style="color:#000000;display:inline;overflow:visible;visibility:visible;fill:#4d4d4d;fill-opacity:1;fill-rule:nonzero;stroke:none;stroke-width:6;marker:none;enable-background:accumulate"
           id="rect5293-8-5"
           width="12.322968"
           height="209.40393"
           x="-1533.2159"
           y="676.37476"
           transform="scale(-1,-1)" />
        <rect
           style="color:#000000;display:inline;overflow:visible;visibility:visible;fill:#4d4d4d;fill-opacity:1;fill-rule:nonzero;stroke:none;stroke-width:6;marker:none;enable-background:accumulate"
           id="rect5293-8-5-6"
           width="12.322968"
           height="209.40393"
           x="-1624.9287"
           y="681.99414"
           transform="scale(-1,-1)" />
        <rect
           style="color:#000000;display:inline;overflow:visible;visibility:visible;fill:#4d4d4d;fill-opacity:1;fill-rule:nonzero;stroke:none;stroke-width:6;marker:none;enable-background:accumulate"
           id="rect5293-8-5-6-1"
           width="13.062682"
           height="164.56046"
           x="849.88733"
           y="1490.3468"
           transform="matrix(0,-1,1,0,0,0)" />
        <rect
           style="color:#000000;display:inline;overflow:visible;visibility:visible;fill:#4d4d4d;fill-opacity:1;fill-rule:nonzero;stroke:none;stroke-width:6;marker:none;enable-background:accumulate"
           id="rect5293-8-5-6-1-1"
           width="13.062682"
           height="164.56046"
           x="715.43713"
           y="1491.5248"
           transform="matrix(0,-1,1,0,0,0)" />
        <path
           style="display:inline;fill:#555753;fill-opacity:1"
           d="m 1705.6613,-1107.4882 1.4554,38.4227 c 5.9586,-3.9749 12.6013,-6.5576 19.4637,-7.6389 l -20.9191,-30.7838 z m 70.1782,8.7441 -26.3104,24.0659 c 4.5645,1.5771 8.9889,3.8792 13.1089,6.913 1.4233,1.0488 2.7713,2.1649 4.059,3.3374 z m -42.2484,33.016 c -12.2812,0.1203 -24.3218,6.3257 -31.8758,17.7921 -0.6245,0.9483 -1.2026,1.9126 -1.7423,2.8929 10.52,1.8846 19.6741,8.0275 26.3514,16.4484 0,0 0.013,-10e-4 0.013,0 2.5453,-0.7695 5.2289,-1.2035 8.0356,-1.2035 16.4219,0 30.0033,14.2103 30.2256,31.52056 0.5392,-0.71326 1.0672,-1.45065 1.5682,-2.21046 12.3965,-18.8163 8.0308,-44.6914 -9.7675,-57.7968 -6.9526,-5.1192 -14.9325,-7.5256 -22.8052,-7.4441 z m -78.1521,10.7814 18.3671,14.2596 c 4.3356,-2.3627 9.0751,-3.9558 14.093,-4.616 1.0781,-2.6372 2.3677,-5.2221 3.8845,-7.704 l -36.3446,-1.9388 z m 125.8736,13.3818 c 2.0048,6.1655 2.9475,12.6952 2.7469,19.2224 l 29.0778,-12.9376 z m -6.3443,47.91489 c -0.8902,1.33609 -1.8246,2.62496 -2.8084,3.84669 4.816,5.84037 8.2981,12.92999 10.0035,20.70679 l 7.2771,4.19325 z"
           id="path20"
           inkscape:connector-curvature="0" />
        <path
           style="display:inline;fill:#555753;fill-opacity:1;fill-rule:evenodd"
           d="m 1722.3427,-1086.1005 c 13.4525,0 24.9807,7.5749 31.1094,18.4919 3.4504,-2.5702 7.8573,-4.2334 12.6935,-4.2334 10.9911,0 19.9117,7.9848 19.9117,17.8231 0,2.2095 -0.4221,4.2847 -1.244,6.2381 12.5006,4.9977 21.156,16.3189 21.156,29.4083 0,17.7732 -15.9854,32.08148 -35.8415,32.08148 l -71.6794,0 c -19.8562,0 -35.8414,-14.30828 -35.8414,-32.08148 0,-14.0804 10.0992,-25.9576 24.1412,-30.2993 0,-0.6054 -0.2469,-1.1656 -0.2469,-1.7818 0,-19.6769 16.0567,-35.6464 35.8414,-35.6464 z"
           id="path22"
           inkscape:connector-curvature="0" />
        <rect
           style="display:inline;fill:none;stroke:#4d4d4d;stroke-width:15;stroke-miterlimit:4;stroke-dasharray:none"
           id="rect3782"
           width="182.91878"
           height="183.23624"
           x="-827.96021"
           y="-2016.5414"
           ry="0"
           transform="matrix(0,1,-1,0,0,0)" />
        <path
           style="font-style:normal;font-variant:normal;font-weight:normal;font-stretch:normal;font-size:15px;line-height:125%;font-family:Ubuntu;-inkscape-font-specification:Ubuntu;text-align:center;letter-spacing:0px;word-spacing:0px;writing-mode:lr-tb;text-anchor:middle;display:inline;fill:#4d4d4d;fill-opacity:1;stroke:none"
           d="m 1578.659,-611.25739 c -21.5385,0 -32.3077,-4.6e-4 -32.3077,25.04265 l 0,117.91469 c 0,25.04311 10.7692,25.04266 32.3077,25.04266 l 103.3846,0 c 21.5385,0 32.3077,4.5e-4 32.3077,-25.04266 l 0,-117.91469 c 0,-25.04311 -10.7692,-25.04265 -32.3077,-25.04265 l -103.3846,0 z m 4.0216,12.92306 95.3414,0 c 17.0858,0 23.4062,-10e-4 23.4062,17.64306 l 0,106.86775 c 0,17.64445 -6.3204,17.64306 -23.4062,17.64306 l -95.3414,0 c -17.0858,0 -23.4062,10e-4 -23.4062,-17.64306 l 0,-106.86775 c 0,-17.64442 6.3204,-17.64306 23.4062,-17.64306 z"
           id="path4098"
           inkscape:connector-curvature="0" />
        <rect
           style="opacity:0.21171169;fill:none;stroke:none"
           id="rect1315"
           width="90"
           height="90"
           x="1583.4626"
           y="-569.78571" />
        <rect
           transform="matrix(0.71447246,-0.69966357,-0.69966309,-0.71447292,0,0)"
           y="-771.11572"
           x="1588.5591"
           height="15.894913"
           width="23.842369"
           id="rect3022-6-2"
           style="color:#000000;display:inline;overflow:visible;visibility:visible;fill:#4d4d4d;fill-opacity:1;fill-rule:nonzero;stroke:none;stroke-width:4;marker:none;enable-background:accumulate" />
        <rect
           transform="matrix(-0.71447246,0.69966357,0.69966309,0.71447292,0,0)"
           y="757.48816"
           x="-1471.7166"
           height="15.894913"
           width="23.842369"
           id="rect3022-6-2-2"
           style="color:#000000;display:inline;overflow:visible;visibility:visible;fill:#4d4d4d;fill-opacity:1;fill-rule:nonzero;stroke:none;stroke-width:4;marker:none;enable-background:accumulate" />
        <rect
           transform="matrix(0.69966357,0.71447246,0.71447292,-0.69966309,0,0)"
           y="1527.3325"
           x="824.72565"
           height="15.894913"
           width="23.842369"
           id="rect3022-6-2-2-9-3"
           style="color:#000000;display:inline;overflow:visible;visibility:visible;fill:#4d4d4d;fill-opacity:1;fill-rule:nonzero;stroke:none;stroke-width:4;marker:none;enable-background:accumulate" />
        <path
           style="color:#000000;display:inline;overflow:visible;visibility:visible;fill:#4d4d4d;fill-opacity:1;fill-rule:nonzero;stroke:none;stroke-width:3;marker:none;enable-background:accumulate"
           d="m 1660.3779,-586.47154 c 0,0 -7.9791,19.54278 -11.6371,40.02385 0,0.003 0.01,0.005 0.012,0.005 0,0.003 0.01,0.001 0.015,0.004 0.01,0.001 0.011,1.2e-4 0.015,0.004 0.01,0.002 0.01,0.002 0.012,0.005 21.486,-3.60278 40.1878,-10.83278 40.1878,-10.83278 z"
           id="path3024-2-6"
           inkscape:connector-curvature="0"
           inkscape:transform-center-x="15.060617"
           inkscape:transform-center-y="-15.006535"
           sodipodi:nodetypes="ccsssccc" />
        <path
           style="color:#000000;display:inline;overflow:visible;visibility:visible;fill:#4d4d4d;fill-opacity:1;fill-rule:nonzero;stroke:none;stroke-width:3;marker:none;enable-background:accumulate"
           d="m 1600.3248,-468.04323 c 0,0 7.9791,-19.54278 11.6371,-40.02385 -0,-0.003 -0.01,-0.005 -0.012,-0.005 -0,-0.003 -0.01,-0.001 -0.015,-0.004 -0.01,-0.001 -0.011,-1.2e-4 -0.015,-0.004 -0.01,-0.002 -0.01,-0.002 -0.012,-0.005 -21.486,3.60278 -40.1878,10.83278 -40.1878,10.83278 z"
           id="path3024-2-6-6"
           inkscape:connector-curvature="0"
           inkscape:transform-center-x="15.060617"
           inkscape:transform-center-y="-15.006535"
           sodipodi:nodetypes="ccsssccc" />
        <path
           style="color:#000000;display:inline;overflow:visible;visibility:visible;fill:#4d4d4d;fill-opacity:1;fill-rule:nonzero;stroke:none;stroke-width:3;marker:none;enable-background:accumulate"
           d="m 1688.7267,-498.21173 c 0,0 -19.5428,-7.97914 -40.0239,-11.63714 -0,0.003 -0.01,0.006 -0.01,0.0121 -0,0.005 -10e-4,0.0103 -0,0.015 -10e-4,0.007 -10e-5,0.0112 -0,0.0149 -0,0.006 -0,0.009 -0.01,0.0121 3.6027,21.48596 10.8327,40.18781 10.8327,40.18781 z"
           id="path3024-2-6-6-0-9"
           inkscape:connector-curvature="0"
           inkscape:transform-center-x="15.060617"
           inkscape:transform-center-y="-15.006535"
           sodipodi:nodetypes="ccsssccc" />
        <path
           inkscape:connector-curvature="0"
           id="path4527"
           d="m 1630.5138,-545.10864 c -9.518,0 -17.2339,7.71585 -17.2339,17.23384 0,9.51798 7.7159,17.23386 17.2339,17.23386 9.5179,0 17.2338,-7.71588 17.2338,-17.23386 0,-9.51799 -7.7159,-17.23384 -17.2338,-17.23384 z"
           style="color:#000000;display:inline;overflow:visible;visibility:visible;fill:#555753;fill-opacity:1;fill-rule:nonzero;stroke:none;stroke-width:6;marker:none;enable-background:accumulate" />
        <path
           style="fill:none;fill-rule:evenodd;stroke:#4d4d4d;stroke-width:15;stroke-linecap:butt;stroke-linejoin:miter;stroke-miterlimit:4;stroke-dasharray:none;stroke-opacity:1"
           d="m 1878.6274,-826.51846 0,181.07709"
           id="path4405"
           inkscape:connector-curvature="0" />
        <rect
           style="opacity:1;fill:#ff0000;fill-opacity:1;stroke:none;stroke-width:15;stroke-linecap:round;stroke-linejoin:miter;stroke-miterlimit:4;stroke-dasharray:none;stroke-dashoffset:0;stroke-opacity:1"
           id="rect4407"
           width="32.487228"
           height="77.469543"
           x="2116.4194"
           y="-818.87732" />
        <path
           style="display:inline;fill:none;fill-rule:evenodd;stroke:#4d4d4d;stroke-width:15;stroke-linecap:butt;stroke-linejoin:miter;stroke-miterlimit:4;stroke-dasharray:none;stroke-opacity:1"
           d="m 1970.6208,-825.87816 0,181.07709"
           id="path4405-8"
           inkscape:connector-curvature="0" />
        <path
           style="display:inline;fill:none;fill-rule:evenodd;stroke:#4d4d4d;stroke-width:15;stroke-linecap:butt;stroke-linejoin:miter;stroke-miterlimit:4;stroke-dasharray:none;stroke-opacity:1"
           d="m 1830.019,-784.30658 186.8946,0"
           id="path4405-8-3"
           inkscape:connector-curvature="0" />
        <path
           style="display:inline;fill:none;fill-rule:evenodd;stroke:#4d4d4d;stroke-width:15;stroke-linecap:butt;stroke-linejoin:miter;stroke-miterlimit:4;stroke-dasharray:none;stroke-opacity:1"
           d="m 1833.2916,-688.98183 186.8946,0"
           id="path4405-8-3-5"
           inkscape:connector-curvature="0" />
        <path
           style="color:#000000;display:inline;overflow:visible;visibility:visible;fill:#4d4d4d;fill-opacity:1;fill-rule:nonzero;stroke:none;stroke-width:3;marker:none;enable-background:accumulate"
           d="m 1779.108,-674.07164 c 0,0 8.1768,19.46091 20.0725,36.52981 0,0.002 0.011,-0.004 0.012,-0.005 0,0.002 0.01,-0.006 0.014,-0.008 0.01,-0.006 0.01,-0.008 0.013,-0.008 0.01,-0.006 0.01,-0.006 0.012,-0.005 12.6454,-17.74044 20.7572,-36.07699 20.7572,-36.07699 z"
           id="path3024-2-6-9"
           inkscape:connector-curvature="0"
           inkscape:transform-center-x="20.976267"
           inkscape:transform-center-y="10.145368"
           sodipodi:nodetypes="ccsssccc" />
        <path
           style="display:inline;fill:none;fill-rule:evenodd;stroke:#4d4d4d;stroke-width:15.00000095;stroke-linecap:butt;stroke-linejoin:miter;stroke-miterlimit:4;stroke-dasharray:none;stroke-opacity:1"
           d="m 1799.5483,-813.50827 0,148.01174"
           id="path4405-5"
           inkscape:connector-curvature="0" />
        <path
           style="display:inline;fill:none;fill-rule:evenodd;stroke:#4d4d4d;stroke-width:15;stroke-linecap:butt;stroke-linejoin:miter;stroke-miterlimit:4;stroke-dasharray:none;stroke-opacity:1"
           d="m 2003.3851,-860.93801 -154.6874,0"
           id="path4405-5-3"
           inkscape:connector-curvature="0" />
        <path
           style="color:#000000;display:inline;overflow:visible;visibility:visible;fill:#4d4d4d;fill-opacity:1;fill-rule:nonzero;stroke:none;stroke-width:3;marker:none;enable-background:accumulate"
           d="m 1779.108,-798.92999 c 0,0 8.1768,-19.46091 20.0725,-36.52981 0,-0.002 0.011,0.004 0.012,0.005 0,-0.002 0.01,0.006 0.014,0.008 0.01,0.006 0.01,0.008 0.013,0.008 0.01,0.006 0.01,0.006 0.012,0.005 12.6454,17.74044 20.7572,36.07699 20.7572,36.07699 z"
           id="path3024-2-6-9-5"
           inkscape:connector-curvature="0"
           inkscape:transform-center-x="20.976267"
           inkscape:transform-center-y="-10.145363"
           sodipodi:nodetypes="ccsssccc" />
        <path
           style="color:#000000;display:inline;overflow:visible;visibility:visible;fill:#4d4d4d;fill-opacity:1;fill-rule:nonzero;stroke:none;stroke-width:3;marker:none;enable-background:accumulate"
           d="m 1862.3349,-840.49766 c 0,0 -19.4609,-8.1768 -36.5298,-20.0725 0,0 0,-0.011 0,-0.012 0,0 0.01,-0.01 0.01,-0.014 0.01,-0.01 0.01,-0.01 0.01,-0.013 0.01,-0.01 0.01,-0.01 0.01,-0.012 17.7404,-12.6454 36.0769,-20.7572 36.0769,-20.7572 z"
           id="path3024-2-6-9-5-1"
           inkscape:connector-curvature="0"
           inkscape:transform-center-x="10.145117"
           inkscape:transform-center-y="20.976265"
           sodipodi:nodetypes="ccsssccc" />
        <path
           style="color:#000000;display:inline;overflow:visible;visibility:visible;fill:#4d4d4d;fill-opacity:1;fill-rule:nonzero;stroke:none;stroke-width:3;marker:none;enable-background:accumulate"
           d="m 1987.5116,-881.37836 c 0,0 19.4609,8.1768 36.5298,20.0725 0,0 0,0.011 -0.01,0.012 0,0 -0.01,0.01 -0.01,0.014 -0.01,0.01 -0.01,0.01 -0.01,0.013 -0.01,0.01 -0.01,0.01 -0.01,0.012 -17.7405,12.6454 -36.077,20.7572 -36.077,20.7572 z"
           id="path3024-2-6-9-5-6"
           inkscape:connector-curvature="0"
           inkscape:transform-center-x="-10.145183"
           inkscape:transform-center-y="-20.976265"
           sodipodi:nodetypes="ccsssccc" />
      </g>
    </g>
  </g>
</svg>
