<?xml version="1.0" encoding="UTF-8" standalone="no"?>
<!-- Created with Inkscape (http://www.inkscape.org/) -->

<svg
   xmlns:dc="http://purl.org/dc/elements/1.1/"
   xmlns:cc="http://creativecommons.org/ns#"
   xmlns:rdf="http://www.w3.org/1999/02/22-rdf-syntax-ns#"
   xmlns:svg="http://www.w3.org/2000/svg"
   xmlns="http://www.w3.org/2000/svg"
   xmlns:sodipodi="http://sodipodi.sourceforge.net/DTD/sodipodi-0.dtd"
   xmlns:inkscape="http://www.inkscape.org/namespaces/inkscape"
   id="svg4479"
   height="90"
   viewBox="0 0 90 90.000001"
   width="90"
   version="1.1"
   inkscape:version="0.48.4 r9939"
   sodipodi:docname="refresh2.svg">
  <defs
     id="defs11" />
  <sodipodi:namedview
     pagecolor="#ffffff"
     bordercolor="#666666"
     borderopacity="1"
     objecttolerance="10"
     gridtolerance="10"
     guidetolerance="10"
     inkscape:pageopacity="0"
     inkscape:pageshadow="2"
     inkscape:window-width="1535"
     inkscape:window-height="876"
     id="namedview9"
     showgrid="false"
     inkscape:zoom="5.2444444"
     inkscape:cx="76.369916"
     inkscape:cy="55.043858"
     inkscape:window-x="65"
     inkscape:window-y="24"
     inkscape:window-maximized="1"
     inkscape:current-layer="svg4479" />
  <metadata
     id="metadata4484">
    <rdf:RDF>
      <cc:Work
         rdf:about="">
        <dc:format>image/svg+xml</dc:format>
        <dc:type
           rdf:resource="http://purl.org/dc/dcmitype/StillImage" />
        <dc:title />
      </cc:Work>
    </rdf:RDF>
  </metadata>
  <path
     inkscape:connector-curvature="0"
     d="m 44.119,4.0117 c -13.869,0.317 -27.28,7.6233 -34.676,20.445 -11.269,19.538 -4.4758,44.784 15.065,56.076 19.54,11.293 44.779,4.558 56.049,-14.98 C 91.826,46.0147 85.033,20.7707 65.492,9.4787 58.775,5.5965 51.384,3.8454 44.119,4.0114 z m 17.85,11.789 c 0,0 5.989,10.699 10.021,23.396 -0.002,10e-4 -10e-4,0.009 -0.002,0.01 -0.001,0.002 -0.001,0.009 -0.002,0.01 -0.001,0.002 10e-4,0.009 0,0.01 0.002,0.006 -0.001,0.008 -0.002,0.009 -12.714,-0.45 -25.232,-3.597 -25.232,-3.597 l 5.152,-6.717 c -9.696,-4.391 -21.979,0.439 -25.121,12.166 l -7.83,-2.098 c 2.805,-10.467 11.143,-17.081 20.428,-18.928 5.833,-1.16 12.039,-0.435 17.484,2.393 l 5.104,-6.654 z m 1.248,33.121 7.83,2.098 c -2.805,10.467 -11.143,17.08 -20.428,18.927 -5.833,1.161 -12.038,0.436 -17.482,-2.392 l -5.106,6.654 c 0,0 -5.987,-10.699 -10.019,-23.397 0.002,0 0.001,-0.008 0.002,-0.009 0.001,-0.002 -10e-4,-0.009 0,-0.01 0.001,-0.002 -10e-4,-0.009 0,-0.01 -0.003,-0.006 0.001,-0.007 0.002,-0.008 12.715,0.45 25.234,3.596 25.234,3.596 l -5.154,6.719 c 9.696,4.39 21.979,-0.441 25.121,-12.168 z"
     style="text-indent:0;text-transform:none;block-progression:tb;color:#000000;fill:#4d4d4d;fill-opacity:1"
     id="path5432" />
</svg>
