<?xml version="1.0" encoding="UTF-8" standalone="no"?>
<!-- Created with Inkscape (http://www.inkscape.org/) -->

<svg
   xmlns:dc="http://purl.org/dc/elements/1.1/"
   xmlns:cc="http://creativecommons.org/ns#"
   xmlns:rdf="http://www.w3.org/1999/02/22-rdf-syntax-ns#"
   xmlns:svg="http://www.w3.org/2000/svg"
   xmlns="http://www.w3.org/2000/svg"
   xmlns:sodipodi="http://sodipodi.sourceforge.net/DTD/sodipodi-0.dtd"
   xmlns:inkscape="http://www.inkscape.org/namespaces/inkscape"
   id="svg2"
   version="1.1"
   inkscape:version="0.48.4 r9939"
   width="248"
   height="248"
   sodipodi:docname="save.svg">
  <metadata
     id="metadata8">
    <rdf:RDF>
      <cc:Work
         rdf:about="">
        <dc:format>image/svg+xml</dc:format>
        <dc:type
           rdf:resource="http://purl.org/dc/dcmitype/StillImage" />
        <dc:title />
      </cc:Work>
    </rdf:RDF>
  </metadata>
  <defs
     id="defs6" />
  <sodipodi:namedview
     pagecolor="#ffffff"
     bordercolor="#666666"
     borderopacity="1"
     objecttolerance="10"
     gridtolerance="10"
     guidetolerance="10"
     inkscape:pageopacity="0"
     inkscape:pageshadow="2"
     inkscape:window-width="1535"
     inkscape:window-height="876"
     id="namedview4"
     showgrid="false"
     inkscape:zoom="1.3409091"
     inkscape:cx="200.42196"
     inkscape:cy="142.71998"
     inkscape:window-x="65"
     inkscape:window-y="24"
     inkscape:window-maximized="1"
     inkscape:current-layer="svg2"
     fit-margin-top="0"
     fit-margin-left="0"
     fit-margin-right="0"
     fit-margin-bottom="0" />
  <path
     style="fill:#4d4d4d;fill-opacity:1"
     d="M 37.538944,248 15.5,232.47276 0,216.94551 0,123.2645 0,29.58349 14.88,14.79174 29.760002,0 l 94.239988,0 94.24002,0 14.88,14.79174 L 248,29.58349 l 0,94.63699 0,94.637 -18.6,15.34506 -18.19132,13.31376 c 0,-37.98555 -0.4087,-73.9398 -0.4087,-111.92535 l -86.1206,0 -86.120587,0 C 39.416006,173.07604 38.430206,210.52979 37.538894,248 z m 86.461046,-149.3884 86.80002,0 0,-30.81612 0,-30.81612 -86.80002,0 -86.799989,0 0,30.81612 0,30.81612 z m 0,147.91739 -61.999988,0 0,-43.14257 0,-43.14257 61.999988,0 62.00001,0 0,43.14257 0,43.14257 z M 99.2,221.87609 l 12.40001,0 0,-18.48967 0,-18.48968 -12.40001,0 -12.399996,0 0,18.48968 0,18.48967 z"
     id="path3181"
     inkscape:connector-curvature="0"
     sodipodi:nodetypes="cccccccccccccccccccccccccccccccccccccccccccccc" />
</svg>
