<?xml version="1.0" encoding="UTF-8" standalone="no"?>
<!-- Created with Inkscape (http://www.inkscape.org/) -->

<svg
   xmlns:dc="http://purl.org/dc/elements/1.1/"
   xmlns:cc="http://creativecommons.org/ns#"
   xmlns:rdf="http://www.w3.org/1999/02/22-rdf-syntax-ns#"
   xmlns:svg="http://www.w3.org/2000/svg"
   xmlns="http://www.w3.org/2000/svg"
   xmlns:sodipodi="http://sodipodi.sourceforge.net/DTD/sodipodi-0.dtd"
   xmlns:inkscape="http://www.inkscape.org/namespaces/inkscape"
   id="svg2"
   version="1.1"
   inkscape:version="0.48.4 r9939"
   width="22"
   height="22"
   sodipodi:docname="save.svg">
  <metadata
     id="metadata8">
    <rdf:RDF>
      <cc:Work
         rdf:about="">
        <dc:format>image/svg+xml</dc:format>
        <dc:type
           rdf:resource="http://purl.org/dc/dcmitype/StillImage" />
        <dc:title />
      </cc:Work>
    </rdf:RDF>
  </metadata>
  <defs
     id="defs6" />
  <sodipodi:namedview
     pagecolor="#ffffff"
     bordercolor="#666666"
     borderopacity="1"
     objecttolerance="10"
     gridtolerance="10"
     guidetolerance="10"
     inkscape:pageopacity="0"
     inkscape:pageshadow="2"
     inkscape:window-width="1535"
     inkscape:window-height="876"
     id="namedview4"
     showgrid="false"
     inkscape:zoom="21.454545"
     inkscape:cx="11.838265"
     inkscape:cy="7.8308491"
     inkscape:window-x="65"
     inkscape:window-y="24"
     inkscape:window-maximized="1"
     inkscape:current-layer="svg2" />
  <path
     style="fill:#4d4d4d;fill-opacity:1"
     d="m 4.1412338,21.345764 -1.777334,-1.259669 -1.25,-1.259669 0,-7.6 0,-7.5999999 1.2,-1.2 1.2,-1.2 7.5999992,0 7.6,0 1.2,1.2 1.2,1.2 0,7.6775549 0,7.677556 -1.5,1.244889 -1.467042,1.080097 c 0,-3.08163 -0.03296,-5.998467 -0.03296,-9.080097 l -6.945209,0 -6.9452082,0 c 0.06913,3.041029 -0.01037,6.079516 -0.08225,9.119338 z m 6.9726652,-12.119338 7,0 0,-2.4999999 0,-2.5 -7,0 -6.9999992,0 0,2.5 0,2.4999999 z m 0,12 -4.9999992,0 0,-3.5 0,-3.5 4.9999992,0 5,0 0,3.5 0,3.5 z m -1.9999992,-2 1.0000002,0 0,-1.5 0,-1.5 -1.0000002,0 -1,0 0,1.5 0,1.5 z"
     id="path3181"
     inkscape:connector-curvature="0"
     sodipodi:nodetypes="cccccccccccccccccccccccccccccccccccccccccccccc" />
</svg>
