<?xml version="1.0" encoding="UTF-8" standalone="no"?>
<!-- Created with Inkscape (http://www.inkscape.org/) -->

<svg
   xmlns:dc="http://purl.org/dc/elements/1.1/"
   xmlns:cc="http://creativecommons.org/ns#"
   xmlns:rdf="http://www.w3.org/1999/02/22-rdf-syntax-ns#"
   xmlns:svg="http://www.w3.org/2000/svg"
   xmlns="http://www.w3.org/2000/svg"
   xmlns:sodipodi="http://sodipodi.sourceforge.net/DTD/sodipodi-0.dtd"
   xmlns:inkscape="http://www.inkscape.org/namespaces/inkscape"
   width="180.62692"
   height="180.62691"
   id="svg2"
   version="1.1"
   inkscape:version="0.48.4 r9939"
   sodipodi:docname="show_datadots.svg"
   inkscape:export-filename="/home/jsgosselin/Documents/Research/Hydrogeology/WHAT/WHAT/Icons/SVG/show_datadots.png"
   inkscape:export-xdpi="123.75"
   inkscape:export-ydpi="123.75">
  <defs
     id="defs4" />
  <sodipodi:namedview
     id="base"
     pagecolor="#ffffff"
     bordercolor="#666666"
     borderopacity="1.0"
     inkscape:pageopacity="0.0"
     inkscape:pageshadow="2"
     inkscape:zoom="2.8"
     inkscape:cx="99.969292"
     inkscape:cy="56.277712"
     inkscape:document-units="px"
     inkscape:current-layer="layer1"
     showgrid="false"
     inkscape:window-width="1535"
     inkscape:window-height="876"
     inkscape:window-x="65"
     inkscape:window-y="24"
     inkscape:window-maximized="1"
     fit-margin-top="0"
     fit-margin-left="0"
     fit-margin-right="0"
     fit-margin-bottom="0" />
  <metadata
     id="metadata7">
    <rdf:RDF>
      <cc:Work
         rdf:about="">
        <dc:format>image/svg+xml</dc:format>
        <dc:type
           rdf:resource="http://purl.org/dc/dcmitype/StillImage" />
        <dc:title></dc:title>
      </cc:Work>
    </rdf:RDF>
  </metadata>
  <g
     inkscape:label="Layer 1"
     inkscape:groupmode="layer"
     id="layer1"
     transform="translate(-113.48482,-354.69452)">
    <path
       style="font-size:medium;font-style:normal;font-variant:normal;font-weight:normal;font-stretch:normal;text-indent:0;text-align:start;text-decoration:none;line-height:normal;letter-spacing:normal;word-spacing:normal;text-transform:none;direction:ltr;block-progression:tb;writing-mode:lr-tb;text-anchor:start;baseline-shift:baseline;color:#000000;fill:#4d4d4d;fill-opacity:1;stroke:none;stroke-width:17.75231171;marker:none;visibility:visible;display:inline;overflow:visible;enable-background:accumulate;font-family:Sans;-inkscape-font-specification:Sans"
       d="m -123.07589,514.19643 a 8.8770435,8.8770435 0 0 0 -7.59375,5.21875 l -37.9375,84.71875 -22.59375,-17.1875 a 8.8770435,8.8770435 0 0 0 -12.9375,2.4375 l -23.1875,37.75 -14.125,-6.9375 -7.8125,15.9375 21.375,10.5 a 8.8770435,8.8770435 0 0 0 11.46875,-3.34375 l 22.28125,-36.25 23.6875,18 a 8.8770435,8.8770435 0 0 0 13.5,-3.4375 l 31.6875,-70.8125 32.062497,138.625 17.28125,-4 -37.999997,-164.375 a 8.8770435,8.8770435 0 0 0 -9.15625,-6.84375 z m -0.15625,10.8125 c 3.26811,0 5.90625,2.66939 5.90625,5.9375 0,3.26811 -2.63814,5.90625 -5.90625,5.90625 -3.26811,0 -5.9375,-2.63814 -5.9375,-5.90625 0,-3.26811 2.66939,-5.9375 5.9375,-5.9375 z m -20.03125,37.65625 c 3.26811,0 5.90625,2.66939 5.90625,5.9375 0,3.26811 -2.63814,5.90625 -5.90625,5.90625 -3.26811,0 -5.90625,-2.63814 -5.90625,-5.90625 0,-3.26811 2.63814,-5.9375 5.90625,-5.9375 z m 37.09375,24.90625 c 3.26811,0 5.90625,2.66939 5.90625,5.9375 0,3.26811 -2.63814,5.90625 -5.90625,5.90625 -3.26811,0 -5.9375,-2.63814 -5.9375,-5.90625 0,-3.26811 2.66939,-5.9375 5.9375,-5.9375 z m -90.28125,2 c 3.26811,0 5.90625,2.63814 5.90625,5.90625 0,3.26811 -2.63814,5.9375 -5.90625,5.9375 -3.26811,0 -5.9375,-2.66939 -5.9375,-5.9375 0,-3.26811 2.66939,-5.90625 5.9375,-5.90625 z m 31.0625,19.125 c 3.26811,0 5.9375,2.63814 5.9375,5.90625 0,3.26811 -2.66939,5.9375 -5.9375,5.9375 -3.26811,0 -5.90625,-2.66939 -5.90625,-5.9375 0,-3.26811 2.63814,-5.90625 5.90625,-5.90625 z m -59.78125,21.53125 c 3.26811,0 5.9375,2.63814 5.9375,5.90625 0,3.26811 -2.66939,5.90625 -5.9375,5.90625 -3.26811,0 -5.90625,-2.63814 -5.90625,-5.90625 0,-3.26811 2.63814,-5.90625 5.90625,-5.90625 z m 131.687497,11.21875 c 3.26811,0 5.90625,2.63814 5.90625,5.90625 0,3.26811 -2.63814,5.9375 -5.90625,5.9375 -3.26811,0 -5.90625,-2.66939 -5.90625,-5.9375 0,-3.26811 2.63814,-5.90625 5.90625,-5.90625 z"
       id="path3001"
       inkscape:connector-curvature="0" />
    <path
       style="fill:none;stroke:#000000;stroke-width:20;stroke-linecap:butt;stroke-linejoin:round;stroke-miterlimit:4;stroke-opacity:1;stroke-dasharray:none"
       d="m 304.91339,278.17857 -20,8.92857 -26.78571,-43.21428 -32.14286,21.07143 -41.42857,-88.57143 -38.21428,156.78571"
       id="path2983"
       inkscape:connector-curvature="0" />
    <path
       style="fill:none;stroke:#000000;stroke-width:20;stroke-linecap:butt;stroke-linejoin:round;stroke-miterlimit:4;stroke-opacity:1;stroke-dasharray:none"
       d="m -5.9893604,365.96821 -26.7857096,-43.21428 -54.28571,32.85714 -42.85715,-74.28572 -38.21428,156.78571"
       inkscape:connector-curvature="0"
       id="path2983-6"
       sodipodi:nodetypes="ccccc" />
    <path
       sodipodi:type="arc"
       style="fill:none;stroke:#cb2e2e;stroke-width:10;stroke-linecap:butt;stroke-linejoin:round;stroke-miterlimit:4;stroke-opacity:1;stroke-dasharray:none;stroke-dashoffset:0"
       sodipodi:cx="35.535713"
       sodipodi:cy="41.698338"
       sodipodi:rx="13.035714"
       sodipodi:ry="13.035714"
       d="m 48.571427,41.698338 a 13.035714,13.035714 0 1 1 -26.071428,0 13.035714,13.035714 0 1 1 26.071428,0 z"
       transform="matrix(-1,0,0,1,-111.77687,313.20663)"
       id="path10" />
    <path
       sodipodi:type="arc"
       style="fill:#ffff00;fill-opacity:1;stroke:none"
       id="path3757"
       sodipodi:cx="35.535713"
       sodipodi:cy="41.698338"
       sodipodi:rx="13.035714"
       sodipodi:ry="13.035714"
       d="m 48.571427,41.698338 a 13.035714,13.035714 0 1 1 -26.071428,0 13.035714,13.035714 0 1 1 26.071428,0 z"
       transform="matrix(-0.79658572,0,0,0.79658572,-118.92867,321.82626)" />
    <path
       sodipodi:type="arc"
       style="fill:none;stroke:#cb2e2e;stroke-width:10;stroke-linecap:butt;stroke-linejoin:round;stroke-miterlimit:4;stroke-opacity:1;stroke-dasharray:none;stroke-dashoffset:0"
       id="path3757-5"
       sodipodi:cx="35.535713"
       sodipodi:cy="41.698338"
       sodipodi:rx="13.035714"
       sodipodi:ry="13.035714"
       d="m 48.571427,41.698338 a 13.035714,13.035714 0 1 1 -26.071428,0 13.035714,13.035714 0 1 1 26.071428,0 z"
       transform="matrix(-1,0,0,1,-93.74227,241.6579)" />
    <path
       sodipodi:type="arc"
       style="fill:#ffff00;fill-opacity:1;stroke:none"
       id="path3838"
       sodipodi:cx="35.535713"
       sodipodi:cy="41.698338"
       sodipodi:rx="13.035714"
       sodipodi:ry="13.035714"
       d="m 48.571427,41.698338 a 13.035714,13.035714 0 1 1 -26.071428,0 13.035714,13.035714 0 1 1 26.071428,0 z"
       transform="matrix(-0.79658572,0,0,0.79658572,-100.89407,250.27753)" />
    <path
       sodipodi:type="arc"
       style="fill:none;stroke:#cb2e2e;stroke-width:10;stroke-linecap:butt;stroke-linejoin:round;stroke-miterlimit:4;stroke-opacity:1;stroke-dasharray:none;stroke-dashoffset:0"
       id="path3757-1"
       sodipodi:cx="35.535713"
       sodipodi:cy="41.698338"
       sodipodi:rx="13.035714"
       sodipodi:ry="13.035714"
       d="m 48.571427,41.698338 a 13.035714,13.035714 0 1 1 -26.071428,0 13.035714,13.035714 0 1 1 26.071428,0 z"
       transform="matrix(-1,0,0,1,-127.77545,372.95341)" />
    <path
       sodipodi:type="arc"
       style="fill:#ffff00;fill-opacity:1;stroke:none"
       id="path3838-2"
       sodipodi:cx="35.535713"
       sodipodi:cy="41.698338"
       sodipodi:rx="13.035714"
       sodipodi:ry="13.035714"
       d="m 48.571427,41.698338 a 13.035714,13.035714 0 1 1 -26.071428,0 13.035714,13.035714 0 1 1 26.071428,0 z"
       transform="matrix(-0.79658572,0,0,0.79658572,-134.92725,381.57304)" />
    <path
       sodipodi:type="arc"
       style="fill:none;stroke:#cb2e2e;stroke-width:10;stroke-linecap:butt;stroke-linejoin:round;stroke-miterlimit:4;stroke-opacity:1;stroke-dasharray:none;stroke-dashoffset:0"
       id="path3757-5-3"
       sodipodi:cx="35.535713"
       sodipodi:cy="41.698338"
       sodipodi:rx="13.035714"
       sodipodi:ry="13.035714"
       d="m 48.571427,41.698338 a 13.035714,13.035714 0 1 1 -26.071428,0 13.035714,13.035714 0 1 1 26.071428,0 z"
       transform="matrix(-1,0,0,1,-49.57672,310.08682)" />
    <path
       sodipodi:type="arc"
       style="fill:#ffff00;fill-opacity:1;stroke:none"
       id="path3838-9"
       sodipodi:cx="35.535713"
       sodipodi:cy="41.698338"
       sodipodi:rx="13.035714"
       sodipodi:ry="13.035714"
       d="m 48.571427,41.698338 a 13.035714,13.035714 0 1 1 -26.071428,0 13.035714,13.035714 0 1 1 26.071428,0 z"
       transform="matrix(-0.79658572,0,0,0.79658572,-56.72852,318.70645)" />
    <path
       sodipodi:type="arc"
       style="fill:none;stroke:#cb2e2e;stroke-width:10;stroke-linecap:butt;stroke-linejoin:round;stroke-miterlimit:4;stroke-opacity:1;stroke-dasharray:none;stroke-dashoffset:0"
       id="path3757-5-4"
       sodipodi:cx="35.535713"
       sodipodi:cy="41.698338"
       sodipodi:rx="13.035714"
       sodipodi:ry="13.035714"
       d="m 48.571427,41.698338 a 13.035714,13.035714 0 1 1 -26.071428,0 13.035714,13.035714 0 1 1 26.071428,0 z"
       transform="matrix(-1,0,0,1,2.2089996,284.01538)" />
    <path
       sodipodi:type="arc"
       style="fill:#ffff00;fill-opacity:1;stroke:none"
       id="path3838-0"
       sodipodi:cx="35.535713"
       sodipodi:cy="41.698338"
       sodipodi:rx="13.035714"
       sodipodi:ry="13.035714"
       d="m 48.571427,41.698338 a 13.035714,13.035714 0 1 1 -26.071428,0 13.035714,13.035714 0 1 1 26.071428,0 z"
       transform="matrix(-0.79658572,0,0,0.79658572,-4.9428004,292.63501)" />
    <path
       style="font-size:medium;font-style:normal;font-variant:normal;font-weight:normal;font-stretch:normal;text-indent:0;text-align:start;text-decoration:none;line-height:normal;letter-spacing:normal;word-spacing:normal;text-transform:none;direction:ltr;block-progression:tb;writing-mode:lr-tb;text-anchor:start;baseline-shift:baseline;color:#000000;fill:#4d4d4d;fill-opacity:1;stroke:none;stroke-width:20;marker:none;visibility:visible;display:inline;overflow:visible;enable-background:accumulate;font-family:Sans;-inkscape-font-specification:Sans"
       d="m 166.61035,361.47009 c -9.40151,0 -17.12052,7.719 -17.12052,17.12051 0,3.95689 1.39467,7.62264 3.67928,10.53342 l -10.11801,41.56992 c -6.24624,2.56151 -10.68178,8.71458 -10.68178,15.84463 0,4.20333 1.57793,8.04662 4.12435,11.03784 l -7.15085,29.31554 c -7.0123,2.14329 -12.16536,8.69803 -12.16536,16.37873 0,4.77589 1.99999,9.1085 5.19253,12.2247 l -1.89898,7.80363 18.45573,4.51008 2.16603,-8.84214 c 6.05999,-2.64583 10.32572,-8.70118 10.32572,-15.69627 0,-4.08966 -1.46261,-7.84443 -3.88698,-10.80047 l 7.23987,-29.6716 c 6.84349,-2.24552 11.83897,-8.70022 11.83897,-16.26004 0,-4.66281 -1.89416,-8.88868 -4.95516,-11.98732 l 7.95199,-32.57942 22.13502,38.36538 c -0.20275,1.04694 -0.29672,2.1312 -0.29672,3.2342 0,9.40151 7.719,17.12052 17.12051,17.12052 8.21629,0 15.14743,-5.88723 16.76446,-13.64894 0.002,-0.009 -0.002,-0.0202 0,-0.0296 l 22.99549,-13.91598 c 2.70546,1.79431 5.94142,2.84847 9.4059,2.84847 0.55728,0 1.08774,-0.0361 1.63194,-0.089 l 16.23036,26.20003 16.14136,-9.99933 -17.59526,-28.39573 c 0.45716,-1.536 0.71211,-3.15906 0.71211,-4.83647 0,-9.40151 -7.719,-17.12051 -17.12051,-17.12051 -8.22633,0 -15.15846,5.90286 -16.76446,13.67861 l -22.99549,13.91598 c -2.7093,-1.80202 -5.93331,-2.84848 -9.4059,-2.84848 -0.9375,0 -1.8614,0.0898 -2.75945,0.23738 l -23.64827,-40.97648 c 1.0044,-2.1723 1.57259,-4.58574 1.57259,-7.12118 0,-9.40151 -7.719,-17.12052 -17.12051,-17.12052 z m 0.089,7.4179 c 5.44529,0 9.85097,4.40568 9.85097,9.85097 0,5.4453 -4.40568,9.85097 -9.85097,9.85097 -5.4453,0 -9.88065,-4.40567 -9.88065,-9.85097 0,-5.44529 4.43535,-9.85097 9.88065,-9.85097 z m 91.09182,40.20502 c 5.44529,0 9.85097,4.43535 9.85097,9.88065 0,5.44529 -4.40568,9.85097 -9.85097,9.85097 -5.4453,0 -9.85098,-4.40568 -9.85098,-9.85097 0,-5.4453 4.40568,-9.88065 9.85098,-9.88065 z m -49.16585,24.77579 c 5.44529,0 9.85097,4.40568 9.85097,9.85097 0,5.4453 -4.40568,9.85097 -9.85097,9.85097 -5.44529,0 -9.85097,-4.40567 -9.85097,-9.85097 0,-5.44529 4.40568,-9.85097 9.85097,-9.85097 z m -59.04649,2.93749 c 5.4453,0 9.85097,4.43535 9.85097,9.88064 0,5.4453 -4.40567,9.85097 -9.85097,9.85097 -5.44529,0 -9.88064,-4.40567 -9.88064,-9.85097 0,-5.44529 4.43535,-9.88064 9.88064,-9.88064 z m -15.19186,56.7321 c 5.4453,0 9.85097,4.43535 9.85097,9.88064 0,5.4453 -4.40567,9.85098 -9.85097,9.85098 -5.44529,0 -9.88064,-4.40568 -9.88064,-9.85098 0,-5.44529 4.43535,-9.88064 9.88064,-9.88064 z"
       id="path2983-6-5"
       inkscape:connector-curvature="0" />
  </g>
</svg>
