<?xml version="1.0" encoding="UTF-8" standalone="no"?>
<!-- Created with Inkscape (http://www.inkscape.org/) -->

<svg
   xmlns:dc="http://purl.org/dc/elements/1.1/"
   xmlns:cc="http://creativecommons.org/ns#"
   xmlns:rdf="http://www.w3.org/1999/02/22-rdf-syntax-ns#"
   xmlns:svg="http://www.w3.org/2000/svg"
   xmlns="http://www.w3.org/2000/svg"
   xmlns:sodipodi="http://sodipodi.sourceforge.net/DTD/sodipodi-0.dtd"
   xmlns:inkscape="http://www.inkscape.org/namespaces/inkscape"
   id="svg2"
   version="1.1"
   inkscape:version="0.48.4 r9939"
   width="248"
   height="248"
   sodipodi:docname="stratigraphy2.svg"
   inkscape:export-filename="/home/jsgosselin/Documents/Research/Hydrogeology/WHAT/WHAT/Icons/stratigraphy.png"
   inkscape:export-xdpi="90"
   inkscape:export-ydpi="90">
  <metadata
     id="metadata8">
    <rdf:RDF>
      <cc:Work
         rdf:about="">
        <dc:format>image/svg+xml</dc:format>
        <dc:type
           rdf:resource="http://purl.org/dc/dcmitype/StillImage" />
        <dc:title></dc:title>
      </cc:Work>
    </rdf:RDF>
  </metadata>
  <defs
     id="defs6" />
  <sodipodi:namedview
     pagecolor="#ffffff"
     bordercolor="#666666"
     borderopacity="1"
     objecttolerance="10"
     gridtolerance="10"
     guidetolerance="10"
     inkscape:pageopacity="0"
     inkscape:pageshadow="2"
     inkscape:window-width="1535"
     inkscape:window-height="876"
     id="namedview4"
     showgrid="true"
     inkscape:zoom="2.0826613"
     inkscape:cx="123.90709"
     inkscape:cy="184.9542"
     inkscape:window-x="65"
     inkscape:window-y="24"
     inkscape:window-maximized="1"
     inkscape:current-layer="svg2"
     fit-margin-top="0"
     fit-margin-left="0"
     fit-margin-right="0"
     fit-margin-bottom="0"
     inkscape:snap-bbox="true"
     showguides="true"
     inkscape:guide-bbox="true">
    <inkscape:grid
       type="xygrid"
       id="grid3056"
       empspacing="5"
       visible="true"
       enabled="true"
       snapvisiblegridlinesonly="true" />
    <sodipodi:guide
       orientation="0,1"
       position="162,11"
       id="guide3759" />
    <sodipodi:guide
       orientation="1,0"
       position="190,155"
       id="guide3971" />
  </sodipodi:namedview>
  <rect
     style="fill:none;stroke:#4d4d4d;stroke-width:15;stroke-miterlimit:4;stroke-opacity:1;stroke-dasharray:none;display:inline"
     id="rect3020"
     width="175"
     height="51.991524"
     x="37.5"
     y="8.5084743"
     ry="18.870543"
     rx="0" />
  <rect
     style="fill:#4d4d4d;fill-opacity:1;stroke:none;display:inline"
     id="rect3020-1"
     width="190"
     height="70"
     x="30"
     y="83"
     ry="25.123253"
     rx="0" />
  <rect
     style="fill:none;stroke:#4d4d4d;stroke-width:15;stroke-miterlimit:4;stroke-opacity:1;stroke-dasharray:none;display:inline"
     id="rect3020-1-6"
     width="175"
     height="63.951309"
     x="37.5"
     y="175.5"
     ry="22.820198"
     rx="0" />
  <path
     style="fill:none;stroke:#4d4d4d;stroke-width:15;stroke-linecap:butt;stroke-linejoin:miter;stroke-miterlimit:4;stroke-opacity:1;stroke-dasharray:none"
     d="m 39.947772,180.5 c 54.552229,57.87715 54.552229,57.87715 54.552229,57.87715"
     id="path3804"
     inkscape:connector-curvature="0" />
  <path
     style="fill:none;stroke:#4d4d4d;stroke-width:15.00000095;stroke-linecap:butt;stroke-linejoin:miter;stroke-miterlimit:4;stroke-opacity:1;stroke-dasharray:none"
     d="m 74.770893,175.00214 c 62.243617,66.25588 62.243617,66.25588 62.243617,66.25588"
     id="path3804-2"
     inkscape:connector-curvature="0" />
  <path
     style="fill:none;stroke:#4d4d4d;stroke-width:15.00000095;stroke-linecap:butt;stroke-linejoin:miter;stroke-miterlimit:4;stroke-opacity:1;stroke-dasharray:none"
     d="m 114.5,174.51373 c 60,63.86342 60,63.86342 60,63.86342"
     id="path3804-2-4"
     inkscape:connector-curvature="0" />
  <path
     style="fill:none;stroke:#4d4d4d;stroke-width:14.99999905;stroke-linecap:butt;stroke-linejoin:miter;stroke-miterlimit:4;stroke-opacity:1;stroke-dasharray:none"
     d="M 154.5,174.51374 C 207.2476,230.5 207.2476,230.5 207.2476,230.5"
     id="path3804-2-4-3"
     inkscape:connector-curvature="0" />
  <path
     inkscape:connector-curvature="0"
     id="path4527"
     d="m 52.76617,5.976436 c -9.51797,0 -17.23382,8.288001 -17.23382,18.511777 C 35.53235,34.711977 43.2482,43 52.76617,43 62.28413,43 70,34.711977 70,24.488213 70,14.264437 62.28415,5.976436 52.76617,5.976436 z"
     style="color:#000000;fill:#4d4d4d;fill-opacity:1;fill-rule:nonzero;stroke:none;stroke-width:6;marker:none;visibility:visible;display:inline;overflow:visible;enable-background:accumulate" />
  <path
     inkscape:connector-curvature="0"
     id="path4527-0"
     d="m 100.62903,27.306148 c -9.517972,0 -17.233822,8.288001 -17.233822,18.511776 0,10.223765 7.71585,18.511787 17.233822,18.511787 9.51796,0 17.23383,-8.288022 17.23383,-18.511787 0,-10.223775 -7.71585,-18.511776 -17.23383,-18.511776 z"
     style="color:#000000;fill:#4d4d4d;fill-opacity:1;fill-rule:nonzero;stroke:none;stroke-width:6;marker:none;visibility:visible;display:inline;overflow:visible;enable-background:accumulate" />
  <path
     inkscape:connector-curvature="0"
     id="path4527-1"
     d="m 149.71048,5.8230928 c -9.51797,0 -17.23382,8.2880012 -17.23382,18.5117762 0,10.223765 7.71585,18.511788 17.23382,18.511788 9.51796,0 17.23383,-8.288023 17.23383,-18.511788 0,-10.223775 -7.71585,-18.5117762 -17.23383,-18.5117762 z"
     style="color:#000000;fill:#4d4d4d;fill-opacity:1;fill-rule:nonzero;stroke:none;stroke-width:6;marker:none;visibility:visible;display:inline;overflow:visible;enable-background:accumulate" />
  <path
     inkscape:connector-curvature="0"
     id="path4527-0-2"
     d="M 197.23382,30.976437 C 187.71585,30.976437 180,39.264438 180,49.488213 180,59.711978 187.71585,68 197.23382,68 c 9.51796,0 17.23383,-8.288022 17.23383,-18.511787 0,-10.223775 -7.71585,-18.511776 -17.23383,-18.511776 z"
     style="color:#000000;fill:#4d4d4d;fill-opacity:1;fill-rule:nonzero;stroke:none;stroke-width:6;marker:none;visibility:visible;display:inline;overflow:visible;enable-background:accumulate" />
</svg>
