<?xml version="1.0" encoding="UTF-8" standalone="no"?>
<!-- Created with Inkscape (http://www.inkscape.org/) -->

<svg
   xmlns:dc="http://purl.org/dc/elements/1.1/"
   xmlns:cc="http://creativecommons.org/ns#"
   xmlns:rdf="http://www.w3.org/1999/02/22-rdf-syntax-ns#"
   xmlns:svg="http://www.w3.org/2000/svg"
   xmlns="http://www.w3.org/2000/svg"
   xmlns:sodipodi="http://sodipodi.sourceforge.net/DTD/sodipodi-0.dtd"
   xmlns:inkscape="http://www.inkscape.org/namespaces/inkscape"
   id="svg2"
   version="1.1"
   inkscape:version="0.48.4 r9939"
   width="256"
   height="256"
   xml:space="preserve"
   sodipodi:docname="refresh.svg"
   inkscape:export-filename="/home/jsgosselin/Documents/Research/Hydrogeology/WHAT/WHAT/Icons/refresh.png"
   inkscape:export-xdpi="90"
   inkscape:export-ydpi="90"><metadata
     id="metadata8"><rdf:RDF><cc:Work
         rdf:about=""><dc:format>image/svg+xml</dc:format><dc:type
           rdf:resource="http://purl.org/dc/dcmitype/StillImage" /><dc:title></dc:title></cc:Work></rdf:RDF></metadata><defs
     id="defs6" /><sodipodi:namedview
     pagecolor="#ffffff"
     bordercolor="#666666"
     borderopacity="1"
     objecttolerance="10"
     gridtolerance="10"
     guidetolerance="10"
     inkscape:pageopacity="0"
     inkscape:pageshadow="2"
     inkscape:window-width="1535"
     inkscape:window-height="876"
     id="namedview4"
     showgrid="false"
     inkscape:zoom="1.9032259"
     inkscape:cx="95.953123"
     inkscape:cy="128.68592"
     inkscape:window-x="65"
     inkscape:window-y="24"
     inkscape:window-maximized="1"
     inkscape:current-layer="g10" /><g
     id="g10"
     inkscape:groupmode="layer"
     inkscape:label="refresh2"
     transform="matrix(1.25,0,0,-1.25,0,256.00001)"><g
       id="g12"
       transform="matrix(1.032788,0,0,1.0327818,-0.05310034,-0.05207496)"><path
         d="M 97.102,196.775 C 64.09,196.021 32.168,178.63 14.566,148.111 -12.258,101.607 3.91,41.517 50.422,14.638 96.934,-12.241 157.008,3.791 183.836,50.295 c 26.824,46.503 10.652,106.589 -35.859,133.464 -15.989,9.243 -33.582,13.411 -50.875,13.016 z m 42.488,-28.063 c 0,0 14.258,-25.464 23.855,-55.687 -0.007,0 -0.004,-0.02 -0.007,-0.023 0,-0.004 0,-0.02 -0.004,-0.024 -0.004,-0.004 0.004,-0.019 0,-0.023 0.004,-0.016 -0.004,-0.02 -0.004,-0.02 -30.262,1.07 -60.059,8.559 -60.059,8.559 l 12.262,15.988 C 92.555,147.935 63.316,136.439 55.84,108.525 l -18.641,4.996 c 6.68,24.91 26.524,40.652 48.625,45.051 13.887,2.762 28.656,1.035 41.617,-5.695 l 12.149,15.835 z m 2.972,-78.832 18.637,-4.996 C 154.523,59.97 134.676,44.232 112.574,39.837 98.691,37.072 83.922,38.798 70.961,45.529 L 58.809,29.693 c 0,0 -14.25,25.465 -23.848,55.687 0.004,0 0.004,0.02 0.004,0.024 0.004,0.004 0,0.019 0,0.023 0.004,0.004 0,0.02 0,0.024 -0.008,0.011 0.004,0.015 0.004,0.019 30.265,-1.074 60.066,-8.562 60.066,-8.562 L 82.766,60.916 c 23.082,-10.45 52.316,1.05 59.796,28.964 z"
         style="fill:#4d4d4d;fill-opacity:1;fill-rule:nonzero;stroke:none"
         id="path14"
         inkscape:connector-curvature="0" /></g></g></svg>