<?xml version="1.0" encoding="UTF-8" standalone="no"?>
<!-- Created with Inkscape (http://www.inkscape.org/) -->

<svg
   xmlns:dc="http://purl.org/dc/elements/1.1/"
   xmlns:cc="http://creativecommons.org/ns#"
   xmlns:rdf="http://www.w3.org/1999/02/22-rdf-syntax-ns#"
   xmlns:svg="http://www.w3.org/2000/svg"
   xmlns="http://www.w3.org/2000/svg"
   xmlns:xlink="http://www.w3.org/1999/xlink"
   xmlns:sodipodi="http://sodipodi.sourceforge.net/DTD/sodipodi-0.dtd"
   xmlns:inkscape="http://www.inkscape.org/namespaces/inkscape"
   width="48px"
   height="48px"
   id="svg7420"
   sodipodi:version="0.32"
   inkscape:version="0.48.4 r9939"
   sodipodi:docname="refresh.svg"
   inkscape:output_extension="org.inkscape.output.svg.inkscape"
   version="1.1">
  <defs
     id="defs7422">
    <linearGradient
       id="linearGradient3319">
      <stop
         style="stop-color:#ffffff;stop-opacity:0;"
         offset="0"
         id="stop3321" />
      <stop
         id="stop3323"
         offset="0.57424062"
         style="stop-color:#ffffff;stop-opacity:0.14383562;" />
      <stop
         style="stop-color:#ffffff;stop-opacity:0;"
         offset="1"
         id="stop3325" />
    </linearGradient>
    <linearGradient
       inkscape:collect="always"
       xlink:href="#linearGradient3319"
       id="linearGradient3317"
       gradientUnits="userSpaceOnUse"
       gradientTransform="matrix(0.9543659,0,0,0.9543659,0.49369,1.8951134)"
       x1="24.668951"
       y1="42.95816"
       x2="39.686337"
       y2="28.50532" />
    <linearGradient
       id="linearGradient4873"
       inkscape:collect="always">
      <stop
         id="stop4875"
         offset="0"
         style="stop-color:#ffffff;stop-opacity:1;" />
      <stop
         id="stop4877"
         offset="1"
         style="stop-color:#ffffff;stop-opacity:0;" />
    </linearGradient>
    <linearGradient
       inkscape:collect="always"
       xlink:href="#linearGradient4873"
       id="linearGradient3567"
       gradientUnits="userSpaceOnUse"
       gradientTransform="matrix(0.9543659,0,0,0.9543659,0.49369,1.8951134)"
       x1="21.628975"
       y1="2.1102102"
       x2="22.245434"
       y2="43.366352" />
    <linearGradient
       id="linearGradient3266">
      <stop
         style="stop-color:#204a87;stop-opacity:1"
         offset="0"
         id="stop3268" />
      <stop
         style="stop-color:#204a87;stop-opacity:0"
         offset="1"
         id="stop3270" />
    </linearGradient>
    <linearGradient
       inkscape:collect="always"
       xlink:href="#linearGradient3266"
       id="linearGradient3272"
       x1="33.686768"
       y1="35.773647"
       x2="37.039948"
       y2="29.856804"
       gradientUnits="userSpaceOnUse"
       gradientTransform="translate(3.86e-4,-0.9995213)" />
    <linearGradient
       inkscape:collect="always"
       id="linearGradient3276">
      <stop
         style="stop-color:#3465a4;stop-opacity:1"
         offset="0"
         id="stop3278" />
      <stop
         style="stop-color:#3465a4;stop-opacity:0"
         offset="1"
         id="stop3280" />
    </linearGradient>
    <linearGradient
       inkscape:collect="always"
       xlink:href="#linearGradient3276"
       id="linearGradient3282"
       x1="31.226292"
       y1="34.600941"
       x2="34.96563"
       y2="26.842505"
       gradientUnits="userSpaceOnUse"
       gradientTransform="translate(3.86e-4,-0.9995213)" />
    <linearGradient
       id="linearGradient3533">
      <stop
         id="stop3535"
         style="stop-color:#729fcf;stop-opacity:1"
         offset="0" />
      <stop
         id="stop3545"
         style="stop-color:#3465a4;stop-opacity:1"
         offset="1" />
    </linearGradient>
    <linearGradient
       inkscape:collect="always"
       id="linearGradient8838">
      <stop
         style="stop-color:#000000;stop-opacity:1;"
         offset="0"
         id="stop8840" />
      <stop
         style="stop-color:#000000;stop-opacity:0;"
         offset="1"
         id="stop8842" />
    </linearGradient>
    <radialGradient
       inkscape:collect="always"
       xlink:href="#linearGradient8838"
       id="radialGradient3533"
       gradientUnits="userSpaceOnUse"
       gradientTransform="matrix(1,0,0,0.341176,0,3.047059)"
       cx="62.625"
       cy="4.625"
       fx="62.625"
       fy="4.625"
       r="10.625" />
  </defs>
  <sodipodi:namedview
     id="base"
     pagecolor="#ffffff"
     bordercolor="#666666"
     borderopacity="1.0"
     inkscape:pageopacity="0.0"
     inkscape:pageshadow="2"
     inkscape:zoom="4.9497475"
     inkscape:cx="-23.197999"
     inkscape:cy="34.385539"
     inkscape:current-layer="layer1"
     showgrid="true"
     inkscape:grid-bbox="true"
     inkscape:document-units="px"
     inkscape:window-width="1535"
     inkscape:window-height="876"
     inkscape:window-x="65"
     inkscape:window-y="24"
     inkscape:window-maximized="1" />
  <metadata
     id="metadata7425">
    <rdf:RDF>
      <cc:Work
         rdf:about="">
        <dc:format>image/svg+xml</dc:format>
        <dc:type
           rdf:resource="http://purl.org/dc/dcmitype/StillImage" />
      </cc:Work>
    </rdf:RDF>
  </metadata>
  <g
     id="layer1"
     inkscape:label="Layer 1"
     inkscape:groupmode="layer">
    <g
       transform="translate(-1.590352,-1.0136895)"
       id="layer2"
       style="display:inline" />
    <g
       id="g2630"
       inkscape:label="sdf"
       style="display:inline"
       transform="translate(-70.604319,-2.1799942)" />
    <g
       transform="matrix(0.9248169,0,0,0.9248169,-221.70714,13.0581)"
       inkscape:label="Shadow"
       id="layer6" />
    <g
       transform="matrix(0.9248169,0,0,0.9248169,-221.70714,13.0581)"
       id="g2161"
       inkscape:label="Base"
       style="display:inline" />
    <g
       transform="matrix(0.9248169,0,0,0.9248169,-270.77613,-10.260991)"
       inkscape:label="shadiw"
       id="layer5" />
    <g
       transform="matrix(0.9248169,0,0,0.9248169,-236.49158,13.317533)"
       inkscape:label="Shadow"
       id="g2482" />
    <g
       transform="matrix(0.9248169,0,0,0.9248169,-236.49158,13.317533)"
       id="g2484"
       inkscape:label="Base"
       style="display:inline" />
    <g
       transform="matrix(0.9248169,0,0,0.9248169,-285.56057,-10.001558)"
       inkscape:label="shadiw"
       id="g2486" />
    <g
       transform="matrix(0.9248169,0,0,0.9248169,-220.44739,16.571925)"
       inkscape:label="Shadow"
       id="g2309" />
    <g
       transform="matrix(0.9248169,0,0,0.9248169,-220.44739,16.571925)"
       id="g2311"
       inkscape:label="Base"
       style="display:inline" />
    <g
       transform="matrix(0.9248169,0,0,0.9248169,-269.51638,-6.7471665)"
       inkscape:label="shadiw"
       id="g2313" />
    <g
       transform="matrix(0.9248169,0,0,0.9248169,-335.99693,22.698689)"
       inkscape:label="Shadow"
       id="g2511" />
    <g
       transform="matrix(0.9248169,0,0,0.9248169,-335.99693,22.698689)"
       id="g2513"
       inkscape:label="Base"
       style="display:inline" />
    <g
       transform="matrix(0.9248169,0,0,0.9248169,-385.06592,-0.6204024)"
       inkscape:label="shadiw"
       id="g2515" />
    <g
       transform="matrix(0.9248169,0,0,0.9248169,-278.60826,-29.839987)"
       inkscape:label="Shadow"
       id="g2802" />
    <g
       transform="matrix(0.9248169,0,0,0.9248169,-278.60826,-29.839987)"
       id="g2170"
       inkscape:label="Base"
       style="display:inline" />
    <g
       transform="matrix(0.9248169,0,0,0.9248169,-397.47515,-3.4577371)"
       id="g5398"
       inkscape:label="Layer 1" />
    <g
       transform="matrix(0.9248169,0,0,0.9248169,-397.47515,-3.4577371)"
       inkscape:label="shadiw"
       id="g2806" />
    <g
       transform="matrix(0.9248169,0,0,0.9248169,-397.47515,-3.4577371)"
       inkscape:label="white"
       id="g2558" />
    <g
       inkscape:label="Layer 1"
       id="g3678"
       style="display:inline"
       transform="matrix(0.9248169,0,0,0.9248169,-470.53348,-11.184438)" />
    <g
       id="g3680"
       inkscape:label="bottom"
       transform="matrix(0.9248169,0,0,0.9248169,-470.53348,-11.184438)" />
    <g
       id="g4299"
       inkscape:label="back"
       style="display:inline"
       transform="matrix(0.9248169,0,0,0.9248169,-470.53348,-11.184438)" />
    <g
       transform="matrix(0.9248169,0,0,0.9248169,-325.77716,-2.9465344)"
       inkscape:label="shadiw"
       id="g3698" />
    <g
       transform="matrix(0.9248169,0,0,0.9248169,-170.10393,1.9182513)"
       inkscape:label="shadiw"
       id="g3760" />
    <g
       id="g5431"
       inkscape:label="Shadow"
       transform="matrix(0.9248169,0,0,0.9248169,-497.66445,-35.271408)" />
    <g
       style="display:inline"
       inkscape:label="Base"
       id="g4258"
       transform="matrix(0.9248169,0,0,0.9248169,-497.66445,-35.271408)" />
    <g
       id="g5440"
       inkscape:label="new"
       transform="matrix(0.9248169,0,0,0.9248169,-497.66445,-35.271408)" />
    <g
       inkscape:label="Layer 1"
       id="g3928"
       style="display:inline"
       transform="matrix(0.9248169,0,0,0.9248169,-468.59088,-22.101001)" />
    <g
       id="g3930"
       inkscape:label="bottom"
       transform="matrix(0.9248169,0,0,0.9248169,-468.59088,-22.101001)" />
    <g
       id="g3932"
       inkscape:label="back"
       style="display:inline"
       transform="matrix(0.9248169,0,0,0.9248169,-468.59088,-22.101001)" />
    <g
       transform="matrix(0.9248169,0,0,0.9248169,-323.83456,-13.863096)"
       inkscape:label="shadiw"
       id="g3934" />
    <g
       transform="matrix(0.9248169,0,0,0.9248169,-168.16133,-8.9983115)"
       inkscape:label="shadiw"
       id="g3936" />
    <g
       id="g3961"
       inkscape:label="Shadow"
       transform="matrix(0.9248169,0,0,0.9248169,-495.72186,-46.187971)" />
    <g
       style="display:inline"
       inkscape:label="Base"
       id="g3963"
       transform="matrix(0.9248169,0,0,0.9248169,-495.72186,-46.187971)" />
    <g
       id="layer7"
       inkscape:label="new"
       transform="matrix(0.9248169,0,0,0.9248169,-495.72186,-46.187971)" />
    <g
       transform="matrix(0.9248169,0,0,0.9248169,-535.84811,3.0487262)"
       inkscape:label="Shadow"
       id="g2561" />
    <g
       transform="matrix(0.9248169,0,0,0.9248169,-535.84811,3.0487262)"
       id="g2860"
       inkscape:label="Base"
       style="display:inline" />
    <g
       transform="matrix(0.9248169,0,0,0.9248169,-584.9171,-20.270364)"
       inkscape:label="shadiw"
       id="g2564" />
    <g
       transform="matrix(0.9248169,0,0,0.9248169,-271.28925,-4.8227983)"
       inkscape:label="Shadow"
       id="g2790" />
    <g
       transform="matrix(0.9248169,0,0,0.9248169,-271.28925,-4.8227983)"
       id="g2792"
       inkscape:label="Base"
       style="display:inline" />
    <g
       transform="matrix(0.9248169,0,0,0.9248169,-390.15614,21.559457)"
       id="g2794"
       inkscape:label="Layer 1" />
    <g
       transform="matrix(0.9248169,0,0,0.9248169,-390.15614,21.559457)"
       inkscape:label="shadiw"
       id="g2796" />
    <g
       transform="matrix(0.9248169,0,0,0.9248169,-390.15614,21.559457)"
       inkscape:label="white"
       id="g2798" />
    <g
       inkscape:label="Layer 1"
       id="g2886"
       style="display:inline"
       transform="matrix(0.9248169,0,0,0.9248169,-463.21447,13.832751)" />
    <g
       id="g2888"
       inkscape:label="bottom"
       transform="matrix(0.9248169,0,0,0.9248169,-463.21447,13.832751)" />
    <g
       id="g2804"
       inkscape:label="back"
       style="display:inline"
       transform="matrix(0.9248169,0,0,0.9248169,-463.21447,13.832751)" />
    <g
       transform="matrix(0.9248169,0,0,0.9248169,-318.45815,22.070659)"
       inkscape:label="shadiw"
       id="g2891" />
    <g
       transform="matrix(0.9248169,0,0,0.9248169,-162.78492,26.935445)"
       inkscape:label="shadiw"
       id="g2808" />
    <g
       id="g2810"
       inkscape:label="Shadow"
       transform="matrix(0.9248169,0,0,0.9248169,-490.34544,-10.254218)" />
    <g
       style="display:inline"
       inkscape:label="Base"
       id="g2812"
       transform="matrix(0.9248169,0,0,0.9248169,-490.34544,-10.254218)" />
    <g
       id="g2814"
       inkscape:label="new"
       transform="matrix(0.9248169,0,0,0.9248169,-490.34544,-10.254218)" />
    <g
       inkscape:label="Layer 1"
       id="g2816"
       style="display:inline"
       transform="matrix(0.9248169,0,0,0.9248169,-461.27187,2.9161879)" />
    <g
       id="g2818"
       inkscape:label="bottom"
       transform="matrix(0.9248169,0,0,0.9248169,-461.27187,2.9161879)" />
    <g
       id="g2820"
       inkscape:label="back"
       style="display:inline"
       transform="matrix(0.9248169,0,0,0.9248169,-461.27187,2.9161879)" />
    <g
       transform="matrix(0.9248169,0,0,0.9248169,-316.51555,11.154093)"
       inkscape:label="shadiw"
       id="g2823" />
    <g
       transform="matrix(0.9248169,0,0,0.9248169,-160.84232,16.018879)"
       inkscape:label="shadiw"
       id="g2825" />
    <g
       id="g2827"
       inkscape:label="Shadow"
       transform="matrix(0.9248169,0,0,0.9248169,-488.40285,-21.170781)" />
    <g
       style="display:inline"
       inkscape:label="Base"
       id="g2829"
       transform="matrix(0.9248169,0,0,0.9248169,-488.40285,-21.170781)" />
    <g
       id="g2831"
       inkscape:label="new"
       transform="matrix(0.9248169,0,0,0.9248169,-488.40285,-21.170781)" />
    <path
       id="path3372"
       style="fill:#0044aa;fill-opacity:1;stroke:none;stroke-width:1;stroke-linecap:butt;stroke-linejoin:round;stroke-miterlimit:4;stroke-opacity:1;stroke-dasharray:none"
       d="m 34.345186,24.968522 c 0,0 -2.12132,7.677159 -9.839724,7.127896 -4.882901,-0.347481 -8.553207,-4.429782 -8.499087,-9.303046 0.05412,-4.873262 4.104132,-9.05388 8.999087,-9 2.36391,0.02602 4.43898,0.509791 6.136756,2.147585 l -4.136756,4.852415 16,0 0,-16.0000001 -4.471103,3.60953 C 34.826133,4.758908 30.539614,2.8495236 25.06674,2.7892846 13.933181,2.6667394 5.0536273,11.736268 4.9305363,22.820494 4.8074443,33.904719 13.666269,42.574349 24.799828,42.696893 c 4.988376,-0.248548 8.841006,-1.460538 11.880585,-3.624655 4.668195,-3.323659 7.160207,-9.153969 7.160207,-9.153969"
       sodipodi:nodetypes="csscccccssccsc"
       inkscape:connector-curvature="0" />
  </g>
</svg>
