<?xml version="1.0" encoding="UTF-8" standalone="no"?>
<!-- Created with Inkscape (http://www.inkscape.org/) -->

<svg
   xmlns:dc="http://purl.org/dc/elements/1.1/"
   xmlns:cc="http://creativecommons.org/ns#"
   xmlns:rdf="http://www.w3.org/1999/02/22-rdf-syntax-ns#"
   xmlns:svg="http://www.w3.org/2000/svg"
   xmlns="http://www.w3.org/2000/svg"
   xmlns:sodipodi="http://sodipodi.sourceforge.net/DTD/sodipodi-0.dtd"
   xmlns:inkscape="http://www.inkscape.org/namespaces/inkscape"
   width="168.00002"
   height="168"
   id="svg4874"
   version="1.1"
   inkscape:version="0.48.4 r9939"
   viewBox="0 0 168.00002 168"
   sodipodi:docname="search_closest_weather_station.svg">
  <defs
     id="defs4876" />
  <sodipodi:namedview
     id="base"
     pagecolor="#ffffff"
     bordercolor="#666666"
     borderopacity="1.0"
     inkscape:pageopacity="0.0"
     inkscape:pageshadow="2"
     inkscape:zoom="2.1981295"
     inkscape:cx="174.57277"
     inkscape:cy="77.981404"
     inkscape:document-units="px"
     inkscape:current-layer="g1311"
     showgrid="false"
     showborder="true"
     fit-margin-top="0"
     fit-margin-left="0"
     fit-margin-right="0"
     fit-margin-bottom="0"
     inkscape:snap-bbox="true"
     inkscape:bbox-paths="false"
     inkscape:bbox-nodes="false"
     inkscape:snap-bbox-edge-midpoints="false"
     inkscape:snap-bbox-midpoints="false"
     inkscape:object-paths="false"
     inkscape:snap-intersection-paths="false"
     inkscape:object-nodes="true"
     inkscape:snap-smooth-nodes="true"
     inkscape:snap-midpoints="true"
     inkscape:snap-object-midpoints="true"
     inkscape:snap-center="true"
     showguides="false"
     inkscape:guide-bbox="true"
     inkscape:window-width="1535"
     inkscape:window-height="876"
     inkscape:window-x="65"
     inkscape:window-y="24"
     inkscape:window-maximized="1"
     inkscape:snap-nodes="false">
    <inkscape:grid
       type="xygrid"
       id="grid5451"
       empspacing="6"
       visible="true"
       enabled="true"
       snapvisiblegridlinesonly="true"
       originx="36.000013px"
       originy="35.999999px" />
    <sodipodi:guide
       orientation="1,0"
       position="42.000013,113"
       id="guide4063" />
    <sodipodi:guide
       orientation="1,0"
       position="39.000013,114"
       id="guide4065" />
    <sodipodi:guide
       orientation="0,1"
       position="91.000013,120"
       id="guide4067" />
    <sodipodi:guide
       orientation="0,1"
       position="89.000013,123"
       id="guide4069" />
    <sodipodi:guide
       orientation="0,1"
       position="56.000013,38.999999"
       id="guide4071" />
    <sodipodi:guide
       orientation="0,1"
       position="56.000013,41.999999"
       id="guide4073" />
    <sodipodi:guide
       orientation="1,0"
       position="123.00001,42.999999"
       id="guide4075" />
    <sodipodi:guide
       orientation="1,0"
       position="120.00001,42.999999"
       id="guide4077" />
    <sodipodi:guide
       orientation="0,1"
       position="94.000013,117"
       id="guide4074" />
    <sodipodi:guide
       orientation="1,0"
       position="45.000013,110"
       id="guide4076" />
    <sodipodi:guide
       orientation="0,1"
       position="57.000013,44.999999"
       id="guide4078" />
    <sodipodi:guide
       orientation="1,0"
       position="117.00001,39.999999"
       id="guide4080" />
  </sodipodi:namedview>
  <metadata
     id="metadata4879">
    <rdf:RDF>
      <cc:Work
         rdf:about="">
        <dc:format>image/svg+xml</dc:format>
        <dc:type
           rdf:resource="http://purl.org/dc/dcmitype/StillImage" />
        <dc:title></dc:title>
      </cc:Work>
    </rdf:RDF>
  </metadata>
  <g
     inkscape:label="Layer 1"
     inkscape:groupmode="layer"
     id="layer1"
     transform="translate(103.85716,-42.505044)">
    <g
       transform="matrix(0,-1,-1,0,373.50506,516.50504)"
       id="g4845"
       style="display:inline">
      <g
         transform="matrix(0,-1,-1,0,567.36222,615.36221)"
         id="g1311"
         inkscape:export-filename="envelope02.png"
         inkscape:export-xdpi="90"
         inkscape:export-ydpi="90">
        <path
           style="font-size:15px;font-style:normal;font-variant:normal;font-weight:normal;font-stretch:normal;text-align:center;line-height:125%;letter-spacing:0px;word-spacing:0px;writing-mode:lr-tb;text-anchor:middle;fill:#4d4d4d;fill-opacity:1;stroke:none;display:inline;font-family:Ubuntu;-inkscape-font-specification:Ubuntu"
           d="m 170.30768,93.362224 c -21.53847,0 -32.30769,-4.55e-4 -32.30769,25.042656 l 0,117.91468 c 0,25.04311 10.76922,25.04266 32.30769,25.04266 l 103.38462,0 c 21.53847,0 32.3077,4.5e-4 32.3077,-25.04266 l 0,-117.91468 C 306,93.361769 295.23077,93.362224 273.6923,93.362224 l -103.38462,0 z m 4.02166,12.923066 95.34135,0 c 17.08578,0 23.40623,-0.001 23.40623,17.64306 l 0,106.86774 c 0,17.64445 -6.32045,17.64306 -23.40623,17.64306 l -95.34135,0 c -17.08582,0 -23.40628,10e-4 -23.40628,-17.64306 l 0,-106.86774 c 0,-17.64442 6.32046,-17.64306 23.40628,-17.64306 z"
           id="path4098"
           inkscape:connector-curvature="0" />
        <g
           id="g3112"
           transform="translate(1.111325,-0.528238)">
          <g
             transform="matrix(1.875,0,0,1.875,-366,-1657.8169)"
             id="g1313">
            <rect
               style="opacity:0.21171169;fill:none;stroke:none"
               id="rect1315"
               width="48"
               height="48"
               x="288"
               y="152"
               transform="translate(0,804.3622)" />
          </g>
          <g
             id="g3020-8-1"
             transform="matrix(-0.0104718,0.99994517,0.99994517,0.0104718,94.442813,-172.81672)"
             style="fill:#4d4d4d;display:inline">
            <rect
               transform="matrix(-0.70710702,0.70710655,-0.70710702,-0.70710655,0,0)"
               y="-345.53851"
               x="-93.006905"
               height="15.894913"
               width="23.842369"
               id="rect3022-6-2"
               style="color:#000000;fill:#4d4d4d;fill-opacity:1;fill-rule:nonzero;stroke:none;stroke-width:4;marker:none;visibility:visible;display:inline;overflow:visible;enable-background:accumulate" />
          </g>
          <g
             id="g3020-8-1-1"
             transform="matrix(0.0104718,-0.99994517,-0.99994517,-0.0104718,347.33453,528.59764)"
             style="fill:#4d4d4d;display:inline">
            <rect
               transform="matrix(-0.70710702,0.70710655,-0.70710702,-0.70710655,0,0)"
               y="-345.53851"
               x="-93.006905"
               height="15.894913"
               width="23.842369"
               id="rect3022-6-2-2"
               style="color:#000000;fill:#4d4d4d;fill-opacity:1;fill-rule:nonzero;stroke:none;stroke-width:4;marker:none;visibility:visible;display:inline;overflow:visible;enable-background:accumulate" />
          </g>
          <g
             id="g3020-8-1-1-0"
             transform="matrix(0.99994517,0.0104718,0.0104718,-0.99994517,-128.97971,303.49752)"
             style="fill:#4d4d4d;display:inline">
            <rect
               transform="matrix(-0.70710702,0.70710655,-0.70710702,-0.70710655,0,0)"
               y="-345.53851"
               x="-93.006905"
               height="15.894913"
               width="23.842369"
               id="rect3022-6-2-2-9"
               style="color:#000000;fill:#4d4d4d;fill-opacity:1;fill-rule:nonzero;stroke:none;stroke-width:4;marker:none;visibility:visible;display:inline;overflow:visible;enable-background:accumulate" />
          </g>
          <g
             id="g3020-8-1-1-0-4"
             transform="matrix(-0.99994517,-0.0104718,-0.0104718,0.99994517,570.75705,50.463679)"
             style="fill:#4d4d4d;display:inline">
            <rect
               transform="matrix(-0.70710702,0.70710655,-0.70710702,-0.70710655,0,0)"
               y="-345.53851"
               x="-93.006905"
               height="15.894913"
               width="23.842369"
               id="rect3022-6-2-2-9-3"
               style="color:#000000;fill:#4d4d4d;fill-opacity:1;fill-rule:nonzero;stroke:none;stroke-width:4;marker:none;visibility:visible;display:inline;overflow:visible;enable-background:accumulate" />
            <g
               id="g3106">
              <path
                 transform="matrix(0,1,-1,0,478.62627,-218.28028)"
                 sodipodi:nodetypes="ccsssccc"
                 inkscape:transform-center-y="-15.006535"
                 inkscape:transform-center-x="15.060617"
                 inkscape:connector-curvature="0"
                 id="path3024-2-6"
                 d="m 289.83849,159.51632 c 0,0 19.62526,-7.77406 40.14352,-11.21738 0.003,0.003 0.005,0.006 0.005,0.0122 0.003,0.005 9.3e-4,0.0103 0.004,0.015 9.4e-4,0.007 0,0.0112 0.004,0.015 0.002,0.006 0.002,0.009 0.005,0.0122 -3.82758,21.44705 -11.25303,40.07217 -11.25303,40.07217 z"
                 style="color:#000000;fill:#4d4d4d;fill-opacity:1;fill-rule:nonzero;stroke:none;stroke-width:3;marker:none;visibility:visible;display:inline;overflow:visible;enable-background:accumulate" />
              <path
                 transform="matrix(0,-1,1,0,218.40335,480.44738)"
                 sodipodi:nodetypes="ccsssccc"
                 inkscape:transform-center-y="-15.006535"
                 inkscape:transform-center-x="15.060617"
                 inkscape:connector-curvature="0"
                 id="path3024-2-6-6"
                 d="m 289.83849,159.51632 c 0,0 19.62526,-7.77406 40.14352,-11.21738 0.003,0.003 0.005,0.006 0.005,0.0122 0.003,0.005 9.3e-4,0.0103 0.004,0.015 9.4e-4,0.007 0,0.0112 0.004,0.015 0.002,0.006 0.002,0.009 0.005,0.0122 -3.82758,21.44705 -11.25303,40.07217 -11.25303,40.07217 z"
                 style="color:#000000;fill:#4d4d4d;fill-opacity:1;fill-rule:nonzero;stroke:none;stroke-width:3;marker:none;visibility:visible;display:inline;overflow:visible;enable-background:accumulate" />
              <path
                 transform="matrix(-1,0,0,-1,697.04867,260.34747)"
                 sodipodi:nodetypes="ccsssccc"
                 inkscape:transform-center-y="-15.006535"
                 inkscape:transform-center-x="15.060617"
                 inkscape:connector-curvature="0"
                 id="path3024-2-6-6-0"
                 d="m 289.83849,159.51632 c 0,0 19.62526,-7.77406 40.14352,-11.21738 0.003,0.003 0.005,0.006 0.005,0.0122 0.003,0.005 9.3e-4,0.0103 0.004,0.015 9.4e-4,0.007 0,0.0112 0.004,0.015 0.002,0.006 0.002,0.009 0.005,0.0122 -3.82758,21.44705 -11.25303,40.07217 -11.25303,40.07217 z"
                 style="color:#000000;fill:#4d4d4d;fill-opacity:1;fill-rule:nonzero;stroke:none;stroke-width:3;marker:none;visibility:visible;display:inline;overflow:visible;enable-background:accumulate" />
              <path
                 sodipodi:nodetypes="ccsssccc"
                 inkscape:transform-center-y="-15.006535"
                 inkscape:transform-center-x="15.060617"
                 inkscape:connector-curvature="0"
                 id="path3024-2-6-6-0-9"
                 d="m 289.83849,159.51632 c 0,0 19.62526,-7.77406 40.14352,-11.21738 0.003,0.003 0.005,0.006 0.005,0.0122 0.003,0.005 9.3e-4,0.0103 0.004,0.015 9.4e-4,0.007 0,0.0112 0.004,0.015 0.002,0.006 0.002,0.009 0.005,0.0122 -3.82758,21.44705 -11.25303,40.07217 -11.25303,40.07217 z"
                 style="color:#000000;fill:#4d4d4d;fill-opacity:1;fill-rule:nonzero;stroke:none;stroke-width:3;marker:none;visibility:visible;display:inline;overflow:visible;enable-background:accumulate" />
            </g>
          </g>
        </g>
        <path
           inkscape:connector-curvature="0"
           id="path4527"
           d="m 222.16245,159.51098 c -9.51797,0 -17.23382,7.71585 -17.23382,17.23384 0,9.51798 7.71585,17.23385 17.23382,17.23385 9.51796,0 17.23383,-7.71587 17.23383,-17.23385 0,-9.51799 -7.71585,-17.23384 -17.23383,-17.23384 z"
           style="color:#000000;fill:#555753;fill-opacity:1;fill-rule:nonzero;stroke:none;stroke-width:6;marker:none;visibility:visible;display:inline;overflow:visible;enable-background:accumulate" />
      </g>
    </g>
  </g>
</svg>
