<?xml version="1.0" encoding="UTF-8" standalone="no"?>
<!-- Created with Inkscape (http://www.inkscape.org/) -->

<svg
   xmlns:dc="http://purl.org/dc/elements/1.1/"
   xmlns:cc="http://creativecommons.org/ns#"
   xmlns:rdf="http://www.w3.org/1999/02/22-rdf-syntax-ns#"
   xmlns:svg="http://www.w3.org/2000/svg"
   xmlns="http://www.w3.org/2000/svg"
   xmlns:sodipodi="http://sodipodi.sourceforge.net/DTD/sodipodi-0.dtd"
   xmlns:inkscape="http://www.inkscape.org/namespaces/inkscape"
   id="svg4479"
   height="90"
   viewBox="0 0 90 90.000001"
   width="90"
   version="1.1"
   inkscape:version="0.48.4 r9939"
   sodipodi:docname="start_all.svg"
   inkscape:export-filename="/home/jsgosselin/Documents/Research/Hydrogeology/Rainbird/Icons/start_all.png"
   inkscape:export-xdpi="150"
   inkscape:export-ydpi="150">
  <defs
     id="defs10" />
  <sodipodi:namedview
     pagecolor="#ffffff"
     bordercolor="#666666"
     borderopacity="1"
     objecttolerance="10"
     gridtolerance="10"
     guidetolerance="10"
     inkscape:pageopacity="0"
     inkscape:pageshadow="2"
     inkscape:window-width="1535"
     inkscape:window-height="876"
     id="namedview8"
     showgrid="false"
     inkscape:zoom="2.8284271"
     inkscape:cx="11.468409"
     inkscape:cy="120.16675"
     inkscape:window-x="65"
     inkscape:window-y="24"
     inkscape:window-maximized="1"
     inkscape:current-layer="g2999" />
  <metadata
     id="metadata4484">
    <rdf:RDF>
      <cc:Work
         rdf:about="">
        <dc:format>image/svg+xml</dc:format>
        <dc:type
           rdf:resource="http://purl.org/dc/dcmitype/StillImage" />
        <dc:title />
      </cc:Work>
    </rdf:RDF>
  </metadata>
  <rect
     x="-7.3242186e-06"
     y="-7.3242186e-06"
     width="90"
     height="90"
     style="fill:none"
     id="rect4616" />
  <circle
     sodipodi:ry="36.5"
     sodipodi:rx="36.5"
     sodipodi:cy="740.92999"
     sodipodi:cx="-788.57001"
     d="m -752.07001,740.92999 c 0,20.1584 -16.3416,36.5 -36.5,36.5 -20.15839,0 -36.5,-16.3416 -36.5,-36.5 0,-20.15839 16.34161,-36.5 36.5,-36.5 20.1584,0 36.5,16.34161 36.5,36.5 z"
     cy="740.92999"
     r="36.5"
     style="color:#000000;fill:none;stroke:#4d4d4d;stroke-width:9;stroke-linejoin:round;stroke-dashoffset:13.80000000000000071;stroke-opacity:1"
     cx="-788.57001"
     id="circle4620"
     transform="translate(833.57,-695.93)" />
  <g
     id="g2999"
     transform="translate(120.53774,0.69559618)">
    <path
       inkscape:connector-curvature="0"
       id="path2997"
       d="m -100.06653,44.409966 0,-16.022917 6.323892,3.164958 c 6.503846,3.255025 13.975974,7.490784 18.017416,10.213617 l 2.294132,1.545619 0.08507,-7.463762 0.08507,-7.463764 5.710062,2.834112 c 6.511122,3.231709 12.628863,6.667135 17.548182,9.85421 l 3.388708,2.19544 c 0.866428,0.500233 1.197864,1.614618 -1.3e-5,2.306213 l -4.123932,2.633705 c -5.178911,3.307456 -11.621875,6.891861 -17.764635,9.882975 l -4.758385,2.317016 -0.08507,-7.44935 -0.08507,-7.44935 -2.294132,1.54562 c -4.041442,2.722832 -11.513568,6.958591 -18.017426,10.213618 l -6.323879,3.164957 z"
       style="fill:#4d4d4d;fill-opacity:1;stroke:none"
       sodipodi:nodetypes="ccsscccssccsscccsscc" />
  </g>
</svg>
