<?xml version="1.0" encoding="UTF-8" standalone="no"?>
<!-- Created with Inkscape (http://www.inkscape.org/) -->

<svg
   xmlns:dc="http://purl.org/dc/elements/1.1/"
   xmlns:cc="http://creativecommons.org/ns#"
   xmlns:rdf="http://www.w3.org/1999/02/22-rdf-syntax-ns#"
   xmlns:svg="http://www.w3.org/2000/svg"
   xmlns="http://www.w3.org/2000/svg"
   xmlns:xlink="http://www.w3.org/1999/xlink"
   xmlns:sodipodi="http://sodipodi.sourceforge.net/DTD/sodipodi-0.dtd"
   xmlns:inkscape="http://www.inkscape.org/namespaces/inkscape"
   id="svg3258"
   height="248"
   width="248"
   version="1.0"
   inkscape:version="0.48.4 r9939"
   sodipodi:docname="plus_sign.svg">
  <metadata
     id="metadata26">
    <rdf:RDF>
      <cc:Work
         rdf:about="">
        <dc:format>image/svg+xml</dc:format>
        <dc:type
           rdf:resource="http://purl.org/dc/dcmitype/StillImage" />
        <dc:title />
      </cc:Work>
    </rdf:RDF>
  </metadata>
  <sodipodi:namedview
     pagecolor="#ffffff"
     bordercolor="#666666"
     borderopacity="1"
     objecttolerance="10"
     gridtolerance="10"
     guidetolerance="10"
     inkscape:pageopacity="0"
     inkscape:pageshadow="2"
     inkscape:window-width="1535"
     inkscape:window-height="876"
     id="namedview24"
     showgrid="true"
     inkscape:zoom="1.7383041"
     inkscape:cx="84.32305"
     inkscape:cy="115.45166"
     inkscape:window-x="65"
     inkscape:window-y="24"
     inkscape:window-maximized="1"
     inkscape:current-layer="svg3258"
     fit-margin-top="0"
     fit-margin-left="0"
     fit-margin-right="0"
     fit-margin-bottom="0">
    <inkscape:grid
       type="xygrid"
       id="grid3001"
       empspacing="5"
       visible="true"
       enabled="true"
       snapvisiblegridlinesonly="true" />
  </sodipodi:namedview>
  <defs
     id="defs3260">
    <radialGradient
       id="radialGradient3254"
       gradientUnits="userSpaceOnUse"
       cy="4.625"
       cx="62.625"
       gradientTransform="matrix(2.1647,0,0,0.75294,-111.56,36.518)"
       r="10.625">
      <stop
         id="stop8840"
         offset="0" />
      <stop
         id="stop8842"
         style="stop-opacity:0"
         offset="1" />
    </radialGradient>
    <linearGradient
       id="linearGradient3251"
       y2="3.0816"
       gradientUnits="userSpaceOnUse"
       x2="18.379"
       gradientTransform="matrix(0.95844,0,0,0.95844,0.99752,1.9975)"
       y1="44.98"
       x1="18.379">
      <stop
         id="stop2492"
         style="stop-color:#791235"
         offset="0" />
      <stop
         id="stop2494"
         style="stop-color:#dd3b27"
         offset="1" />
    </linearGradient>
    <radialGradient
       id="radialGradient3249"
       gradientUnits="userSpaceOnUse"
       cy="3.99"
       cx="23.896"
       gradientTransform="matrix(0,2.2875,-3.0194,0,36.047,-50.63)"
       r="20.396999">
      <stop
         id="stop3244"
         style="stop-color:#f8b17e"
         offset="0" />
      <stop
         id="stop3246"
         style="stop-color:#e35d4f"
         offset=".26238" />
      <stop
         id="stop3248"
         style="stop-color:#c6262e"
         offset=".66094" />
      <stop
         id="stop3250"
         style="stop-color:#690b54"
         offset="1" />
    </radialGradient>
    <linearGradient
       id="linearGradient3246"
       y2="5.4675999"
       gradientUnits="userSpaceOnUse"
       x2="63.396999"
       gradientTransform="matrix(2.1154,0,0,2.1153,-107.58,32.427)"
       y1="-12.489"
       x1="63.396999">
      <stop
         id="stop4875"
         style="stop-color:#fff"
         offset="0" />
      <stop
         id="stop4877"
         style="stop-color:#fff;stop-opacity:0"
         offset="1" />
    </linearGradient>
    <linearGradient
       inkscape:collect="always"
       xlink:href="#linearGradient3246"
       id="linearGradient3006"
       gradientUnits="userSpaceOnUse"
       gradientTransform="matrix(2.1154,0,0,2.1153,-107.58,32.427)"
       x1="63.396999"
       y1="-12.489"
       x2="63.396999"
       y2="5.4675999" />
    <radialGradient
       inkscape:collect="always"
       xlink:href="#radialGradient3249"
       id="radialGradient3009"
       gradientUnits="userSpaceOnUse"
       gradientTransform="matrix(0,2.2875,-3.0194,0,36.047,-50.63)"
       cx="23.896"
       cy="3.99"
       r="20.396999" />
    <linearGradient
       inkscape:collect="always"
       xlink:href="#linearGradient3251"
       id="linearGradient3011"
       gradientUnits="userSpaceOnUse"
       gradientTransform="matrix(0.95844,0,0,0.95844,0.99752,1.9975)"
       x1="18.379"
       y1="44.98"
       x2="18.379"
       y2="3.0816" />
    <radialGradient
       inkscape:collect="always"
       xlink:href="#radialGradient3254"
       id="radialGradient3014"
       gradientUnits="userSpaceOnUse"
       gradientTransform="matrix(2.1647,0,0,0.75294,-111.56,36.518)"
       cx="62.625"
       cy="4.625"
       r="10.625" />
  </defs>
  <path
     inkscape:connector-curvature="0"
     d="m 21.784537,217.10887 -4.1988,0 0.02192,8.64013 c -0.0021,0.268 -0.218496,0.48437 -0.485783,0.48579 l -8.6401371,-0.0219 0,4.1988 8.6175101,-7.1e-4 c 0.267994,0.002 0.484368,0.21849 0.48649,0.48649 l 0,8.61821 4.198092,-7e-4 7.08e-4,-8.61751 c 0.0014,-0.26729 0.217788,-0.48366 0.485782,-0.48578 l 8.61751,-7.1e-4 7.07e-4,-4.19809 -8.618217,0 c -0.267994,-0.002 -0.484368,-0.2185 -0.48649,-0.48649 l 7.08e-4,-8.61751 z"
     style="fill:#ffffff;fill-opacity:1;fill-rule:evenodd"
     id="path3243" />
  <path
     style="fill:#4d4d4d;fill-opacity:1;stroke:#4d4d4d;stroke-width:3.56607866;stroke-linecap:square;stroke-linejoin:bevel;stroke-miterlimit:4;stroke-opacity:1;stroke-dasharray:none;stroke-dashoffset:0"
     d="M 112.30224,243.5775 C 84.373622,240.71984 59.235449,228.73463 39.286081,208.76539 -7.4898512,161.94281 -8.0290028,87.808911 38.059975,40.174937 54.956323,22.712164 75.636791,11.230142 99.819326,5.8854181 109.92921,3.6510209 131.39459,3.1502481 142.38393,4.8925336 200.79074,14.152467 244.22334,65.021862 244.15438,124.08869 c -0.0439,37.66938 -17.69184,72.88321 -47.95368,95.68498 -23.99239,18.07783 -54.70307,26.79108 -83.89846,23.80383 l 0,0 z m 24.94225,-76.94208 c 0,-19.83138 0.28468,-27.31152 1.06929,-28.09693 0.78538,-0.78613 8.35631,-1.07031 28.5144,-1.07031 l 27.44512,0 0,-13.37949 0,-13.37942 -26.79084,0 c -16.76354,0 -27.43593,-0.34579 -28.5144,-0.92341 -1.64707,-0.88231 -1.72357,-2.14915 -1.72357,-28.542803 l 0,-27.619539 -13.36613,0 -13.36613,0 0,28.001403 c 0,24.710889 -0.16562,28.065149 -1.40949,28.542869 -0.77521,0.29825 -13.406213,0.54115 -28.068872,0.54115 l -26.659385,0 0,13.36679 0,13.36679 27.846102,0.23574 27.846115,0.23573 0.23545,27.8739 0.23545,27.8739 13.35344,0 13.35343,0 0,-27.02656 z"
     id="path3049"
     inkscape:connector-curvature="0" />
</svg>
